solid WTRA-USAV-INDH-Indian_Hill_fault-CFM5
  facet normal -6.671712e-02 -9.854358e-01 -1.564130e-01
    outer loop
      vertex 4.3022692188e+05 3.7764794688e+06 -1.1051833980e+04
      vertex 4.3035392188e+05 3.7758670625e+06 -7.2477124000e+03
      vertex 4.2990422656e+05 3.7765018594e+06 -1.1055255860e+04
    endloop
  endfacet
  facet normal 4.680212e-01 -8.426413e-01 -2.662927e-01
    outer loop
      vertex 4.1345504688e+05 3.7711146250e+06 -3.8403874500e+03
      vertex 4.1340072656e+05 3.7698994688e+06 -9.0687500000e+01
      vertex 4.1323135938e+05 3.7710070938e+06 -3.8932624500e+03
    endloop
  endfacet
  facet normal 4.197751e-01 -8.658479e-01 -2.722064e-01
    outer loop
      vertex 4.1697972656e+05 3.7716201562e+06 -4.4687500000e+01
      vertex 4.1608497656e+05 3.7711899844e+06 -5.6187500000e+01
      vertex 4.1587382812e+05 3.7722669531e+06 -3.8074812000e+03
    endloop
  endfacet
  facet normal 4.195473e-01 -8.652857e-01 -2.743369e-01
    outer loop
      vertex 4.1569192188e+05 3.7721900625e+06 -3.8116374500e+03
      vertex 4.1608497656e+05 3.7711899844e+06 -5.6187500000e+01
      vertex 4.1546823438e+05 3.7720825156e+06 -3.8145124500e+03
    endloop
  endfacet
  facet normal 4.199062e-01 -8.661633e-01 -2.709980e-01
    outer loop
      vertex 4.1127250000e+05 3.7712543750e+06 -7.7188374000e+03
      vertex 4.1065576562e+05 3.7721469062e+06 -1.1527162110e+04
      vertex 4.1132682812e+05 3.7724695312e+06 -1.1518537110e+04
    endloop
  endfacet
  facet normal 4.198979e-01 -8.661669e-01 -2.709993e-01
    outer loop
      vertex 4.1171987500e+05 3.7714694531e+06 -7.7130874000e+03
      vertex 4.1216725000e+05 3.7716845312e+06 -7.7073374000e+03
      vertex 4.1211292188e+05 3.7704693750e+06 -3.9076374500e+03
    endloop
  endfacet
  facet normal 4.198977e-01 -8.661665e-01 -2.710009e-01
    outer loop
      vertex 4.1155051562e+05 3.7725770781e+06 -1.1515662110e+04
      vertex 4.1216725000e+05 3.7716845312e+06 -7.7073374000e+03
      vertex 4.1171987500e+05 3.7714694531e+06 -7.7130874000e+03
    endloop
  endfacet
  facet normal 4.199224e-01 -8.661552e-01 -2.709987e-01
    outer loop
      vertex 4.1099448438e+05 3.7699316562e+06 -3.9220124500e+03
      vertex 4.1082512500e+05 3.7710392812e+06 -7.7245874000e+03
      vertex 4.1121817188e+05 3.7700392031e+06 -3.9191374500e+03
    endloop
  endfacet
  facet normal 4.195352e-01 -8.652920e-01 -2.743355e-01
    outer loop
      vertex 4.1429547656e+05 3.7703296406e+06 -7.9187500000e+01
      vertex 4.1340072656e+05 3.7698994688e+06 -9.0687500000e+01
      vertex 4.1345504688e+05 3.7711146250e+06 -3.8403874500e+03
    endloop
  endfacet
  facet normal 1.113672e-02 -9.862937e-01 -1.646232e-01
    outer loop
      vertex 4.2964220312e+05 3.7765037188e+06 -1.1057849610e+04
      vertex 4.2912676562e+05 3.7758639375e+06 -7.2596499000e+03
      vertex 4.2929064844e+05 3.7765003125e+06 -1.1061224610e+04
    endloop
  endfacet
  facet normal 2.347595e-01 -9.404007e-01 -2.460377e-01
    outer loop
      vertex 4.1901097656e+05 3.7756486250e+06 -1.1202333980e+04
      vertex 4.1917292188e+05 3.7746950938e+06 -7.4032436500e+03
      vertex 4.1877055469e+05 3.7745964219e+06 -7.4100249000e+03
    endloop
  endfacet
  facet normal -6.670974e-02 -9.854355e-01 -1.564184e-01
    outer loop
      vertex 4.3158276562e+05 3.7757817812e+06 -7.2346499000e+03
      vertex 4.3177170312e+05 3.7751650625e+06 -3.4299030800e+03
      vertex 4.3099931250e+05 3.7758222656e+06 -7.2408686500e+03
    endloop
  endfacet
  facet normal -5.084501e-03 -9.820772e-01 -1.884105e-01
    outer loop
      vertex 4.2594875781e+05 3.7773146562e+06 -1.4899299800e+04
      vertex 4.2679986719e+05 3.7765795156e+06 -1.1090396480e+04
      vertex 4.2601380469e+05 3.7765850781e+06 -1.1098177730e+04
    endloop
  endfacet
  facet normal 1.761544e-01 -9.610626e-01 -2.129044e-01
    outer loop
      vertex 4.2388628125e+05 3.7748738594e+06 -3.5297155800e+03
      vertex 4.2310547656e+05 3.7738923438e+06 2.5487500000e+02
      vertex 4.2310892969e+05 3.7747338906e+06 -3.5410593300e+03
    endloop
  endfacet
  facet normal 1.761544e-01 -9.610626e-01 -2.129044e-01
    outer loop
      vertex 4.2388628125e+05 3.7748738594e+06 -3.5297155800e+03
      vertex 4.2310892969e+05 3.7747338906e+06 -3.5410593300e+03
      vertex 4.2363061719e+05 3.7756687500e+06 -7.3294311500e+03
    endloop
  endfacet
  facet normal 1.754273e-01 -9.548473e-01 -2.397748e-01
    outer loop
      vertex 4.1922814844e+05 3.7757170000e+06 -1.1199177730e+04
      vertex 4.1884902344e+05 3.7766021406e+06 -1.5001424800e+04
      vertex 4.1988549219e+05 3.7767887656e+06 -1.4986299800e+04
    endloop
  endfacet
  facet normal 1.306888e-01 -9.732346e-01 -1.890367e-01
    outer loop
      vertex 4.2594875781e+05 3.7773146562e+06 -1.4899299800e+04
      vertex 4.2601380469e+05 3.7765850781e+06 -1.1098177730e+04
      vertex 4.2577985938e+05 3.7765545312e+06 -1.1102646480e+04
    endloop
  endfacet
  facet normal 1.114759e-02 -9.862941e-01 -1.646198e-01
    outer loop
      vertex 4.3020521094e+05 3.7746048594e+06 3.5700000000e+02
      vertex 4.2879898438e+05 3.7745912188e+06 3.4350000000e+02
      vertex 4.3001754688e+05 3.7752378125e+06 -3.4479499500e+03
    endloop
  endfacet
  facet normal 1.115859e-02 -9.862942e-01 -1.646183e-01
    outer loop
      vertex 4.2982987500e+05 3.7758707656e+06 -7.2528999000e+03
      vertex 4.2896287500e+05 3.7752275781e+06 -3.4580749500e+03
      vertex 4.2912676562e+05 3.7758639375e+06 -7.2596499000e+03
    endloop
  endfacet
  facet normal -6.672854e-02 -9.854348e-01 -1.564147e-01
    outer loop
      vertex 4.3254408594e+05 3.7745078594e+06 3.8106250000e+02
      vertex 4.3125329688e+05 3.7745974375e+06 3.6737500000e+02
      vertex 4.3177170312e+05 3.7751650625e+06 -3.4299030800e+03
    endloop
  endfacet
  facet normal 2.944818e-01 -9.238690e-01 -2.444311e-01
    outer loop
      vertex 4.1960728125e+05 3.7748318750e+06 -7.3969311500e+03
      vertex 4.1917292188e+05 3.7746950938e+06 -7.4032436500e+03
      vertex 4.1922814844e+05 3.7757170000e+06 -1.1199177730e+04
    endloop
  endfacet
  facet normal 4.195474e-01 -8.652859e-01 -2.743361e-01
    outer loop
      vertex 4.1401107812e+05 3.7737600469e+06 -1.1334037110e+04
      vertex 4.1440412500e+05 3.7727599688e+06 -7.5785874000e+03
      vertex 4.1378739062e+05 3.7736525000e+06 -1.1336912110e+04
    endloop
  endfacet
  facet normal 1.307513e-01 -9.749384e-01 -1.799976e-01
    outer loop
      vertex 4.2737574219e+05 3.7745487188e+06 3.2743750000e+02
      vertex 4.2620893750e+05 3.7743963438e+06 3.0518750000e+02
      vertex 4.2640591406e+05 3.7751240625e+06 -3.4933405800e+03
    endloop
  endfacet
  facet normal 4.197709e-01 -8.658496e-01 -2.722075e-01
    outer loop
      vertex 4.1654489062e+05 3.7725895781e+06 -3.7988562000e+03
      vertex 4.1587382812e+05 3.7722669531e+06 -3.8074812000e+03
      vertex 4.1566267188e+05 3.7733439219e+06 -7.5587749000e+03
    endloop
  endfacet
  facet normal 1.138075e-02 -9.805743e-01 -1.958178e-01
    outer loop
      vertex 4.2561096875e+05 3.7757944062e+06 -7.3059936500e+03
      vertex 4.2544207031e+05 3.7750342656e+06 -3.5093405800e+03
      vertex 4.2509051562e+05 3.7750308594e+06 -3.5127155800e+03
    endloop
  endfacet
  facet normal 1.113669e-02 -9.862943e-01 -1.646192e-01
    outer loop
      vertex 4.2945453906e+05 3.7771366719e+06 -1.4862799800e+04
      vertex 4.2964220312e+05 3.7765037188e+06 -1.1057849610e+04
      vertex 4.2929064844e+05 3.7765003125e+06 -1.1061224610e+04
    endloop
  endfacet
  facet normal 4.199058e-01 -8.661625e-01 -2.710013e-01
    outer loop
      vertex 4.1216725000e+05 3.7716845312e+06 -7.7073374000e+03
      vertex 4.1155051562e+05 3.7725770781e+06 -1.1515662110e+04
      vertex 4.1222157812e+05 3.7728997031e+06 -1.1507037110e+04
    endloop
  endfacet
  facet normal 4.199224e-01 -8.661550e-01 -2.709995e-01
    outer loop
      vertex 4.1188923438e+05 3.7703618281e+06 -3.9105124500e+03
      vertex 4.1211292188e+05 3.7704693750e+06 -3.9076374500e+03
      vertex 4.1250597656e+05 3.7694692969e+06 -1.0218750000e+02
    endloop
  endfacet
  facet normal 4.195226e-01 -8.652972e-01 -2.743383e-01
    outer loop
      vertex 4.1485150000e+05 3.7729750625e+06 -7.5728374000e+03
      vertex 4.1529887500e+05 3.7731901406e+06 -7.5670874000e+03
      vertex 4.1546823438e+05 3.7720825156e+06 -3.8145124500e+03
    endloop
  endfacet
  facet normal 4.199099e-01 -8.661604e-01 -2.710014e-01
    outer loop
      vertex 4.0908995312e+05 3.7713940938e+06 -1.1547287110e+04
      vertex 4.0824952344e+05 3.7721790938e+06 -1.5358487300e+04
      vertex 4.0914427344e+05 3.7726092656e+06 -1.5346987300e+04
    endloop
  endfacet
  facet normal 1.688267e-01 -9.579468e-01 -2.320248e-01
    outer loop
      vertex 4.2023415625e+05 3.7759293750e+06 -1.1184490230e+04
      vertex 4.1988549219e+05 3.7767887656e+06 -1.4986299800e+04
      vertex 4.2101671875e+05 3.7769839375e+06 -1.4968987300e+04
    endloop
  endfacet
  facet normal 3.134650e-01 -9.156977e-01 -2.514706e-01
    outer loop
      vertex 4.1804428125e+05 3.7764047812e+06 -1.5014987300e+04
      vertex 4.1822551562e+05 3.7754237188e+06 -1.1216662110e+04
      vertex 4.1746008594e+05 3.7751658906e+06 -1.1231943360e+04
    endloop
  endfacet
  facet normal 1.307516e-01 -9.749384e-01 -1.799976e-01
    outer loop
      vertex 4.2728101562e+05 3.7752383438e+06 -3.4766530800e+03
      vertex 4.2640591406e+05 3.7751240625e+06 -3.4933405800e+03
      vertex 4.2660289062e+05 3.7758517812e+06 -7.2918686500e+03
    endloop
  endfacet
  facet normal 4.680558e-01 -8.426232e-01 -2.662890e-01
    outer loop
      vertex 4.1289264062e+05 3.7732223281e+06 -1.1498412110e+04
      vertex 4.1272327344e+05 3.7743299531e+06 -1.5300987300e+04
      vertex 4.1361802344e+05 3.7747601250e+06 -1.5089487300e+04
    endloop
  endfacet
  facet normal 1.139159e-02 -9.805748e-01 -1.958144e-01
    outer loop
      vertex 4.2472518750e+05 3.7765442969e+06 -1.1112771480e+04
      vertex 4.2454253125e+05 3.7773010156e+06 -1.4912799800e+04
      vertex 4.2594875781e+05 3.7773146562e+06 -1.4899299800e+04
    endloop
  endfacet
  facet normal 4.668972e-01 -8.482610e-01 -2.499206e-01
    outer loop
      vertex 4.1787447656e+05 3.7720503281e+06 1.6681250000e+02
      vertex 4.1697972656e+05 3.7716201562e+06 -4.4687500000e+01
      vertex 4.1766178125e+05 3.7730530000e+06 -3.6337312000e+03
    endloop
  endfacet
  facet normal 2.926871e-01 -9.170851e-01 -2.707198e-01
    outer loop
      vertex 4.1567521094e+05 3.7745284375e+06 -1.1307193360e+04
      vertex 4.1632674219e+05 3.7747335781e+06 -1.1297724610e+04
      vertex 4.1611004688e+05 3.7735590000e+06 -7.5530249000e+03
    endloop
  endfacet
  facet normal 4.680671e-01 -8.426186e-01 -2.662837e-01
    outer loop
      vertex 4.1289264062e+05 3.7732223281e+06 -1.1498412110e+04
      vertex 4.1356370312e+05 3.7735449688e+06 -1.1339787110e+04
      vertex 4.1306200000e+05 3.7721147188e+06 -7.6958374000e+03
    endloop
  endfacet
  facet normal 3.796704e-01 -8.833150e-01 -2.749637e-01
    outer loop
      vertex 4.1490582812e+05 3.7741902188e+06 -1.1322537110e+04
      vertex 4.1545152344e+05 3.7744208906e+06 -1.1310068360e+04
      vertex 4.1566267188e+05 3.7733439219e+06 -7.5587749000e+03
    endloop
  endfacet
  facet normal 3.134424e-01 -9.157052e-01 -2.514715e-01
    outer loop
      vertex 4.1858799219e+05 3.7734615625e+06 -3.6200124500e+03
      vertex 4.1876922656e+05 3.7724805000e+06 1.7831250000e+02
      vertex 4.1833284375e+05 3.7733756250e+06 -3.6251062000e+03
    endloop
  endfacet
  facet normal 3.796704e-01 -8.833148e-01 -2.749644e-01
    outer loop
      vertex 4.1451277344e+05 3.7751902969e+06 -1.5077987300e+04
      vertex 4.1545152344e+05 3.7744208906e+06 -1.1310068360e+04
      vertex 4.1490582812e+05 3.7741902188e+06 -1.1322537110e+04
    endloop
  endfacet
  facet normal 3.150199e-01 -9.218054e-01 -2.259142e-01
    outer loop
      vertex 4.2165872656e+05 3.7753394688e+06 -7.3638374000e+03
      vertex 4.2114843750e+05 3.7751675781e+06 -7.3740249000e+03
      vertex 4.2108257812e+05 3.7760757500e+06 -1.1171505860e+04
    endloop
  endfacet
  facet normal -6.671914e-02 -9.854351e-01 -1.564166e-01
    outer loop
      vertex 4.3264687500e+05 3.7751043281e+06 -3.4205749500e+03
      vertex 4.3254408594e+05 3.7745078594e+06 3.8106250000e+02
      vertex 4.3177170312e+05 3.7751650625e+06 -3.4299030800e+03
    endloop
  endfacet
  facet normal 2.942118e-01 -9.166100e-01 -2.706759e-01
    outer loop
      vertex 4.1610907812e+05 3.7757713906e+06 -1.5048737300e+04
      vertex 4.1701271094e+05 3.7749507969e+06 -1.1287693360e+04
      vertex 4.1632674219e+05 3.7747335781e+06 -1.1297724610e+04
    endloop
  endfacet
  facet normal 4.217979e-01 -8.705927e-01 -2.532883e-01
    outer loop
      vertex 4.1789646875e+05 3.7742707500e+06 -7.4285249000e+03
      vertex 4.1744909375e+05 3.7740556719e+06 -7.4342749000e+03
      vertex 4.1723639844e+05 3.7750583438e+06 -1.1234818360e+04
    endloop
  endfacet
  facet normal 4.199102e-01 -8.661611e-01 -2.709990e-01
    outer loop
      vertex 4.1188923438e+05 3.7703618281e+06 -3.9105124500e+03
      vertex 4.1250597656e+05 3.7694692969e+06 -1.0218750000e+02
      vertex 4.1161122656e+05 3.7690391250e+06 -1.1368750000e+02
    endloop
  endfacet
  facet normal 1.688406e-01 -9.579442e-01 -2.320255e-01
    outer loop
      vertex 4.2121429688e+05 3.7742594062e+06 -3.5765437000e+03
      vertex 4.2128015625e+05 3.7733512188e+06 2.2093750000e+02
      vertex 4.2093149219e+05 3.7742106094e+06 -3.5808718300e+03
    endloop
  endfacet
  facet normal 3.153410e-02 -9.778971e-01 -2.066953e-01
    outer loop
      vertex 4.2337495312e+05 3.7764636250e+06 -1.1129146480e+04
      vertex 4.2311928906e+05 3.7772585156e+06 -1.4928862300e+04
      vertex 4.2454253125e+05 3.7773010156e+06 -1.4912799800e+04
    endloop
  endfacet
  facet normal 4.195473e-01 -8.652857e-01 -2.743368e-01
    outer loop
      vertex 4.1361802344e+05 3.7747601250e+06 -1.5089487300e+04
      vertex 4.1423476562e+05 3.7738675938e+06 -1.1331162110e+04
      vertex 4.1401107812e+05 3.7737600469e+06 -1.1334037110e+04
    endloop
  endfacet
  facet normal 1.688150e-01 -9.579494e-01 -2.320224e-01
    outer loop
      vertex 4.2108257812e+05 3.7760757500e+06 -1.1171505860e+04
      vertex 4.2114843750e+05 3.7751675781e+06 -7.3740249000e+03
      vertex 4.2058282812e+05 3.7750700000e+06 -7.3826811500e+03
    endloop
  endfacet
  facet normal 4.199224e-01 -8.661550e-01 -2.709995e-01
    outer loop
      vertex 4.1043207812e+05 3.7720393594e+06 -1.1530037110e+04
      vertex 4.1003902344e+05 3.7730394375e+06 -1.5335487300e+04
      vertex 4.1065576562e+05 3.7721469062e+06 -1.1527162110e+04
    endloop
  endfacet
  facet normal 2.359160e-01 -9.469970e-01 -2.180374e-01
    outer loop
      vertex 4.2281722656e+05 3.7746957969e+06 -3.5466218300e+03
      vertex 4.2221367188e+05 3.7745477812e+06 -3.5567937000e+03
      vertex 4.2252898438e+05 3.7754992500e+06 -7.3481186500e+03
    endloop
  endfacet
  facet normal 1.139518e-02 -9.805750e-01 -1.958132e-01
    outer loop
      vertex 4.2594875781e+05 3.7773146562e+06 -1.4899299800e+04
      vertex 4.2577985938e+05 3.7765545312e+06 -1.1102646480e+04
      vertex 4.2472518750e+05 3.7765442969e+06 -1.1112771480e+04
    endloop
  endfacet
  facet normal 1.688407e-01 -9.579450e-01 -2.320218e-01
    outer loop
      vertex 4.2114843750e+05 3.7751675781e+06 -7.3740249000e+03
      vertex 4.2121429688e+05 3.7742594062e+06 -3.5765437000e+03
      vertex 4.2093149219e+05 3.7742106094e+06 -3.5808718300e+03
    endloop
  endfacet
  facet normal 4.199102e-01 -8.661611e-01 -2.709990e-01
    outer loop
      vertex 4.1065576562e+05 3.7721469062e+06 -1.1527162110e+04
      vertex 4.1003902344e+05 3.7730394375e+06 -1.5335487300e+04
      vertex 4.1093377344e+05 3.7734696094e+06 -1.5323987300e+04
    endloop
  endfacet
  facet normal 4.199224e-01 -8.661550e-01 -2.709995e-01
    outer loop
      vertex 4.1278398438e+05 3.7707920000e+06 -3.8990124500e+03
      vertex 4.1300767188e+05 3.7708995469e+06 -3.8961374500e+03
      vertex 4.1340072656e+05 3.7698994688e+06 -9.0687500000e+01
    endloop
  endfacet
  facet normal 4.680442e-01 -8.426296e-01 -2.662894e-01
    outer loop
      vertex 4.1306200000e+05 3.7721147188e+06 -7.6958374000e+03
      vertex 4.1350937500e+05 3.7723297969e+06 -7.5900874000e+03
      vertex 4.1323135938e+05 3.7710070938e+06 -3.8932624500e+03
    endloop
  endfacet
  facet normal -6.649208e-02 -9.836240e-01 -1.675189e-01
    outer loop
      vertex 4.2912676562e+05 3.7758639375e+06 -7.2596499000e+03
      vertex 4.2896287500e+05 3.7752275781e+06 -3.4580749500e+03
      vertex 4.2867114844e+05 3.7752478281e+06 -3.4611843300e+03
    endloop
  endfacet
  facet normal 1.754273e-01 -9.548473e-01 -2.397748e-01
    outer loop
      vertex 4.2012551562e+05 3.7749251875e+06 -7.3893686500e+03
      vertex 4.2024552344e+05 3.7739933906e+06 -3.5909030800e+03
      vertex 4.1998640625e+05 3.7739467344e+06 -3.5946843300e+03
    endloop
  endfacet
  facet normal 4.199060e-01 -8.661628e-01 -2.709999e-01
    outer loop
      vertex 4.1222157812e+05 3.7728997031e+06 -1.1507037110e+04
      vertex 4.1182852344e+05 3.7738997812e+06 -1.5312487300e+04
      vertex 4.1289264062e+05 3.7732223281e+06 -1.1498412110e+04
    endloop
  endfacet
  facet normal 1.754274e-01 -9.548481e-01 -2.397715e-01
    outer loop
      vertex 4.1922814844e+05 3.7757170000e+06 -1.1199177730e+04
      vertex 4.2000550000e+05 3.7758569688e+06 -1.1187833980e+04
      vertex 4.1960728125e+05 3.7748318750e+06 -7.3969311500e+03
    endloop
  endfacet
  facet normal 2.964718e-01 -9.253319e-01 -2.363587e-01
    outer loop
      vertex 4.1988549219e+05 3.7767887656e+06 -1.4986299800e+04
      vertex 4.2023415625e+05 3.7759293750e+06 -1.1184490230e+04
      vertex 4.2000550000e+05 3.7758569688e+06 -1.1187833980e+04
    endloop
  endfacet
  facet normal 3.819018e-01 -8.902621e-01 -2.481619e-01
    outer loop
      vertex 4.1840742188e+05 3.7755005938e+06 -1.1212505860e+04
      vertex 4.1877055469e+05 3.7745964219e+06 -7.4100249000e+03
      vertex 4.1822551562e+05 3.7754237188e+06 -1.1216662110e+04
    endloop
  endfacet
  facet normal 1.761544e-01 -9.610626e-01 -2.129044e-01
    outer loop
      vertex 4.2414194531e+05 3.7740789688e+06 2.7000000000e+02
      vertex 4.2310547656e+05 3.7738923438e+06 2.5487500000e+02
      vertex 4.2388628125e+05 3.7748738594e+06 -3.5297155800e+03
    endloop
  endfacet
  facet normal -5.363762e-03 -9.864730e-01 -1.638362e-01
    outer loop
      vertex 4.3125329688e+05 3.7745974375e+06 3.6737500000e+02
      vertex 4.3020521094e+05 3.7746048594e+06 3.5700000000e+02
      vertex 4.3080360938e+05 3.7752322500e+06 -3.4401687000e+03
    endloop
  endfacet
  facet normal 4.199060e-01 -8.661628e-01 -2.709999e-01
    outer loop
      vertex 4.1121817188e+05 3.7700392031e+06 -3.9191374500e+03
      vertex 4.1188923438e+05 3.7703618281e+06 -3.9105124500e+03
      vertex 4.1161122656e+05 3.7690391250e+06 -1.1368750000e+02
    endloop
  endfacet
  facet normal 4.195230e-01 -8.652981e-01 -2.743349e-01
    outer loop
      vertex 4.1395675000e+05 3.7725448750e+06 -7.5843374000e+03
      vertex 4.1412610938e+05 3.7714372656e+06 -3.8317624500e+03
      vertex 4.1350937500e+05 3.7723297969e+06 -7.5900874000e+03
    endloop
  endfacet
  facet normal 4.217982e-01 -8.705933e-01 -2.532858e-01
    outer loop
      vertex 4.1789646875e+05 3.7742707500e+06 -7.4285249000e+03
      vertex 4.1833284375e+05 3.7733756250e+06 -3.6251062000e+03
      vertex 4.1744909375e+05 3.7740556719e+06 -7.4342749000e+03
    endloop
  endfacet
  facet normal 1.695638e-01 -9.649485e-01 -2.003059e-01
    outer loop
      vertex 4.2472518750e+05 3.7765442969e+06 -1.1112771480e+04
      vertex 4.2490785156e+05 3.7757875781e+06 -7.3127436500e+03
      vertex 4.2444238281e+05 3.7764955000e+06 -1.1117099610e+04
    endloop
  endfacet
  facet normal 2.926989e-01 -9.170823e-01 -2.707165e-01
    outer loop
      vertex 4.1567521094e+05 3.7745284375e+06 -1.1307193360e+04
      vertex 4.1524037500e+05 3.7754978594e+06 -1.5061362300e+04
      vertex 4.1610907812e+05 3.7757713906e+06 -1.5048737300e+04
    endloop
  endfacet
  facet normal 1.688150e-01 -9.579490e-01 -2.320243e-01
    outer loop
      vertex 4.2058282812e+05 3.7750700000e+06 -7.3826811500e+03
      vertex 4.2114843750e+05 3.7751675781e+06 -7.3740249000e+03
      vertex 4.2093149219e+05 3.7742106094e+06 -3.5808718300e+03
    endloop
  endfacet
  facet normal 4.668856e-01 -8.482669e-01 -2.499223e-01
    outer loop
      vertex 4.1744909375e+05 3.7740556719e+06 -7.4342749000e+03
      vertex 4.1699071875e+05 3.7727303750e+06 -3.7923562000e+03
      vertex 4.1700171875e+05 3.7738405938e+06 -7.5400249000e+03
    endloop
  endfacet
  facet normal 1.307504e-01 -9.749378e-01 -1.800016e-01
    outer loop
      vertex 4.2718629688e+05 3.7759279688e+06 -7.2807436500e+03
      vertex 4.2660289062e+05 3.7758517812e+06 -7.2918686500e+03
      vertex 4.2679986719e+05 3.7765795156e+06 -1.1090396480e+04
    endloop
  endfacet
  facet normal -5.103993e-03 -9.820772e-01 -1.884102e-01
    outer loop
      vertex 4.2640591406e+05 3.7751240625e+06 -3.4933405800e+03
      vertex 4.2620893750e+05 3.7743963438e+06 3.0518750000e+02
      vertex 4.2614389062e+05 3.7751259219e+06 -3.4959343300e+03
    endloop
  endfacet
  facet normal 1.306931e-01 -9.732340e-01 -1.890367e-01
    outer loop
      vertex 4.2607884375e+05 3.7758555000e+06 -7.2970561500e+03
      vertex 4.2561096875e+05 3.7757944062e+06 -7.3059936500e+03
      vertex 4.2577985938e+05 3.7765545312e+06 -1.1102646480e+04
    endloop
  endfacet
  facet normal 1.306888e-01 -9.732346e-01 -1.890365e-01
    outer loop
      vertex 4.2601380469e+05 3.7765850781e+06 -1.1098177730e+04
      vertex 4.2607884375e+05 3.7758555000e+06 -7.2970561500e+03
      vertex 4.2577985938e+05 3.7765545312e+06 -1.1102646480e+04
    endloop
  endfacet
  facet normal 1.304981e-01 -9.679719e-01 -2.144777e-01
    outer loop
      vertex 4.2310892969e+05 3.7747338906e+06 -3.5410593300e+03
      vertex 4.2310547656e+05 3.7738923438e+06 2.5487500000e+02
      vertex 4.2281722656e+05 3.7746957969e+06 -3.5466218300e+03
    endloop
  endfacet
  facet normal -6.628865e-02 -9.820856e-01 -1.763909e-01
    outer loop
      vertex 4.2709157031e+05 3.7766176094e+06 -1.1084833980e+04
      vertex 4.2805965625e+05 3.7765504219e+06 -1.1074568360e+04
      vertex 4.2718629688e+05 3.7759279688e+06 -7.2807436500e+03
    endloop
  endfacet
  facet normal 3.133642e-02 -9.847719e-01 -1.710040e-01
    outer loop
      vertex 4.2854331250e+05 3.7759044375e+06 -7.2658686500e+03
      vertex 4.2867114844e+05 3.7752478281e+06 -3.4611843300e+03
      vertex 4.2783168750e+05 3.7758831875e+06 -7.2738999000e+03
    endloop
  endfacet
  facet normal 3.796704e-01 -8.833150e-01 -2.749637e-01
    outer loop
      vertex 4.1490582812e+05 3.7741902188e+06 -1.1322537110e+04
      vertex 4.1566267188e+05 3.7733439219e+06 -7.5587749000e+03
      vertex 4.1529887500e+05 3.7731901406e+06 -7.5670874000e+03
    endloop
  endfacet
  facet normal 1.115861e-02 -9.862939e-01 -1.646203e-01
    outer loop
      vertex 4.2982987500e+05 3.7758707656e+06 -7.2528999000e+03
      vertex 4.2912676562e+05 3.7758639375e+06 -7.2596499000e+03
      vertex 4.2964220312e+05 3.7765037188e+06 -1.1057849610e+04
    endloop
  endfacet
  facet normal 3.796704e-01 -8.833148e-01 -2.749644e-01
    outer loop
      vertex 4.1529887500e+05 3.7731901406e+06 -7.5670874000e+03
      vertex 4.1566267188e+05 3.7733439219e+06 -7.5587749000e+03
      vertex 4.1587382812e+05 3.7722669531e+06 -3.8074812000e+03
    endloop
  endfacet
  facet normal 4.198979e-01 -8.661669e-01 -2.709993e-01
    outer loop
      vertex 4.1127250000e+05 3.7712543750e+06 -7.7188374000e+03
      vertex 4.1132682812e+05 3.7724695312e+06 -1.1518537110e+04
      vertex 4.1171987500e+05 3.7714694531e+06 -7.7130874000e+03
    endloop
  endfacet
  facet normal 1.695356e-01 -9.649536e-01 -2.003055e-01
    outer loop
      vertex 4.2490785156e+05 3.7757875781e+06 -7.3127436500e+03
      vertex 4.2509051562e+05 3.7750308594e+06 -3.5127155800e+03
      vertex 4.2434223438e+05 3.7756900000e+06 -7.3213999000e+03
    endloop
  endfacet
  facet normal 1.304993e-01 -9.679717e-01 -2.144776e-01
    outer loop
      vertex 4.2311928906e+05 3.7772585156e+06 -1.4928862300e+04
      vertex 4.2311583594e+05 3.7764169688e+06 -1.1132927730e+04
      vertex 4.2224073438e+05 3.7763026875e+06 -1.1149615230e+04
    endloop
  endfacet
  facet normal 1.304999e-01 -9.679725e-01 -2.144738e-01
    outer loop
      vertex 4.2311583594e+05 3.7764169688e+06 -1.1132927730e+04
      vertex 4.2311238281e+05 3.7755754375e+06 -7.3369936500e+03
      vertex 4.2252898438e+05 3.7754992500e+06 -7.3481186500e+03
    endloop
  endfacet
  facet normal 4.198977e-01 -8.661665e-01 -2.710009e-01
    outer loop
      vertex 4.0993037500e+05 3.7706091094e+06 -7.7360874000e+03
      vertex 4.0976101562e+05 3.7717167344e+06 -1.1538662110e+04
      vertex 4.1037775000e+05 3.7708241875e+06 -7.7303374000e+03
    endloop
  endfacet
  facet normal 3.819015e-01 -8.902611e-01 -2.481661e-01
    outer loop
      vertex 4.1804428125e+05 3.7764047812e+06 -1.5014987300e+04
      vertex 4.1840742188e+05 3.7755005938e+06 -1.1212505860e+04
      vertex 4.1822551562e+05 3.7754237188e+06 -1.1216662110e+04
    endloop
  endfacet
  facet normal 1.695356e-01 -9.649540e-01 -2.003034e-01
    outer loop
      vertex 4.2490785156e+05 3.7757875781e+06 -7.3127436500e+03
      vertex 4.2434223438e+05 3.7756900000e+06 -7.3213999000e+03
      vertex 4.2444238281e+05 3.7764955000e+06 -1.1117099610e+04
    endloop
  endfacet
  facet normal -5.103974e-03 -9.820772e-01 -1.884102e-01
    outer loop
      vertex 4.2607884375e+05 3.7758555000e+06 -7.2970561500e+03
      vertex 4.2660289062e+05 3.7758517812e+06 -7.2918686500e+03
      vertex 4.2640591406e+05 3.7751240625e+06 -3.4933405800e+03
    endloop
  endfacet
  facet normal 3.150070e-01 -9.218088e-01 -2.259185e-01
    outer loop
      vertex 4.2230073438e+05 3.7736949844e+06 2.4131250000e+02
      vertex 4.2128015625e+05 3.7733512188e+06 2.2093750000e+02
      vertex 4.2121429688e+05 3.7742594062e+06 -3.5765437000e+03
    endloop
  endfacet
  facet normal 3.820017e-01 -8.902183e-01 -2.481655e-01
    outer loop
      vertex 4.1913368750e+05 3.7736922500e+06 -3.6075437000e+03
      vertex 4.1949682812e+05 3.7727880625e+06 1.9493750000e+02
      vertex 4.1858799219e+05 3.7734615625e+06 -3.6200124500e+03
    endloop
  endfacet
  facet normal -5.089375e-03 -9.820774e-01 -1.884094e-01
    outer loop
      vertex 4.2594875781e+05 3.7773146562e+06 -1.4899299800e+04
      vertex 4.2699684375e+05 3.7773072344e+06 -1.4888924800e+04
      vertex 4.2679986719e+05 3.7765795156e+06 -1.1090396480e+04
    endloop
  endfacet
  facet normal 2.944647e-01 -9.238738e-01 -2.444337e-01
    outer loop
      vertex 4.1998640625e+05 3.7739467344e+06 -3.5946843300e+03
      vertex 4.1933487500e+05 3.7737415781e+06 -3.6041530800e+03
      vertex 4.1960728125e+05 3.7748318750e+06 -7.3969311500e+03
    endloop
  endfacet
  facet normal 1.307130e-01 -9.732314e-01 -1.890365e-01
    outer loop
      vertex 4.2614389062e+05 3.7751259219e+06 -3.4959343300e+03
      vertex 4.2620893750e+05 3.7743963438e+06 3.0518750000e+02
      vertex 4.2544207031e+05 3.7750342656e+06 -3.5093405800e+03
    endloop
  endfacet
  facet normal -5.103974e-03 -9.820772e-01 -1.884102e-01
    outer loop
      vertex 4.2601380469e+05 3.7765850781e+06 -1.1098177730e+04
      vertex 4.2660289062e+05 3.7758517812e+06 -7.2918686500e+03
      vertex 4.2607884375e+05 3.7758555000e+06 -7.2970561500e+03
    endloop
  endfacet
  facet normal 4.199225e-01 -8.661552e-01 -2.709987e-01
    outer loop
      vertex 4.1037775000e+05 3.7708241875e+06 -7.7303374000e+03
      vertex 4.1043207812e+05 3.7720393594e+06 -1.1530037110e+04
      vertex 4.1082512500e+05 3.7710392812e+06 -7.7245874000e+03
    endloop
  endfacet
  facet normal 4.218063e-01 -8.705890e-01 -2.532869e-01
    outer loop
      vertex 4.1833284375e+05 3.7733756250e+06 -3.6251062000e+03
      vertex 4.1766178125e+05 3.7730530000e+06 -3.6337312000e+03
      vertex 4.1744909375e+05 3.7740556719e+06 -7.4342749000e+03
    endloop
  endfacet
  facet normal 4.195474e-01 -8.652859e-01 -2.743361e-01
    outer loop
      vertex 4.1485150000e+05 3.7729750625e+06 -7.5728374000e+03
      vertex 4.1440412500e+05 3.7727599688e+06 -7.5785874000e+03
      vertex 4.1423476562e+05 3.7738675938e+06 -1.1331162110e+04
    endloop
  endfacet
  facet normal 4.218103e-01 -8.705869e-01 -2.532875e-01
    outer loop
      vertex 4.1876922656e+05 3.7724805000e+06 1.7831250000e+02
      vertex 4.1787447656e+05 3.7720503281e+06 1.6681250000e+02
      vertex 4.1766178125e+05 3.7730530000e+06 -3.6337312000e+03
    endloop
  endfacet
  facet normal 1.307130e-01 -9.732309e-01 -1.890389e-01
    outer loop
      vertex 4.2614389062e+05 3.7751259219e+06 -3.4959343300e+03
      vertex 4.2544207031e+05 3.7750342656e+06 -3.5093405800e+03
      vertex 4.2561096875e+05 3.7757944062e+06 -7.3059936500e+03
    endloop
  endfacet
  facet normal -6.627295e-02 -9.820872e-01 -1.763877e-01
    outer loop
      vertex 4.2718629688e+05 3.7759279688e+06 -7.2807436500e+03
      vertex 4.2783168750e+05 3.7758831875e+06 -7.2738999000e+03
      vertex 4.2728101562e+05 3.7752383438e+06 -3.4766530800e+03
    endloop
  endfacet
  facet normal 2.942118e-01 -9.166100e-01 -2.706759e-01
    outer loop
      vertex 4.1610907812e+05 3.7757713906e+06 -1.5048737300e+04
      vertex 4.1702370312e+05 3.7760610156e+06 -1.5035362300e+04
      vertex 4.1701271094e+05 3.7749507969e+06 -1.1287693360e+04
    endloop
  endfacet
  facet normal 4.199225e-01 -8.661552e-01 -2.709987e-01
    outer loop
      vertex 4.0993037500e+05 3.7706091094e+06 -7.7360874000e+03
      vertex 4.0908995312e+05 3.7713940938e+06 -1.1547287110e+04
      vertex 4.0976101562e+05 3.7717167344e+06 -1.1538662110e+04
    endloop
  endfacet
  facet normal 4.195309e-01 -8.652935e-01 -2.743372e-01
    outer loop
      vertex 4.1451277344e+05 3.7751902969e+06 -1.5077987300e+04
      vertex 4.1490582812e+05 3.7741902188e+06 -1.1322537110e+04
      vertex 4.1423476562e+05 3.7738675938e+06 -1.1331162110e+04
    endloop
  endfacet
  facet normal 3.134422e-01 -9.157041e-01 -2.514756e-01
    outer loop
      vertex 4.1840675000e+05 3.7744426406e+06 -7.4183374000e+03
      vertex 4.1858799219e+05 3.7734615625e+06 -3.6200124500e+03
      vertex 4.1833284375e+05 3.7733756250e+06 -3.6251062000e+03
    endloop
  endfacet
  facet normal 2.944648e-01 -9.238742e-01 -2.444317e-01
    outer loop
      vertex 4.1998640625e+05 3.7739467344e+06 -3.5946843300e+03
      vertex 4.1949682812e+05 3.7727880625e+06 1.9493750000e+02
      vertex 4.1933487500e+05 3.7737415781e+06 -3.6041530800e+03
    endloop
  endfacet
  facet normal 1.304998e-01 -9.679717e-01 -2.144775e-01
    outer loop
      vertex 4.2252898438e+05 3.7754992500e+06 -7.3481186500e+03
      vertex 4.2311238281e+05 3.7755754375e+06 -7.3369936500e+03
      vertex 4.2281722656e+05 3.7746957969e+06 -3.5466218300e+03
    endloop
  endfacet
  facet normal 4.195312e-01 -8.652940e-01 -2.743353e-01
    outer loop
      vertex 4.1423476562e+05 3.7738675938e+06 -1.1331162110e+04
      vertex 4.1490582812e+05 3.7741902188e+06 -1.1322537110e+04
      vertex 4.1485150000e+05 3.7729750625e+06 -7.5728374000e+03
    endloop
  endfacet
  facet normal 3.134647e-01 -9.156964e-01 -2.514758e-01
    outer loop
      vertex 4.1746008594e+05 3.7751658906e+06 -1.1231943360e+04
      vertex 4.1822551562e+05 3.7754237188e+06 -1.1216662110e+04
      vertex 4.1789646875e+05 3.7742707500e+06 -7.4285249000e+03
    endloop
  endfacet
  facet normal 2.927336e-01 -9.170709e-01 -2.707176e-01
    outer loop
      vertex 4.1676206250e+05 3.7726579688e+06 -3.7956999500e+03
      vertex 4.1697972656e+05 3.7716201562e+06 -4.4687500000e+01
      vertex 4.1654489062e+05 3.7725895781e+06 -3.7988562000e+03
    endloop
  endfacet
  facet normal 2.944563e-01 -9.238765e-01 -2.444335e-01
    outer loop
      vertex 4.2036553125e+05 3.7730615938e+06 2.0756250000e+02
      vertex 4.1949682812e+05 3.7727880625e+06 1.9493750000e+02
      vertex 4.1998640625e+05 3.7739467344e+06 -3.5946843300e+03
    endloop
  endfacet
  facet normal 3.820018e-01 -8.902186e-01 -2.481643e-01
    outer loop
      vertex 4.1913368750e+05 3.7736922500e+06 -3.6075437000e+03
      vertex 4.1858799219e+05 3.7734615625e+06 -3.6200124500e+03
      vertex 4.1840675000e+05 3.7744426406e+06 -7.4183374000e+03
    endloop
  endfacet
  facet normal 3.133642e-02 -9.847719e-01 -1.710041e-01
    outer loop
      vertex 4.2841546875e+05 3.7765610469e+06 -1.1070552730e+04
      vertex 4.2854331250e+05 3.7759044375e+06 -7.2658686500e+03
      vertex 4.2805965625e+05 3.7765504219e+06 -1.1074568360e+04
    endloop
  endfacet
  facet normal 3.133665e-02 -9.847719e-01 -1.710041e-01
    outer loop
      vertex 4.2867114844e+05 3.7752478281e+06 -3.4611843300e+03
      vertex 4.2760371875e+05 3.7752159531e+06 -3.4732312000e+03
      vertex 4.2783168750e+05 3.7758831875e+06 -7.2738999000e+03
    endloop
  endfacet
  facet normal 3.819735e-01 -8.902315e-01 -2.481615e-01
    outer loop
      vertex 4.1877055469e+05 3.7745964219e+06 -7.4100249000e+03
      vertex 4.1913368750e+05 3.7736922500e+06 -3.6075437000e+03
      vertex 4.1840675000e+05 3.7744426406e+06 -7.4183374000e+03
    endloop
  endfacet
  facet normal -6.627137e-02 -9.820873e-01 -1.763876e-01
    outer loop
      vertex 4.2760371875e+05 3.7752159531e+06 -3.4732312000e+03
      vertex 4.2737574219e+05 3.7745487188e+06 3.2743750000e+02
      vertex 4.2728101562e+05 3.7752383438e+06 -3.4766530800e+03
    endloop
  endfacet
  facet normal 4.669085e-01 -8.482560e-01 -2.499165e-01
    outer loop
      vertex 4.1723639844e+05 3.7750583438e+06 -1.1234818360e+04
      vertex 4.1700171875e+05 3.7738405938e+06 -7.5400249000e+03
      vertex 4.1701271094e+05 3.7749507969e+06 -1.1287693360e+04
    endloop
  endfacet
  facet normal 4.199225e-01 -8.661552e-01 -2.709987e-01
    outer loop
      vertex 4.1082512500e+05 3.7710392812e+06 -7.7245874000e+03
      vertex 4.1127250000e+05 3.7712543750e+06 -7.7188374000e+03
      vertex 4.1121817188e+05 3.7700392031e+06 -3.9191374500e+03
    endloop
  endfacet
  facet normal 2.942121e-01 -9.166110e-01 -2.706724e-01
    outer loop
      vertex 4.1632674219e+05 3.7747335781e+06 -1.1297724610e+04
      vertex 4.1700171875e+05 3.7738405938e+06 -7.5400249000e+03
      vertex 4.1654440625e+05 3.7736957812e+06 -7.5467124000e+03
    endloop
  endfacet
  facet normal 1.307504e-01 -9.749385e-01 -1.799977e-01
    outer loop
      vertex 4.2699684375e+05 3.7773072344e+06 -1.4888924800e+04
      vertex 4.2709157031e+05 3.7766176094e+06 -1.1084833980e+04
      vertex 4.2679986719e+05 3.7765795156e+06 -1.1090396480e+04
    endloop
  endfacet
  facet normal 2.964718e-01 -9.253319e-01 -2.363587e-01
    outer loop
      vertex 4.2128015625e+05 3.7733512188e+06 2.2093750000e+02
      vertex 4.2036553125e+05 3.7730615938e+06 2.0756250000e+02
      vertex 4.2093149219e+05 3.7742106094e+06 -3.5808718300e+03
    endloop
  endfacet
  facet normal 3.134593e-01 -9.156992e-01 -2.514720e-01
    outer loop
      vertex 4.1746008594e+05 3.7751658906e+06 -1.1231943360e+04
      vertex 4.1702370312e+05 3.7760610156e+06 -1.5035362300e+04
      vertex 4.1804428125e+05 3.7764047812e+06 -1.5014987300e+04
    endloop
  endfacet
  facet normal 4.669088e-01 -8.482549e-01 -2.499197e-01
    outer loop
      vertex 4.1702370312e+05 3.7760610156e+06 -1.5035362300e+04
      vertex 4.1723639844e+05 3.7750583438e+06 -1.1234818360e+04
      vertex 4.1701271094e+05 3.7749507969e+06 -1.1287693360e+04
    endloop
  endfacet
  facet normal 1.139519e-02 -9.805747e-01 -1.958146e-01
    outer loop
      vertex 4.2472518750e+05 3.7765442969e+06 -1.1112771480e+04
      vertex 4.2577985938e+05 3.7765545312e+06 -1.1102646480e+04
      vertex 4.2490785156e+05 3.7757875781e+06 -7.3127436500e+03
    endloop
  endfacet
  facet normal 1.754274e-01 -9.548481e-01 -2.397715e-01
    outer loop
      vertex 4.2000550000e+05 3.7758569688e+06 -1.1187833980e+04
      vertex 4.2012551562e+05 3.7749251875e+06 -7.3893686500e+03
      vertex 4.1960728125e+05 3.7748318750e+06 -7.3969311500e+03
    endloop
  endfacet
  facet normal 3.134760e-01 -9.156930e-01 -2.514738e-01
    outer loop
      vertex 4.1822551562e+05 3.7754237188e+06 -1.1216662110e+04
      vertex 4.1840675000e+05 3.7744426406e+06 -7.4183374000e+03
      vertex 4.1789646875e+05 3.7742707500e+06 -7.4285249000e+03
    endloop
  endfacet
  facet normal 4.195313e-01 -8.652943e-01 -2.743342e-01
    outer loop
      vertex 4.1479717188e+05 3.7717598906e+06 -3.8231374500e+03
      vertex 4.1412610938e+05 3.7714372656e+06 -3.8317624500e+03
      vertex 4.1395675000e+05 3.7725448750e+06 -7.5843374000e+03
    endloop
  endfacet
  facet normal 2.927243e-01 -9.170748e-01 -2.707144e-01
    outer loop
      vertex 4.1632674219e+05 3.7747335781e+06 -1.1297724610e+04
      vertex 4.1654440625e+05 3.7736957812e+06 -7.5467124000e+03
      vertex 4.1611004688e+05 3.7735590000e+06 -7.5530249000e+03
    endloop
  endfacet
  facet normal 4.197875e-01 -8.658422e-01 -2.722054e-01
    outer loop
      vertex 4.1524037500e+05 3.7754978594e+06 -1.5061362300e+04
      vertex 4.1567521094e+05 3.7745284375e+06 -1.1307193360e+04
      vertex 4.1545152344e+05 3.7744208906e+06 -1.1310068360e+04
    endloop
  endfacet
  facet normal 4.199225e-01 -8.661552e-01 -2.709987e-01
    outer loop
      vertex 4.1216725000e+05 3.7716845312e+06 -7.7073374000e+03
      vertex 4.1222157812e+05 3.7728997031e+06 -1.1507037110e+04
      vertex 4.1261462500e+05 3.7718996250e+06 -7.7015874000e+03
    endloop
  endfacet
  facet normal 1.761544e-01 -9.610626e-01 -2.129043e-01
    outer loop
      vertex 4.2311928906e+05 3.7772585156e+06 -1.4928862300e+04
      vertex 4.2337495312e+05 3.7764636250e+06 -1.1129146480e+04
      vertex 4.2311583594e+05 3.7764169688e+06 -1.1132927730e+04
    endloop
  endfacet
  facet normal 3.149931e-01 -9.218142e-01 -2.259158e-01
    outer loop
      vertex 4.2197973438e+05 3.7745172188e+06 -3.5612624500e+03
      vertex 4.2121429688e+05 3.7742594062e+06 -3.5765437000e+03
      vertex 4.2114843750e+05 3.7751675781e+06 -7.3740249000e+03
    endloop
  endfacet
  facet normal 1.695450e-01 -9.649516e-01 -2.003070e-01
    outer loop
      vertex 4.2509051562e+05 3.7750308594e+06 -3.5127155800e+03
      vertex 4.2424209375e+05 3.7748844844e+06 -3.5256999500e+03
      vertex 4.2434223438e+05 3.7756900000e+06 -7.3213999000e+03
    endloop
  endfacet
  facet normal 4.199064e-01 -8.661639e-01 -2.709958e-01
    outer loop
      vertex 4.0948300000e+05 3.7703940312e+06 -7.7418374000e+03
      vertex 4.0841889062e+05 3.7710714688e+06 -1.1555912110e+04
      vertex 4.0908995312e+05 3.7713940938e+06 -1.1547287110e+04
    endloop
  endfacet
  facet normal 4.197627e-01 -8.658536e-01 -2.722073e-01
    outer loop
      vertex 4.1611004688e+05 3.7735590000e+06 -7.5530249000e+03
      vertex 4.1566267188e+05 3.7733439219e+06 -7.5587749000e+03
      vertex 4.1545152344e+05 3.7744208906e+06 -1.1310068360e+04
    endloop
  endfacet
  facet normal 4.199060e-01 -8.661628e-01 -2.709999e-01
    outer loop
      vertex 4.1155051562e+05 3.7725770781e+06 -1.1515662110e+04
      vertex 4.1182852344e+05 3.7738997812e+06 -1.5312487300e+04
      vertex 4.1222157812e+05 3.7728997031e+06 -1.1507037110e+04
    endloop
  endfacet
  facet normal 2.942121e-01 -9.166110e-01 -2.706724e-01
    outer loop
      vertex 4.1632674219e+05 3.7747335781e+06 -1.1297724610e+04
      vertex 4.1701271094e+05 3.7749507969e+06 -1.1287693360e+04
      vertex 4.1700171875e+05 3.7738405938e+06 -7.5400249000e+03
    endloop
  endfacet
  facet normal 4.195228e-01 -8.652976e-01 -2.743366e-01
    outer loop
      vertex 4.1490582812e+05 3.7741902188e+06 -1.1322537110e+04
      vertex 4.1529887500e+05 3.7731901406e+06 -7.5670874000e+03
      vertex 4.1485150000e+05 3.7729750625e+06 -7.5728374000e+03
    endloop
  endfacet
  facet normal 4.199100e-01 -8.661607e-01 -2.710006e-01
    outer loop
      vertex 4.1289264062e+05 3.7732223281e+06 -1.1498412110e+04
      vertex 4.1182852344e+05 3.7738997812e+06 -1.5312487300e+04
      vertex 4.1272327344e+05 3.7743299531e+06 -1.5300987300e+04
    endloop
  endfacet
  facet normal 1.695497e-01 -9.649509e-01 -2.003064e-01
    outer loop
      vertex 4.2527317188e+05 3.7742741406e+06 2.8731250000e+02
      vertex 4.2414194531e+05 3.7740789688e+06 2.7000000000e+02
      vertex 4.2424209375e+05 3.7748844844e+06 -3.5256999500e+03
    endloop
  endfacet
  facet normal 4.195351e-01 -8.652918e-01 -2.743363e-01
    outer loop
      vertex 4.1608497656e+05 3.7711899844e+06 -5.6187500000e+01
      vertex 4.1519022656e+05 3.7707598125e+06 -6.7687500000e+01
      vertex 4.1546823438e+05 3.7720825156e+06 -3.8145124500e+03
    endloop
  endfacet
  facet normal 1.304498e-01 -9.667272e-01 -2.200484e-01
    outer loop
      vertex 4.2133771875e+05 3.7761617031e+06 -1.1166412110e+04
      vertex 4.2101671875e+05 3.7769839375e+06 -1.4968987300e+04
      vertex 4.2195248438e+05 3.7771061406e+06 -1.4951112300e+04
    endloop
  endfacet
  facet normal 4.199224e-01 -8.661550e-01 -2.709995e-01
    outer loop
      vertex 4.1099448438e+05 3.7699316562e+06 -3.9220124500e+03
      vertex 4.1121817188e+05 3.7700392031e+06 -3.9191374500e+03
      vertex 4.1161122656e+05 3.7690391250e+06 -1.1368750000e+02
    endloop
  endfacet
  facet normal 3.153414e-02 -9.778979e-01 -2.066915e-01
    outer loop
      vertex 4.2337495312e+05 3.7764636250e+06 -1.1129146480e+04
      vertex 4.2444238281e+05 3.7764955000e+06 -1.1117099610e+04
      vertex 4.2363061719e+05 3.7756687500e+06 -7.3294311500e+03
    endloop
  endfacet
  facet normal 4.199059e-01 -8.661625e-01 -2.710010e-01
    outer loop
      vertex 4.0841889062e+05 3.7710714688e+06 -1.1555912110e+04
      vertex 4.0824952344e+05 3.7721790938e+06 -1.5358487300e+04
      vertex 4.0908995312e+05 3.7713940938e+06 -1.1547287110e+04
    endloop
  endfacet
  facet normal -6.673236e-02 -9.854345e-01 -1.564151e-01
    outer loop
      vertex 4.3177170312e+05 3.7751650625e+06 -3.4299030800e+03
      vertex 4.3125329688e+05 3.7745974375e+06 3.6737500000e+02
      vertex 4.3080360938e+05 3.7752322500e+06 -3.4401687000e+03
    endloop
  endfacet
  facet normal 4.199225e-01 -8.661552e-01 -2.709987e-01
    outer loop
      vertex 4.1065576562e+05 3.7721469062e+06 -1.1527162110e+04
      vertex 4.1127250000e+05 3.7712543750e+06 -7.7188374000e+03
      vertex 4.1082512500e+05 3.7710392812e+06 -7.7245874000e+03
    endloop
  endfacet
  facet normal 3.134761e-01 -9.156935e-01 -2.514720e-01
    outer loop
      vertex 4.1789646875e+05 3.7742707500e+06 -7.4285249000e+03
      vertex 4.1840675000e+05 3.7744426406e+06 -7.4183374000e+03
      vertex 4.1833284375e+05 3.7733756250e+06 -3.6251062000e+03
    endloop
  endfacet
  facet normal 4.198736e-01 -8.661793e-01 -2.709973e-01
    outer loop
      vertex 4.1077079688e+05 3.7698241250e+06 -3.9248874500e+03
      vertex 4.1099448438e+05 3.7699316562e+06 -3.9220124500e+03
      vertex 4.1161122656e+05 3.7690391250e+06 -1.1368750000e+02
    endloop
  endfacet
  facet normal -6.628871e-02 -9.820860e-01 -1.763884e-01
    outer loop
      vertex 4.2828763281e+05 3.7772176562e+06 -1.4875237300e+04
      vertex 4.2805965625e+05 3.7765504219e+06 -1.1074568360e+04
      vertex 4.2709157031e+05 3.7766176094e+06 -1.1084833980e+04
    endloop
  endfacet
  facet normal -5.349005e-03 -9.864731e-01 -1.638359e-01
    outer loop
      vertex 4.3035392188e+05 3.7758670625e+06 -7.2477124000e+03
      vertex 4.3001754688e+05 3.7752378125e+06 -3.4479499500e+03
      vertex 4.2982987500e+05 3.7758707656e+06 -7.2528999000e+03
    endloop
  endfacet
  facet normal 1.307069e-01 -9.732324e-01 -1.890355e-01
    outer loop
      vertex 4.2620893750e+05 3.7743963438e+06 3.0518750000e+02
      vertex 4.2527317188e+05 3.7742741406e+06 2.8731250000e+02
      vertex 4.2544207031e+05 3.7750342656e+06 -3.5093405800e+03
    endloop
  endfacet
  facet normal -6.673435e-02 -9.854346e-01 -1.564134e-01
    outer loop
      vertex 4.2945453906e+05 3.7771366719e+06 -1.4862799800e+04
      vertex 4.3051865625e+05 3.7764592188e+06 -1.1048724610e+04
      vertex 4.3022692188e+05 3.7764794688e+06 -1.1051833980e+04
    endloop
  endfacet
  facet normal -6.649208e-02 -9.836240e-01 -1.675189e-01
    outer loop
      vertex 4.2896287500e+05 3.7752275781e+06 -3.4580749500e+03
      vertex 4.2879898438e+05 3.7745912188e+06 3.4350000000e+02
      vertex 4.2867114844e+05 3.7752478281e+06 -3.4611843300e+03
    endloop
  endfacet
  facet normal 4.195474e-01 -8.652859e-01 -2.743361e-01
    outer loop
      vertex 4.1412610938e+05 3.7714372656e+06 -3.8317624500e+03
      vertex 4.1345504688e+05 3.7711146250e+06 -3.8403874500e+03
      vertex 4.1350937500e+05 3.7723297969e+06 -7.5900874000e+03
    endloop
  endfacet
  facet normal -6.670978e-02 -9.854358e-01 -1.564166e-01
    outer loop
      vertex 4.3158276562e+05 3.7757817812e+06 -7.2346499000e+03
      vertex 4.3099931250e+05 3.7758222656e+06 -7.2408686500e+03
      vertex 4.3051865625e+05 3.7764592188e+06 -1.1048724610e+04
    endloop
  endfacet
  facet normal -6.647460e-02 -9.836251e-01 -1.675196e-01
    outer loop
      vertex 4.2841546875e+05 3.7765610469e+06 -1.1070552730e+04
      vertex 4.2929064844e+05 3.7765003125e+06 -1.1061224610e+04
      vertex 4.2854331250e+05 3.7759044375e+06 -7.2658686500e+03
    endloop
  endfacet
  facet normal 4.199100e-01 -8.661607e-01 -2.710006e-01
    outer loop
      vertex 4.0841889062e+05 3.7710714688e+06 -1.1555912110e+04
      vertex 4.0735477344e+05 3.7717489219e+06 -1.5369987300e+04
      vertex 4.0824952344e+05 3.7721790938e+06 -1.5358487300e+04
    endloop
  endfacet
  facet normal 4.199224e-01 -8.661550e-01 -2.709995e-01
    outer loop
      vertex 4.0908995312e+05 3.7713940938e+06 -1.1547287110e+04
      vertex 4.0914427344e+05 3.7726092656e+06 -1.5346987300e+04
      vertex 4.0976101562e+05 3.7717167344e+06 -1.1538662110e+04
    endloop
  endfacet
  facet normal 4.218224e-01 -8.705803e-01 -2.532900e-01
    outer loop
      vertex 4.1746008594e+05 3.7751658906e+06 -1.1231943360e+04
      vertex 4.1789646875e+05 3.7742707500e+06 -7.4285249000e+03
      vertex 4.1723639844e+05 3.7750583438e+06 -1.1234818360e+04
    endloop
  endfacet
  facet normal 4.680671e-01 -8.426183e-01 -2.662846e-01
    outer loop
      vertex 4.1361802344e+05 3.7747601250e+06 -1.5089487300e+04
      vertex 4.1356370312e+05 3.7735449688e+06 -1.1339787110e+04
      vertex 4.1289264062e+05 3.7732223281e+06 -1.1498412110e+04
    endloop
  endfacet
  facet normal 4.199225e-01 -8.661552e-01 -2.709987e-01
    outer loop
      vertex 4.1261462500e+05 3.7718996250e+06 -7.7015874000e+03
      vertex 4.1222157812e+05 3.7728997031e+06 -1.1507037110e+04
      vertex 4.1306200000e+05 3.7721147188e+06 -7.6958374000e+03
    endloop
  endfacet
  facet normal 1.304981e-01 -9.679719e-01 -2.144777e-01
    outer loop
      vertex 4.2311238281e+05 3.7755754375e+06 -7.3369936500e+03
      vertex 4.2310892969e+05 3.7747338906e+06 -3.5410593300e+03
      vertex 4.2281722656e+05 3.7746957969e+06 -3.5466218300e+03
    endloop
  endfacet
  facet normal 2.964718e-01 -9.253319e-01 -2.363587e-01
    outer loop
      vertex 4.2093149219e+05 3.7742106094e+06 -3.5808718300e+03
      vertex 4.2036553125e+05 3.7730615938e+06 2.0756250000e+02
      vertex 4.2024552344e+05 3.7739933906e+06 -3.5909030800e+03
    endloop
  endfacet
  facet normal 4.199224e-01 -8.661552e-01 -2.709987e-01
    outer loop
      vertex 4.1300767188e+05 3.7708995469e+06 -3.8961374500e+03
      vertex 4.1261462500e+05 3.7718996250e+06 -7.7015874000e+03
      vertex 4.1323135938e+05 3.7710070938e+06 -3.8932624500e+03
    endloop
  endfacet
  facet normal 2.927240e-01 -9.170739e-01 -2.707179e-01
    outer loop
      vertex 4.1611004688e+05 3.7735590000e+06 -7.5530249000e+03
      vertex 4.1654440625e+05 3.7736957812e+06 -7.5467124000e+03
      vertex 4.1654489062e+05 3.7725895781e+06 -3.7988562000e+03
    endloop
  endfacet
  facet normal 4.195474e-01 -8.652859e-01 -2.743361e-01
    outer loop
      vertex 4.1423476562e+05 3.7738675938e+06 -1.1331162110e+04
      vertex 4.1440412500e+05 3.7727599688e+06 -7.5785874000e+03
      vertex 4.1401107812e+05 3.7737600469e+06 -1.1334037110e+04
    endloop
  endfacet
  facet normal -6.647896e-02 -9.836248e-01 -1.675195e-01
    outer loop
      vertex 4.2841546875e+05 3.7765610469e+06 -1.1070552730e+04
      vertex 4.2828763281e+05 3.7772176562e+06 -1.4875237300e+04
      vertex 4.2945453906e+05 3.7771366719e+06 -1.4862799800e+04
    endloop
  endfacet
  facet normal 4.199060e-01 -8.661628e-01 -2.709999e-01
    outer loop
      vertex 4.1065576562e+05 3.7721469062e+06 -1.1527162110e+04
      vertex 4.1093377344e+05 3.7734696094e+06 -1.5323987300e+04
      vertex 4.1132682812e+05 3.7724695312e+06 -1.1518537110e+04
    endloop
  endfacet
  facet normal 4.199224e-01 -8.661552e-01 -2.709987e-01
    outer loop
      vertex 4.1043207812e+05 3.7720393594e+06 -1.1530037110e+04
      vertex 4.1065576562e+05 3.7721469062e+06 -1.1527162110e+04
      vertex 4.1082512500e+05 3.7710392812e+06 -7.7245874000e+03
    endloop
  endfacet
  facet normal 4.195473e-01 -8.652857e-01 -2.743368e-01
    outer loop
      vertex 4.1361802344e+05 3.7747601250e+06 -1.5089487300e+04
      vertex 4.1401107812e+05 3.7737600469e+06 -1.1334037110e+04
      vertex 4.1378739062e+05 3.7736525000e+06 -1.1336912110e+04
    endloop
  endfacet
  facet normal -5.378423e-03 -9.864732e-01 -1.638345e-01
    outer loop
      vertex 4.2990422656e+05 3.7765018594e+06 -1.1055255860e+04
      vertex 4.2982987500e+05 3.7758707656e+06 -7.2528999000e+03
      vertex 4.2964220312e+05 3.7765037188e+06 -1.1057849610e+04
    endloop
  endfacet
  facet normal 1.138072e-02 -9.805750e-01 -1.958139e-01
    outer loop
      vertex 4.2544207031e+05 3.7750342656e+06 -3.5093405800e+03
      vertex 4.2527317188e+05 3.7742741406e+06 2.8731250000e+02
      vertex 4.2509051562e+05 3.7750308594e+06 -3.5127155800e+03
    endloop
  endfacet
  facet normal 4.199060e-01 -8.661628e-01 -2.709999e-01
    outer loop
      vertex 4.1211292188e+05 3.7704693750e+06 -3.9076374500e+03
      vertex 4.1278398438e+05 3.7707920000e+06 -3.8990124500e+03
      vertex 4.1250597656e+05 3.7694692969e+06 -1.0218750000e+02
    endloop
  endfacet
  facet normal 4.199224e-01 -8.661552e-01 -2.709987e-01
    outer loop
      vertex 4.1132682812e+05 3.7724695312e+06 -1.1518537110e+04
      vertex 4.1155051562e+05 3.7725770781e+06 -1.1515662110e+04
      vertex 4.1171987500e+05 3.7714694531e+06 -7.7130874000e+03
    endloop
  endfacet
  facet normal 2.359362e-01 -9.469918e-01 -2.180383e-01
    outer loop
      vertex 4.2195248438e+05 3.7771061406e+06 -1.4951112300e+04
      vertex 4.2224073438e+05 3.7763026875e+06 -1.1149615230e+04
      vertex 4.2203954688e+05 3.7762533438e+06 -1.1153005860e+04
    endloop
  endfacet
  facet normal 1.307516e-01 -9.749384e-01 -1.799977e-01
    outer loop
      vertex 4.2728101562e+05 3.7752383438e+06 -3.4766530800e+03
      vertex 4.2737574219e+05 3.7745487188e+06 3.2743750000e+02
      vertex 4.2640591406e+05 3.7751240625e+06 -3.4933405800e+03
    endloop
  endfacet
  facet normal 4.218063e-01 -8.705891e-01 -2.532866e-01
    outer loop
      vertex 4.1833284375e+05 3.7733756250e+06 -3.6251062000e+03
      vertex 4.1876922656e+05 3.7724805000e+06 1.7831250000e+02
      vertex 4.1766178125e+05 3.7730530000e+06 -3.6337312000e+03
    endloop
  endfacet
  facet normal 3.819770e-01 -8.902300e-01 -2.481617e-01
    outer loop
      vertex 4.1949682812e+05 3.7727880625e+06 1.9493750000e+02
      vertex 4.1876922656e+05 3.7724805000e+06 1.7831250000e+02
      vertex 4.1858799219e+05 3.7734615625e+06 -3.6200124500e+03
    endloop
  endfacet
  facet normal 4.680443e-01 -8.426290e-01 -2.662909e-01
    outer loop
      vertex 4.1356370312e+05 3.7735449688e+06 -1.1339787110e+04
      vertex 4.1350937500e+05 3.7723297969e+06 -7.5900874000e+03
      vertex 4.1306200000e+05 3.7721147188e+06 -7.6958374000e+03
    endloop
  endfacet
  facet normal -5.378423e-03 -9.864732e-01 -1.638345e-01
    outer loop
      vertex 4.2945453906e+05 3.7771366719e+06 -1.4862799800e+04
      vertex 4.2990422656e+05 3.7765018594e+06 -1.1055255860e+04
      vertex 4.2964220312e+05 3.7765037188e+06 -1.1057849610e+04
    endloop
  endfacet
  facet normal 1.304332e-01 -9.667288e-01 -2.200515e-01
    outer loop
      vertex 4.2195248438e+05 3.7771061406e+06 -1.4951112300e+04
      vertex 4.2203954688e+05 3.7762533438e+06 -1.1153005860e+04
      vertex 4.2133771875e+05 3.7761617031e+06 -1.1166412110e+04
    endloop
  endfacet
  facet normal 1.754273e-01 -9.548473e-01 -2.397748e-01
    outer loop
      vertex 4.2024552344e+05 3.7739933906e+06 -3.5909030800e+03
      vertex 4.2036553125e+05 3.7730615938e+06 2.0756250000e+02
      vertex 4.1998640625e+05 3.7739467344e+06 -3.5946843300e+03
    endloop
  endfacet
  facet normal 3.796670e-01 -8.833164e-01 -2.749639e-01
    outer loop
      vertex 4.1451277344e+05 3.7751902969e+06 -1.5077987300e+04
      vertex 4.1524037500e+05 3.7754978594e+06 -1.5061362300e+04
      vertex 4.1545152344e+05 3.7744208906e+06 -1.1310068360e+04
    endloop
  endfacet
  facet normal 2.359363e-01 -9.469926e-01 -2.180347e-01
    outer loop
      vertex 4.2224073438e+05 3.7763026875e+06 -1.1149615230e+04
      vertex 4.2212660938e+05 3.7754005625e+06 -7.3548999000e+03
      vertex 4.2203954688e+05 3.7762533438e+06 -1.1153005860e+04
    endloop
  endfacet
  facet normal 1.688221e-01 -9.579485e-01 -2.320212e-01
    outer loop
      vertex 4.2023415625e+05 3.7759293750e+06 -1.1184490230e+04
      vertex 4.2108257812e+05 3.7760757500e+06 -1.1171505860e+04
      vertex 4.2058282812e+05 3.7750700000e+06 -7.3826811500e+03
    endloop
  endfacet
  facet normal -5.358863e-03 -9.864729e-01 -1.638367e-01
    outer loop
      vertex 4.3080360938e+05 3.7752322500e+06 -3.4401687000e+03
      vertex 4.3001754688e+05 3.7752378125e+06 -3.4479499500e+03
      vertex 4.3035392188e+05 3.7758670625e+06 -7.2477124000e+03
    endloop
  endfacet
  facet normal 1.140241e-02 -9.805750e-01 -1.958129e-01
    outer loop
      vertex 4.2577985938e+05 3.7765545312e+06 -1.1102646480e+04
      vertex 4.2561096875e+05 3.7757944062e+06 -7.3059936500e+03
      vertex 4.2490785156e+05 3.7757875781e+06 -7.3127436500e+03
    endloop
  endfacet
  facet normal 4.195309e-01 -8.652935e-01 -2.743372e-01
    outer loop
      vertex 4.1479717188e+05 3.7717598906e+06 -3.8231374500e+03
      vertex 4.1519022656e+05 3.7707598125e+06 -6.7687500000e+01
      vertex 4.1412610938e+05 3.7714372656e+06 -3.8317624500e+03
    endloop
  endfacet
  facet normal 2.347746e-01 -9.403971e-01 -2.460371e-01
    outer loop
      vertex 4.1840742188e+05 3.7755005938e+06 -1.1212505860e+04
      vertex 4.1804428125e+05 3.7764047812e+06 -1.5014987300e+04
      vertex 4.1884902344e+05 3.7766021406e+06 -1.5001424800e+04
    endloop
  endfacet
  facet normal 2.964718e-01 -9.253319e-01 -2.363587e-01
    outer loop
      vertex 4.2058282812e+05 3.7750700000e+06 -7.3826811500e+03
      vertex 4.2024552344e+05 3.7739933906e+06 -3.5909030800e+03
      vertex 4.2012551562e+05 3.7749251875e+06 -7.3893686500e+03
    endloop
  endfacet
  facet normal 1.695450e-01 -9.649520e-01 -2.003053e-01
    outer loop
      vertex 4.2509051562e+05 3.7750308594e+06 -3.5127155800e+03
      vertex 4.2527317188e+05 3.7742741406e+06 2.8731250000e+02
      vertex 4.2424209375e+05 3.7748844844e+06 -3.5256999500e+03
    endloop
  endfacet
  facet normal -6.649200e-02 -9.836234e-01 -1.675227e-01
    outer loop
      vertex 4.2929064844e+05 3.7765003125e+06 -1.1061224610e+04
      vertex 4.2912676562e+05 3.7758639375e+06 -7.2596499000e+03
      vertex 4.2854331250e+05 3.7759044375e+06 -7.2658686500e+03
    endloop
  endfacet
  facet normal 4.199062e-01 -8.661633e-01 -2.709980e-01
    outer loop
      vertex 4.1216725000e+05 3.7716845312e+06 -7.7073374000e+03
      vertex 4.1278398438e+05 3.7707920000e+06 -3.8990124500e+03
      vertex 4.1211292188e+05 3.7704693750e+06 -3.9076374500e+03
    endloop
  endfacet
  facet normal 3.153416e-02 -9.778971e-01 -2.066953e-01
    outer loop
      vertex 4.2454253125e+05 3.7773010156e+06 -1.4912799800e+04
      vertex 4.2444238281e+05 3.7764955000e+06 -1.1117099610e+04
      vertex 4.2337495312e+05 3.7764636250e+06 -1.1129146480e+04
    endloop
  endfacet
  facet normal 2.359159e-01 -9.469967e-01 -2.180390e-01
    outer loop
      vertex 4.2281722656e+05 3.7746957969e+06 -3.5466218300e+03
      vertex 4.2230073438e+05 3.7736949844e+06 2.4131250000e+02
      vertex 4.2221367188e+05 3.7745477812e+06 -3.5567937000e+03
    endloop
  endfacet
  facet normal 1.115123e-02 -9.862940e-01 -1.646199e-01
    outer loop
      vertex 4.3001754688e+05 3.7752378125e+06 -3.4479499500e+03
      vertex 4.2896287500e+05 3.7752275781e+06 -3.4580749500e+03
      vertex 4.2982987500e+05 3.7758707656e+06 -7.2528999000e+03
    endloop
  endfacet
  facet normal 4.194979e-01 -8.653085e-01 -2.743405e-01
    outer loop
      vertex 4.1378739062e+05 3.7736525000e+06 -1.1336912110e+04
      vertex 4.1395675000e+05 3.7725448750e+06 -7.5843374000e+03
      vertex 4.1356370312e+05 3.7735449688e+06 -1.1339787110e+04
    endloop
  endfacet
  facet normal 4.198977e-01 -8.661665e-01 -2.710009e-01
    outer loop
      vertex 4.1188923438e+05 3.7703618281e+06 -3.9105124500e+03
      vertex 4.1127250000e+05 3.7712543750e+06 -7.7188374000e+03
      vertex 4.1171987500e+05 3.7714694531e+06 -7.7130874000e+03
    endloop
  endfacet
  facet normal 1.306931e-01 -9.732340e-01 -1.890367e-01
    outer loop
      vertex 4.2607884375e+05 3.7758555000e+06 -7.2970561500e+03
      vertex 4.2614389062e+05 3.7751259219e+06 -3.4959343300e+03
      vertex 4.2561096875e+05 3.7757944062e+06 -7.3059936500e+03
    endloop
  endfacet
  facet normal 2.942118e-01 -9.166102e-01 -2.706753e-01
    outer loop
      vertex 4.1654440625e+05 3.7736957812e+06 -7.5467124000e+03
      vertex 4.1699071875e+05 3.7727303750e+06 -3.7923562000e+03
      vertex 4.1676206250e+05 3.7726579688e+06 -3.7956999500e+03
    endloop
  endfacet
  facet normal 2.359363e-01 -9.469926e-01 -2.180346e-01
    outer loop
      vertex 4.2252898438e+05 3.7754992500e+06 -7.3481186500e+03
      vertex 4.2221367188e+05 3.7745477812e+06 -3.5567937000e+03
      vertex 4.2212660938e+05 3.7754005625e+06 -7.3548999000e+03
    endloop
  endfacet
  facet normal 2.347927e-01 -9.403934e-01 -2.460336e-01
    outer loop
      vertex 4.1840742188e+05 3.7755005938e+06 -1.1212505860e+04
      vertex 4.1901097656e+05 3.7756486250e+06 -1.1202333980e+04
      vertex 4.1877055469e+05 3.7745964219e+06 -7.4100249000e+03
    endloop
  endfacet
  facet normal 4.668934e-01 -8.482627e-01 -2.499220e-01
    outer loop
      vertex 4.1766178125e+05 3.7730530000e+06 -3.6337312000e+03
      vertex 4.1697972656e+05 3.7716201562e+06 -4.4687500000e+01
      vertex 4.1699071875e+05 3.7727303750e+06 -3.7923562000e+03
    endloop
  endfacet
  facet normal 3.133642e-02 -9.847719e-01 -1.710040e-01
    outer loop
      vertex 4.2828763281e+05 3.7772176562e+06 -1.4875237300e+04
      vertex 4.2841546875e+05 3.7765610469e+06 -1.1070552730e+04
      vertex 4.2805965625e+05 3.7765504219e+06 -1.1074568360e+04
    endloop
  endfacet
  facet normal 1.304993e-01 -9.679726e-01 -2.144739e-01
    outer loop
      vertex 4.2224073438e+05 3.7763026875e+06 -1.1149615230e+04
      vertex 4.2311583594e+05 3.7764169688e+06 -1.1132927730e+04
      vertex 4.2252898438e+05 3.7754992500e+06 -7.3481186500e+03
    endloop
  endfacet
  facet normal 3.133659e-02 -9.847719e-01 -1.710040e-01
    outer loop
      vertex 4.2879898438e+05 3.7745912188e+06 3.4350000000e+02
      vertex 4.2737574219e+05 3.7745487188e+06 3.2743750000e+02
      vertex 4.2760371875e+05 3.7752159531e+06 -3.4732312000e+03
    endloop
  endfacet
  facet normal 1.307504e-01 -9.749378e-01 -1.800016e-01
    outer loop
      vertex 4.2709157031e+05 3.7766176094e+06 -1.1084833980e+04
      vertex 4.2718629688e+05 3.7759279688e+06 -7.2807436500e+03
      vertex 4.2679986719e+05 3.7765795156e+06 -1.1090396480e+04
    endloop
  endfacet
  facet normal 1.761545e-01 -9.610634e-01 -2.129006e-01
    outer loop
      vertex 4.2337495312e+05 3.7764636250e+06 -1.1129146480e+04
      vertex 4.2311238281e+05 3.7755754375e+06 -7.3369936500e+03
      vertex 4.2311583594e+05 3.7764169688e+06 -1.1132927730e+04
    endloop
  endfacet
  facet normal 4.199225e-01 -8.661552e-01 -2.709987e-01
    outer loop
      vertex 4.1099448438e+05 3.7699316562e+06 -3.9220124500e+03
      vertex 4.1037775000e+05 3.7708241875e+06 -7.7303374000e+03
      vertex 4.1082512500e+05 3.7710392812e+06 -7.7245874000e+03
    endloop
  endfacet
  facet normal -5.358877e-03 -9.864731e-01 -1.638354e-01
    outer loop
      vertex 4.3080360938e+05 3.7752322500e+06 -3.4401687000e+03
      vertex 4.3020521094e+05 3.7746048594e+06 3.5700000000e+02
      vertex 4.3001754688e+05 3.7752378125e+06 -3.4479499500e+03
    endloop
  endfacet
  facet normal 1.688220e-01 -9.579473e-01 -2.320260e-01
    outer loop
      vertex 4.2101671875e+05 3.7769839375e+06 -1.4968987300e+04
      vertex 4.2108257812e+05 3.7760757500e+06 -1.1171505860e+04
      vertex 4.2023415625e+05 3.7759293750e+06 -1.1184490230e+04
    endloop
  endfacet
  facet normal 2.927336e-01 -9.170710e-01 -2.707171e-01
    outer loop
      vertex 4.1654440625e+05 3.7736957812e+06 -7.5467124000e+03
      vertex 4.1676206250e+05 3.7726579688e+06 -3.7956999500e+03
      vertex 4.1654489062e+05 3.7725895781e+06 -3.7988562000e+03
    endloop
  endfacet
  facet normal -6.673435e-02 -9.854346e-01 -1.564133e-01
    outer loop
      vertex 4.3051865625e+05 3.7764592188e+06 -1.1048724610e+04
      vertex 4.3099931250e+05 3.7758222656e+06 -7.2408686500e+03
      vertex 4.3022692188e+05 3.7764794688e+06 -1.1051833980e+04
    endloop
  endfacet
  facet normal 4.194978e-01 -8.653083e-01 -2.743413e-01
    outer loop
      vertex 4.1361802344e+05 3.7747601250e+06 -1.5089487300e+04
      vertex 4.1378739062e+05 3.7736525000e+06 -1.1336912110e+04
      vertex 4.1356370312e+05 3.7735449688e+06 -1.1339787110e+04
    endloop
  endfacet
  facet normal 1.695638e-01 -9.649486e-01 -2.003055e-01
    outer loop
      vertex 4.2454253125e+05 3.7773010156e+06 -1.4912799800e+04
      vertex 4.2472518750e+05 3.7765442969e+06 -1.1112771480e+04
      vertex 4.2444238281e+05 3.7764955000e+06 -1.1117099610e+04
    endloop
  endfacet
  facet normal -5.084471e-03 -9.820767e-01 -1.884131e-01
    outer loop
      vertex 4.2601380469e+05 3.7765850781e+06 -1.1098177730e+04
      vertex 4.2679986719e+05 3.7765795156e+06 -1.1090396480e+04
      vertex 4.2660289062e+05 3.7758517812e+06 -7.2918686500e+03
    endloop
  endfacet
  facet normal 1.140243e-02 -9.805746e-01 -1.958149e-01
    outer loop
      vertex 4.2490785156e+05 3.7757875781e+06 -7.3127436500e+03
      vertex 4.2561096875e+05 3.7757944062e+06 -7.3059936500e+03
      vertex 4.2509051562e+05 3.7750308594e+06 -3.5127155800e+03
    endloop
  endfacet
  facet normal -6.649208e-02 -9.836240e-01 -1.675189e-01
    outer loop
      vertex 4.2854331250e+05 3.7759044375e+06 -7.2658686500e+03
      vertex 4.2912676562e+05 3.7758639375e+06 -7.2596499000e+03
      vertex 4.2867114844e+05 3.7752478281e+06 -3.4611843300e+03
    endloop
  endfacet
  facet normal 4.199225e-01 -8.661552e-01 -2.709987e-01
    outer loop
      vertex 4.1188923438e+05 3.7703618281e+06 -3.9105124500e+03
      vertex 4.1171987500e+05 3.7714694531e+06 -7.7130874000e+03
      vertex 4.1211292188e+05 3.7704693750e+06 -3.9076374500e+03
    endloop
  endfacet
  facet normal 3.819732e-01 -8.902306e-01 -2.481653e-01
    outer loop
      vertex 4.1877055469e+05 3.7745964219e+06 -7.4100249000e+03
      vertex 4.1840675000e+05 3.7744426406e+06 -7.4183374000e+03
      vertex 4.1822551562e+05 3.7754237188e+06 -1.1216662110e+04
    endloop
  endfacet
  facet normal 4.195474e-01 -8.652859e-01 -2.743360e-01
    outer loop
      vertex 4.1529887500e+05 3.7731901406e+06 -7.5670874000e+03
      vertex 4.1569192188e+05 3.7721900625e+06 -3.8116374500e+03
      vertex 4.1546823438e+05 3.7720825156e+06 -3.8145124500e+03
    endloop
  endfacet
  facet normal 2.964720e-01 -9.253326e-01 -2.363557e-01
    outer loop
      vertex 4.2023415625e+05 3.7759293750e+06 -1.1184490230e+04
      vertex 4.2012551562e+05 3.7749251875e+06 -7.3893686500e+03
      vertex 4.2000550000e+05 3.7758569688e+06 -1.1187833980e+04
    endloop
  endfacet
  facet normal 2.964720e-01 -9.253326e-01 -2.363557e-01
    outer loop
      vertex 4.2058282812e+05 3.7750700000e+06 -7.3826811500e+03
      vertex 4.2012551562e+05 3.7749251875e+06 -7.3893686500e+03
      vertex 4.2023415625e+05 3.7759293750e+06 -1.1184490230e+04
    endloop
  endfacet
  facet normal 2.347209e-01 -9.404109e-01 -2.460353e-01
    outer loop
      vertex 4.1917292188e+05 3.7746950938e+06 -7.4032436500e+03
      vertex 4.1933487500e+05 3.7737415781e+06 -3.6041530800e+03
      vertex 4.1913368750e+05 3.7736922500e+06 -3.6075437000e+03
    endloop
  endfacet
  facet normal 2.347927e-01 -9.403934e-01 -2.460339e-01
    outer loop
      vertex 4.1884902344e+05 3.7766021406e+06 -1.5001424800e+04
      vertex 4.1901097656e+05 3.7756486250e+06 -1.1202333980e+04
      vertex 4.1840742188e+05 3.7755005938e+06 -1.1212505860e+04
    endloop
  endfacet
  facet normal -6.647462e-02 -9.836253e-01 -1.675184e-01
    outer loop
      vertex 4.2945453906e+05 3.7771366719e+06 -1.4862799800e+04
      vertex 4.2929064844e+05 3.7765003125e+06 -1.1061224610e+04
      vertex 4.2841546875e+05 3.7765610469e+06 -1.1070552730e+04
    endloop
  endfacet
  facet normal 4.195225e-01 -8.652968e-01 -2.743399e-01
    outer loop
      vertex 4.1395675000e+05 3.7725448750e+06 -7.5843374000e+03
      vertex 4.1350937500e+05 3.7723297969e+06 -7.5900874000e+03
      vertex 4.1356370312e+05 3.7735449688e+06 -1.1339787110e+04
    endloop
  endfacet
  facet normal 3.796566e-01 -8.833207e-01 -2.749645e-01
    outer loop
      vertex 4.1587382812e+05 3.7722669531e+06 -3.8074812000e+03
      vertex 4.1608497656e+05 3.7711899844e+06 -5.6187500000e+01
      vertex 4.1569192188e+05 3.7721900625e+06 -3.8116374500e+03
    endloop
  endfacet
  facet normal 4.195474e-01 -8.652859e-01 -2.743361e-01
    outer loop
      vertex 4.1440412500e+05 3.7727599688e+06 -7.5785874000e+03
      vertex 4.1395675000e+05 3.7725448750e+06 -7.5843374000e+03
      vertex 4.1378739062e+05 3.7736525000e+06 -1.1336912110e+04
    endloop
  endfacet
  facet normal 2.942118e-01 -9.166100e-01 -2.706759e-01
    outer loop
      vertex 4.1699071875e+05 3.7727303750e+06 -3.7923562000e+03
      vertex 4.1697972656e+05 3.7716201562e+06 -4.4687500000e+01
      vertex 4.1676206250e+05 3.7726579688e+06 -3.7956999500e+03
    endloop
  endfacet
  facet normal 4.195474e-01 -8.652859e-01 -2.743361e-01
    outer loop
      vertex 4.1440412500e+05 3.7727599688e+06 -7.5785874000e+03
      vertex 4.1479717188e+05 3.7717598906e+06 -3.8231374500e+03
      vertex 4.1395675000e+05 3.7725448750e+06 -7.5843374000e+03
    endloop
  endfacet
  facet normal 4.199225e-01 -8.661552e-01 -2.709987e-01
    outer loop
      vertex 4.1278398438e+05 3.7707920000e+06 -3.8990124500e+03
      vertex 4.1216725000e+05 3.7716845312e+06 -7.7073374000e+03
      vertex 4.1261462500e+05 3.7718996250e+06 -7.7015874000e+03
    endloop
  endfacet
  facet normal 3.153393e-02 -9.778971e-01 -2.066953e-01
    outer loop
      vertex 4.2424209375e+05 3.7748844844e+06 -3.5256999500e+03
      vertex 4.2414194531e+05 3.7740789688e+06 2.7000000000e+02
      vertex 4.2388628125e+05 3.7748738594e+06 -3.5297155800e+03
    endloop
  endfacet
  facet normal 1.754273e-01 -9.548473e-01 -2.397748e-01
    outer loop
      vertex 4.1960728125e+05 3.7748318750e+06 -7.3969311500e+03
      vertex 4.2012551562e+05 3.7749251875e+06 -7.3893686500e+03
      vertex 4.1998640625e+05 3.7739467344e+06 -3.5946843300e+03
    endloop
  endfacet
  facet normal -6.673239e-02 -9.854347e-01 -1.564137e-01
    outer loop
      vertex 4.3177170312e+05 3.7751650625e+06 -3.4299030800e+03
      vertex 4.3080360938e+05 3.7752322500e+06 -3.4401687000e+03
      vertex 4.3099931250e+05 3.7758222656e+06 -7.2408686500e+03
    endloop
  endfacet
  facet normal 4.668855e-01 -8.482671e-01 -2.499216e-01
    outer loop
      vertex 4.1744909375e+05 3.7740556719e+06 -7.4342749000e+03
      vertex 4.1700171875e+05 3.7738405938e+06 -7.5400249000e+03
      vertex 4.1723639844e+05 3.7750583438e+06 -1.1234818360e+04
    endloop
  endfacet
  facet normal 4.198982e-01 -8.661678e-01 -2.709960e-01
    outer loop
      vertex 4.0948300000e+05 3.7703940312e+06 -7.7418374000e+03
      vertex 4.0908995312e+05 3.7713940938e+06 -1.1547287110e+04
      vertex 4.0993037500e+05 3.7706091094e+06 -7.7360874000e+03
    endloop
  endfacet
  facet normal 1.304340e-01 -9.667295e-01 -2.200478e-01
    outer loop
      vertex 4.2203954688e+05 3.7762533438e+06 -1.1153005860e+04
      vertex 4.2212660938e+05 3.7754005625e+06 -7.3548999000e+03
      vertex 4.2165872656e+05 3.7753394688e+06 -7.3638374000e+03
    endloop
  endfacet
  facet normal -6.674089e-02 -9.854344e-01 -1.564120e-01
    outer loop
      vertex 4.3099931250e+05 3.7758222656e+06 -7.2408686500e+03
      vertex 4.3035392188e+05 3.7758670625e+06 -7.2477124000e+03
      vertex 4.3022692188e+05 3.7764794688e+06 -1.1051833980e+04
    endloop
  endfacet
  facet normal 4.680214e-01 -8.426405e-01 -2.662950e-01
    outer loop
      vertex 4.1350937500e+05 3.7723297969e+06 -7.5900874000e+03
      vertex 4.1345504688e+05 3.7711146250e+06 -3.8403874500e+03
      vertex 4.1323135938e+05 3.7710070938e+06 -3.8932624500e+03
    endloop
  endfacet
  facet normal 4.199225e-01 -8.661552e-01 -2.709987e-01
    outer loop
      vertex 4.1323135938e+05 3.7710070938e+06 -3.8932624500e+03
      vertex 4.1261462500e+05 3.7718996250e+06 -7.7015874000e+03
      vertex 4.1306200000e+05 3.7721147188e+06 -7.6958374000e+03
    endloop
  endfacet
  facet normal -5.349027e-03 -9.864734e-01 -1.638339e-01
    outer loop
      vertex 4.3035392188e+05 3.7758670625e+06 -7.2477124000e+03
      vertex 4.2982987500e+05 3.7758707656e+06 -7.2528999000e+03
      vertex 4.2990422656e+05 3.7765018594e+06 -1.1055255860e+04
    endloop
  endfacet
  facet normal 4.195309e-01 -8.652935e-01 -2.743372e-01
    outer loop
      vertex 4.1546823438e+05 3.7720825156e+06 -3.8145124500e+03
      vertex 4.1519022656e+05 3.7707598125e+06 -6.7687500000e+01
      vertex 4.1479717188e+05 3.7717598906e+06 -3.8231374500e+03
    endloop
  endfacet
  facet normal 1.304333e-01 -9.667296e-01 -2.200479e-01
    outer loop
      vertex 4.2133771875e+05 3.7761617031e+06 -1.1166412110e+04
      vertex 4.2203954688e+05 3.7762533438e+06 -1.1153005860e+04
      vertex 4.2165872656e+05 3.7753394688e+06 -7.3638374000e+03
    endloop
  endfacet
  facet normal 1.307504e-01 -9.749386e-01 -1.799974e-01
    outer loop
      vertex 4.2718629688e+05 3.7759279688e+06 -7.2807436500e+03
      vertex 4.2728101562e+05 3.7752383438e+06 -3.4766530800e+03
      vertex 4.2660289062e+05 3.7758517812e+06 -7.2918686500e+03
    endloop
  endfacet
  facet normal 4.668932e-01 -8.482633e-01 -2.499201e-01
    outer loop
      vertex 4.1766178125e+05 3.7730530000e+06 -3.6337312000e+03
      vertex 4.1699071875e+05 3.7727303750e+06 -3.7923562000e+03
      vertex 4.1744909375e+05 3.7740556719e+06 -7.4342749000e+03
    endloop
  endfacet
  facet normal -6.672293e-02 -9.854349e-01 -1.564167e-01
    outer loop
      vertex 4.3371099219e+05 3.7744268750e+06 3.9350000000e+02
      vertex 4.3254408594e+05 3.7745078594e+06 3.8106250000e+02
      vertex 4.3264687500e+05 3.7751043281e+06 -3.4205749500e+03
    endloop
  endfacet
  facet normal 2.926871e-01 -9.170853e-01 -2.707189e-01
    outer loop
      vertex 4.1610907812e+05 3.7757713906e+06 -1.5048737300e+04
      vertex 4.1632674219e+05 3.7747335781e+06 -1.1297724610e+04
      vertex 4.1567521094e+05 3.7745284375e+06 -1.1307193360e+04
    endloop
  endfacet
  facet normal 4.195473e-01 -8.652857e-01 -2.743369e-01
    outer loop
      vertex 4.1412610938e+05 3.7714372656e+06 -3.8317624500e+03
      vertex 4.1429547656e+05 3.7703296406e+06 -7.9187500000e+01
      vertex 4.1345504688e+05 3.7711146250e+06 -3.8403874500e+03
    endloop
  endfacet
  facet normal 4.218227e-01 -8.705811e-01 -2.532866e-01
    outer loop
      vertex 4.1702370312e+05 3.7760610156e+06 -1.5035362300e+04
      vertex 4.1746008594e+05 3.7751658906e+06 -1.1231943360e+04
      vertex 4.1723639844e+05 3.7750583438e+06 -1.1234818360e+04
    endloop
  endfacet
  facet normal 2.359363e-01 -9.469926e-01 -2.180347e-01
    outer loop
      vertex 4.2252898438e+05 3.7754992500e+06 -7.3481186500e+03
      vertex 4.2212660938e+05 3.7754005625e+06 -7.3548999000e+03
      vertex 4.2224073438e+05 3.7763026875e+06 -1.1149615230e+04
    endloop
  endfacet
  facet normal 4.199102e-01 -8.661611e-01 -2.709990e-01
    outer loop
      vertex 4.1278398438e+05 3.7707920000e+06 -3.8990124500e+03
      vertex 4.1340072656e+05 3.7698994688e+06 -9.0687500000e+01
      vertex 4.1250597656e+05 3.7694692969e+06 -1.0218750000e+02
    endloop
  endfacet
  facet normal 3.150196e-01 -9.218041e-01 -2.259199e-01
    outer loop
      vertex 4.2165872656e+05 3.7753394688e+06 -7.3638374000e+03
      vertex 4.2197973438e+05 3.7745172188e+06 -3.5612624500e+03
      vertex 4.2114843750e+05 3.7751675781e+06 -7.3740249000e+03
    endloop
  endfacet
  facet normal 4.199225e-01 -8.661552e-01 -2.709987e-01
    outer loop
      vertex 4.1278398438e+05 3.7707920000e+06 -3.8990124500e+03
      vertex 4.1261462500e+05 3.7718996250e+06 -7.7015874000e+03
      vertex 4.1300767188e+05 3.7708995469e+06 -3.8961374500e+03
    endloop
  endfacet
  facet normal 4.199060e-01 -8.661628e-01 -2.709999e-01
    outer loop
      vertex 4.0976101562e+05 3.7717167344e+06 -1.1538662110e+04
      vertex 4.1003902344e+05 3.7730394375e+06 -1.5335487300e+04
      vertex 4.1043207812e+05 3.7720393594e+06 -1.1530037110e+04
    endloop
  endfacet
  facet normal 4.195474e-01 -8.652859e-01 -2.743361e-01
    outer loop
      vertex 4.1485150000e+05 3.7729750625e+06 -7.5728374000e+03
      vertex 4.1479717188e+05 3.7717598906e+06 -3.8231374500e+03
      vertex 4.1440412500e+05 3.7727599688e+06 -7.5785874000e+03
    endloop
  endfacet
  facet normal 4.199224e-01 -8.661550e-01 -2.709995e-01
    outer loop
      vertex 4.1132682812e+05 3.7724695312e+06 -1.1518537110e+04
      vertex 4.1093377344e+05 3.7734696094e+06 -1.5323987300e+04
      vertex 4.1155051562e+05 3.7725770781e+06 -1.1515662110e+04
    endloop
  endfacet
  facet normal 4.197711e-01 -8.658501e-01 -2.722056e-01
    outer loop
      vertex 4.1654489062e+05 3.7725895781e+06 -3.7988562000e+03
      vertex 4.1697972656e+05 3.7716201562e+06 -4.4687500000e+01
      vertex 4.1587382812e+05 3.7722669531e+06 -3.8074812000e+03
    endloop
  endfacet
  facet normal 4.195308e-01 -8.652932e-01 -2.743386e-01
    outer loop
      vertex 4.1546823438e+05 3.7720825156e+06 -3.8145124500e+03
      vertex 4.1479717188e+05 3.7717598906e+06 -3.8231374500e+03
      vertex 4.1485150000e+05 3.7729750625e+06 -7.5728374000e+03
    endloop
  endfacet
  facet normal 3.796566e-01 -8.833209e-01 -2.749638e-01
    outer loop
      vertex 4.1529887500e+05 3.7731901406e+06 -7.5670874000e+03
      vertex 4.1587382812e+05 3.7722669531e+06 -3.8074812000e+03
      vertex 4.1569192188e+05 3.7721900625e+06 -3.8116374500e+03
    endloop
  endfacet
  facet normal 4.199063e-01 -8.661636e-01 -2.709969e-01
    outer loop
      vertex 4.1306200000e+05 3.7721147188e+06 -7.6958374000e+03
      vertex 4.1222157812e+05 3.7728997031e+06 -1.1507037110e+04
      vertex 4.1289264062e+05 3.7732223281e+06 -1.1498412110e+04
    endloop
  endfacet
  facet normal 1.304339e-01 -9.667286e-01 -2.200517e-01
    outer loop
      vertex 4.2165872656e+05 3.7753394688e+06 -7.3638374000e+03
      vertex 4.2212660938e+05 3.7754005625e+06 -7.3548999000e+03
      vertex 4.2197973438e+05 3.7745172188e+06 -3.5612624500e+03
    endloop
  endfacet
  facet normal 2.347209e-01 -9.404109e-01 -2.460353e-01
    outer loop
      vertex 4.1933487500e+05 3.7737415781e+06 -3.6041530800e+03
      vertex 4.1949682812e+05 3.7727880625e+06 1.9493750000e+02
      vertex 4.1913368750e+05 3.7736922500e+06 -3.6075437000e+03
    endloop
  endfacet
  facet normal 2.944309e-01 -9.238848e-01 -2.444328e-01
    outer loop
      vertex 4.1884902344e+05 3.7766021406e+06 -1.5001424800e+04
      vertex 4.1922814844e+05 3.7757170000e+06 -1.1199177730e+04
      vertex 4.1901097656e+05 3.7756486250e+06 -1.1202333980e+04
    endloop
  endfacet
  facet normal 1.761544e-01 -9.610626e-01 -2.129044e-01
    outer loop
      vertex 4.2363061719e+05 3.7756687500e+06 -7.3294311500e+03
      vertex 4.2310892969e+05 3.7747338906e+06 -3.5410593300e+03
      vertex 4.2311238281e+05 3.7755754375e+06 -7.3369936500e+03
    endloop
  endfacet
  facet normal 4.197628e-01 -8.658538e-01 -2.722064e-01
    outer loop
      vertex 4.1611004688e+05 3.7735590000e+06 -7.5530249000e+03
      vertex 4.1654489062e+05 3.7725895781e+06 -3.7988562000e+03
      vertex 4.1566267188e+05 3.7733439219e+06 -7.5587749000e+03
    endloop
  endfacet
  facet normal 4.199058e-01 -8.661625e-01 -2.710013e-01
    outer loop
      vertex 4.1127250000e+05 3.7712543750e+06 -7.7188374000e+03
      vertex 4.1188923438e+05 3.7703618281e+06 -3.9105124500e+03
      vertex 4.1121817188e+05 3.7700392031e+06 -3.9191374500e+03
    endloop
  endfacet
  facet normal -6.674084e-02 -9.854341e-01 -1.564141e-01
    outer loop
      vertex 4.3099931250e+05 3.7758222656e+06 -7.2408686500e+03
      vertex 4.3080360938e+05 3.7752322500e+06 -3.4401687000e+03
      vertex 4.3035392188e+05 3.7758670625e+06 -7.2477124000e+03
    endloop
  endfacet
  facet normal 4.199102e-01 -8.661611e-01 -2.709990e-01
    outer loop
      vertex 4.1155051562e+05 3.7725770781e+06 -1.1515662110e+04
      vertex 4.1093377344e+05 3.7734696094e+06 -1.5323987300e+04
      vertex 4.1182852344e+05 3.7738997812e+06 -1.5312487300e+04
    endloop
  endfacet
  facet normal 2.942118e-01 -9.166102e-01 -2.706753e-01
    outer loop
      vertex 4.1654440625e+05 3.7736957812e+06 -7.5467124000e+03
      vertex 4.1700171875e+05 3.7738405938e+06 -7.5400249000e+03
      vertex 4.1699071875e+05 3.7727303750e+06 -3.7923562000e+03
    endloop
  endfacet
  facet normal 3.153428e-02 -9.778970e-01 -2.066953e-01
    outer loop
      vertex 4.2363061719e+05 3.7756687500e+06 -7.3294311500e+03
      vertex 4.2434223438e+05 3.7756900000e+06 -7.3213999000e+03
      vertex 4.2388628125e+05 3.7748738594e+06 -3.5297155800e+03
    endloop
  endfacet
  facet normal 4.199225e-01 -8.661552e-01 -2.709987e-01
    outer loop
      vertex 4.1054710938e+05 3.7697165781e+06 -3.9277624500e+03
      vertex 4.0993037500e+05 3.7706091094e+06 -7.7360874000e+03
      vertex 4.1077079688e+05 3.7698241250e+06 -3.9248874500e+03
    endloop
  endfacet
  facet normal 3.133642e-02 -9.847719e-01 -1.710041e-01
    outer loop
      vertex 4.2854331250e+05 3.7759044375e+06 -7.2658686500e+03
      vertex 4.2783168750e+05 3.7758831875e+06 -7.2738999000e+03
      vertex 4.2805965625e+05 3.7765504219e+06 -1.1074568360e+04
    endloop
  endfacet
  facet normal 1.304995e-01 -9.667199e-01 -2.200511e-01
    outer loop
      vertex 4.2221367188e+05 3.7745477812e+06 -3.5567937000e+03
      vertex 4.2230073438e+05 3.7736949844e+06 2.4131250000e+02
      vertex 4.2197973438e+05 3.7745172188e+06 -3.5612624500e+03
    endloop
  endfacet
  facet normal -6.671703e-02 -9.854352e-01 -1.564170e-01
    outer loop
      vertex 4.2945453906e+05 3.7771366719e+06 -1.4862799800e+04
      vertex 4.3022692188e+05 3.7764794688e+06 -1.1051833980e+04
      vertex 4.2990422656e+05 3.7765018594e+06 -1.1055255860e+04
    endloop
  endfacet
  facet normal 3.153393e-02 -9.778971e-01 -2.066953e-01
    outer loop
      vertex 4.2434223438e+05 3.7756900000e+06 -7.3213999000e+03
      vertex 4.2424209375e+05 3.7748844844e+06 -3.5256999500e+03
      vertex 4.2388628125e+05 3.7748738594e+06 -3.5297155800e+03
    endloop
  endfacet
  facet normal 1.304996e-01 -9.667208e-01 -2.200473e-01
    outer loop
      vertex 4.2212660938e+05 3.7754005625e+06 -7.3548999000e+03
      vertex 4.2221367188e+05 3.7745477812e+06 -3.5567937000e+03
      vertex 4.2197973438e+05 3.7745172188e+06 -3.5612624500e+03
    endloop
  endfacet
  facet normal 2.964718e-01 -9.253319e-01 -2.363587e-01
    outer loop
      vertex 4.2093149219e+05 3.7742106094e+06 -3.5808718300e+03
      vertex 4.2024552344e+05 3.7739933906e+06 -3.5909030800e+03
      vertex 4.2058282812e+05 3.7750700000e+06 -7.3826811500e+03
    endloop
  endfacet
  facet normal 1.304990e-01 -9.679718e-01 -2.144777e-01
    outer loop
      vertex 4.2224073438e+05 3.7763026875e+06 -1.1149615230e+04
      vertex 4.2195248438e+05 3.7771061406e+06 -1.4951112300e+04
      vertex 4.2311928906e+05 3.7772585156e+06 -1.4928862300e+04
    endloop
  endfacet
  facet normal 4.199220e-01 -8.661541e-01 -2.710028e-01
    outer loop
      vertex 4.1054710938e+05 3.7697165781e+06 -3.9277624500e+03
      vertex 4.1077079688e+05 3.7698241250e+06 -3.9248874500e+03
      vertex 4.1161122656e+05 3.7690391250e+06 -1.1368750000e+02
    endloop
  endfacet
  facet normal 3.153426e-02 -9.778979e-01 -2.066914e-01
    outer loop
      vertex 4.2444238281e+05 3.7764955000e+06 -1.1117099610e+04
      vertex 4.2434223438e+05 3.7756900000e+06 -7.3213999000e+03
      vertex 4.2363061719e+05 3.7756687500e+06 -7.3294311500e+03
    endloop
  endfacet
  facet normal 4.197871e-01 -8.658413e-01 -2.722088e-01
    outer loop
      vertex 4.1567521094e+05 3.7745284375e+06 -1.1307193360e+04
      vertex 4.1611004688e+05 3.7735590000e+06 -7.5530249000e+03
      vertex 4.1545152344e+05 3.7744208906e+06 -1.1310068360e+04
    endloop
  endfacet
  facet normal 3.149931e-01 -9.218143e-01 -2.259154e-01
    outer loop
      vertex 4.2197973438e+05 3.7745172188e+06 -3.5612624500e+03
      vertex 4.2230073438e+05 3.7736949844e+06 2.4131250000e+02
      vertex 4.2121429688e+05 3.7742594062e+06 -3.5765437000e+03
    endloop
  endfacet
  facet normal 4.195351e-01 -8.652918e-01 -2.743363e-01
    outer loop
      vertex 4.1423476562e+05 3.7738675938e+06 -1.1331162110e+04
      vertex 4.1361802344e+05 3.7747601250e+06 -1.5089487300e+04
      vertex 4.1451277344e+05 3.7751902969e+06 -1.5077987300e+04
    endloop
  endfacet
  facet normal 1.761545e-01 -9.610634e-01 -2.129006e-01
    outer loop
      vertex 4.2363061719e+05 3.7756687500e+06 -7.3294311500e+03
      vertex 4.2311238281e+05 3.7755754375e+06 -7.3369936500e+03
      vertex 4.2337495312e+05 3.7764636250e+06 -1.1129146480e+04
    endloop
  endfacet
  facet normal 4.199102e-01 -8.661611e-01 -2.709990e-01
    outer loop
      vertex 4.0976101562e+05 3.7717167344e+06 -1.1538662110e+04
      vertex 4.0914427344e+05 3.7726092656e+06 -1.5346987300e+04
      vertex 4.1003902344e+05 3.7730394375e+06 -1.5335487300e+04
    endloop
  endfacet
  facet normal -6.628440e-02 -9.820865e-01 -1.763871e-01
    outer loop
      vertex 4.2709157031e+05 3.7766176094e+06 -1.1084833980e+04
      vertex 4.2699684375e+05 3.7773072344e+06 -1.4888924800e+04
      vertex 4.2828763281e+05 3.7772176562e+06 -1.4875237300e+04
    endloop
  endfacet
  facet normal 3.150494e-01 -9.217948e-01 -2.259166e-01
    outer loop
      vertex 4.2133771875e+05 3.7761617031e+06 -1.1166412110e+04
      vertex 4.2165872656e+05 3.7753394688e+06 -7.3638374000e+03
      vertex 4.2108257812e+05 3.7760757500e+06 -1.1171505860e+04
    endloop
  endfacet
  facet normal 1.115122e-02 -9.862943e-01 -1.646186e-01
    outer loop
      vertex 4.3001754688e+05 3.7752378125e+06 -3.4479499500e+03
      vertex 4.2879898438e+05 3.7745912188e+06 3.4350000000e+02
      vertex 4.2896287500e+05 3.7752275781e+06 -3.4580749500e+03
    endloop
  endfacet
  facet normal 3.150494e-01 -9.217949e-01 -2.259159e-01
    outer loop
      vertex 4.2101671875e+05 3.7769839375e+06 -1.4968987300e+04
      vertex 4.2133771875e+05 3.7761617031e+06 -1.1166412110e+04
      vertex 4.2108257812e+05 3.7760757500e+06 -1.1171505860e+04
    endloop
  endfacet
  facet normal 4.198981e-01 -8.661674e-01 -2.709976e-01
    outer loop
      vertex 4.1054710938e+05 3.7697165781e+06 -3.9277624500e+03
      vertex 4.0948300000e+05 3.7703940312e+06 -7.7418374000e+03
      vertex 4.0993037500e+05 3.7706091094e+06 -7.7360874000e+03
    endloop
  endfacet
  facet normal 2.944307e-01 -9.238840e-01 -2.444359e-01
    outer loop
      vertex 4.1922814844e+05 3.7757170000e+06 -1.1199177730e+04
      vertex 4.1917292188e+05 3.7746950938e+06 -7.4032436500e+03
      vertex 4.1901097656e+05 3.7756486250e+06 -1.1202333980e+04
    endloop
  endfacet
  facet normal -6.627295e-02 -9.820872e-01 -1.763875e-01
    outer loop
      vertex 4.2805965625e+05 3.7765504219e+06 -1.1074568360e+04
      vertex 4.2783168750e+05 3.7758831875e+06 -7.2738999000e+03
      vertex 4.2718629688e+05 3.7759279688e+06 -7.2807436500e+03
    endloop
  endfacet
  facet normal 4.195349e-01 -8.652913e-01 -2.743380e-01
    outer loop
      vertex 4.1519022656e+05 3.7707598125e+06 -6.7687500000e+01
      vertex 4.1429547656e+05 3.7703296406e+06 -7.9187500000e+01
      vertex 4.1412610938e+05 3.7714372656e+06 -3.8317624500e+03
    endloop
  endfacet
  facet normal -6.627137e-02 -9.820874e-01 -1.763874e-01
    outer loop
      vertex 4.2783168750e+05 3.7758831875e+06 -7.2738999000e+03
      vertex 4.2760371875e+05 3.7752159531e+06 -3.4732312000e+03
      vertex 4.2728101562e+05 3.7752383438e+06 -3.4766530800e+03
    endloop
  endfacet
  facet normal 4.199058e-01 -8.661625e-01 -2.710013e-01
    outer loop
      vertex 4.1037775000e+05 3.7708241875e+06 -7.7303374000e+03
      vertex 4.0976101562e+05 3.7717167344e+06 -1.1538662110e+04
      vertex 4.1043207812e+05 3.7720393594e+06 -1.1530037110e+04
    endloop
  endfacet
  facet normal -5.103993e-03 -9.820772e-01 -1.884102e-01
    outer loop
      vertex 4.2607884375e+05 3.7758555000e+06 -7.2970561500e+03
      vertex 4.2640591406e+05 3.7751240625e+06 -3.4933405800e+03
      vertex 4.2614389062e+05 3.7751259219e+06 -3.4959343300e+03
    endloop
  endfacet
  facet normal 2.347598e-01 -9.404020e-01 -2.460325e-01
    outer loop
      vertex 4.1877055469e+05 3.7745964219e+06 -7.4100249000e+03
      vertex 4.1917292188e+05 3.7746950938e+06 -7.4032436500e+03
      vertex 4.1913368750e+05 3.7736922500e+06 -3.6075437000e+03
    endloop
  endfacet
  facet normal 4.198982e-01 -8.661678e-01 -2.709960e-01
    outer loop
      vertex 4.1077079688e+05 3.7698241250e+06 -3.9248874500e+03
      vertex 4.0993037500e+05 3.7706091094e+06 -7.7360874000e+03
      vertex 4.1037775000e+05 3.7708241875e+06 -7.7303374000e+03
    endloop
  endfacet
  facet normal 4.199224e-01 -8.661550e-01 -2.709995e-01
    outer loop
      vertex 4.1300767188e+05 3.7708995469e+06 -3.8961374500e+03
      vertex 4.1323135938e+05 3.7710070938e+06 -3.8932624500e+03
      vertex 4.1340072656e+05 3.7698994688e+06 -9.0687500000e+01
    endloop
  endfacet
  facet normal 1.754273e-01 -9.548473e-01 -2.397748e-01
    outer loop
      vertex 4.1988549219e+05 3.7767887656e+06 -1.4986299800e+04
      vertex 4.2000550000e+05 3.7758569688e+06 -1.1187833980e+04
      vertex 4.1922814844e+05 3.7757170000e+06 -1.1199177730e+04
    endloop
  endfacet
  facet normal 2.944818e-01 -9.238690e-01 -2.444311e-01
    outer loop
      vertex 4.1960728125e+05 3.7748318750e+06 -7.3969311500e+03
      vertex 4.1933487500e+05 3.7737415781e+06 -3.6041530800e+03
      vertex 4.1917292188e+05 3.7746950938e+06 -7.4032436500e+03
    endloop
  endfacet
  facet normal -6.671911e-02 -9.854349e-01 -1.564179e-01
    outer loop
      vertex 4.3264687500e+05 3.7751043281e+06 -3.4205749500e+03
      vertex 4.3177170312e+05 3.7751650625e+06 -3.4299030800e+03
      vertex 4.3158276562e+05 3.7757817812e+06 -7.2346499000e+03
    endloop
  endfacet
  facet normal 2.359210e-01 -9.469956e-01 -2.180380e-01
    outer loop
      vertex 4.2310547656e+05 3.7738923438e+06 2.5487500000e+02
      vertex 4.2230073438e+05 3.7736949844e+06 2.4131250000e+02
      vertex 4.2281722656e+05 3.7746957969e+06 -3.5466218300e+03
    endloop
  endfacet
  facet normal 4.198736e-01 -8.661795e-01 -2.709965e-01
    outer loop
      vertex 4.1077079688e+05 3.7698241250e+06 -3.9248874500e+03
      vertex 4.1037775000e+05 3.7708241875e+06 -7.7303374000e+03
      vertex 4.1099448438e+05 3.7699316562e+06 -3.9220124500e+03
    endloop
  endfacet
  facet normal 3.133665e-02 -9.847719e-01 -1.710040e-01
    outer loop
      vertex 4.2867114844e+05 3.7752478281e+06 -3.4611843300e+03
      vertex 4.2879898438e+05 3.7745912188e+06 3.4350000000e+02
      vertex 4.2760371875e+05 3.7752159531e+06 -3.4732312000e+03
    endloop
  endfacet
endsolid WTRA-USAV-INDH-Indian_Hill_fault-CFM5
