solid WTRA-USAV-WLNC-Walnut_Creek_fault-CFM5
  facet normal -3.364158e-01 9.069439e-01 2.535294e-01
    outer loop
      vertex 4.1949830469e+05 3.7715276406e+06 -3.3923437500e+03
      vertex 4.1988061719e+05 3.7706764219e+06 1.6000000000e+02
      vertex 4.1963811719e+05 3.7715767500e+06 -3.3825000000e+03
    endloop
  endfacet
  facet normal -4.978606e-01 8.336978e-01 2.389201e-01
    outer loop
      vertex 4.1967612500e+05 3.7745634688e+06 -1.4020125000e+04
      vertex 4.1934160938e+05 3.7743695625e+06 -1.4040562500e+04
      vertex 4.1982953125e+05 3.7736433438e+06 -1.0489734380e+04
    endloop
  endfacet
  facet normal -4.983246e-01 8.354205e-01 2.318301e-01
    outer loop
      vertex 4.2111426562e+05 3.7740456250e+06 -1.0460875000e+04
      vertex 4.2174087500e+05 3.7734344219e+06 -6.9114375000e+03
      vertex 4.2119789844e+05 3.7740940938e+06 -1.0455765620e+04
    endloop
  endfacet
  facet normal -4.983997e-01 8.353749e-01 2.318331e-01
    outer loop
      vertex 4.2119789844e+05 3.7740940938e+06 -1.0455765620e+04
      vertex 4.2174087500e+05 3.7734344219e+06 -6.9114375000e+03
      vertex 4.2190813281e+05 3.7735313750e+06 -6.9012187500e+03
    endloop
  endfacet
  facet normal -1.140431e-01 9.677879e-01 2.244565e-01
    outer loop
      vertex 4.2008042188e+05 3.7737887656e+06 -1.0474406250e+04
      vertex 4.2068907031e+05 3.7738587812e+06 -1.0467046880e+04
      vertex 4.2048766406e+05 3.7746568281e+06 -1.4010312500e+04
    endloop
  endfacet
  facet normal -4.275689e-01 8.763780e-01 2.216898e-01
    outer loop
      vertex 4.2089048438e+05 3.7730607500e+06 -6.9237812500e+03
      vertex 4.2109189062e+05 3.7722627031e+06 -3.3805156200e+03
      vertex 4.2133704688e+05 3.7723821562e+06 -3.3799062500e+03
    endloop
  endfacet
  facet normal -3.372069e-01 9.170920e-01 2.126825e-01
    outer loop
      vertex 4.2124575000e+05 3.7732902812e+06 -6.9158437500e+03
      vertex 4.2162479688e+05 3.7726070156e+06 -3.3686093800e+03
      vertex 4.2152537500e+05 3.7733885312e+06 -6.8961562500e+03
    endloop
  endfacet
  facet normal -5.165129e-01 8.169669e-01 2.564751e-01
    outer loop
      vertex 4.1359584375e+05 3.7677515312e+06 -3.4480312500e+03
      vertex 4.1309528125e+05 3.7685507969e+06 -7.0020625000e+03
      vertex 4.1276101562e+05 3.7683402188e+06 -7.0044687500e+03
    endloop
  endfacet
  facet normal -5.165171e-01 8.169649e-01 2.564731e-01
    outer loop
      vertex 4.1624054688e+05 3.7694175469e+06 -3.4290781200e+03
      vertex 4.1583950000e+05 3.7702795000e+06 -6.9824062500e+03
      vertex 4.1606465625e+05 3.7693067344e+06 -3.4303281200e+03
    endloop
  endfacet
  facet normal -5.165119e-01 8.169669e-01 2.564773e-01
    outer loop
      vertex 4.1189312500e+05 3.7655642969e+06 9.0187500000e+01
      vertex 4.1136369531e+05 3.7663453906e+06 -3.4640625000e+03
      vertex 4.1102639844e+05 3.7661329062e+06 -3.4665000000e+03
    endloop
  endfacet
  facet normal -6.026946e-01 7.588774e-01 2.467071e-01
    outer loop
      vertex 4.1911599219e+05 3.7723788594e+06 -6.9446875000e+03
      vertex 4.1892415625e+05 3.7722289531e+06 -6.9522187500e+03
      vertex 4.1949830469e+05 3.7715276406e+06 -3.3923437500e+03
    endloop
  endfacet
  facet normal -4.267387e-01 8.670429e-01 2.571588e-01
    outer loop
      vertex 4.1845048438e+05 3.7719136719e+06 -6.9611250000e+03
      vertex 4.1822746875e+05 3.7718003125e+06 -6.9490000000e+03
      vertex 4.1885532031e+05 3.7710594062e+06 -3.4090625000e+03
    endloop
  endfacet
  facet normal -1.858851e-01 9.527397e-01 2.402787e-01
    outer loop
      vertex 4.1962825781e+05 3.7735297188e+06 -1.0488703120e+04
      vertex 4.1934160938e+05 3.7743695625e+06 -1.4040562500e+04
      vertex 4.1891061719e+05 3.7742777656e+06 -1.4010000000e+04
    endloop
  endfacet
  facet normal -4.299314e-01 8.711334e-01 2.372460e-01
    outer loop
      vertex 4.2031745312e+05 3.7729171094e+06 -6.9389062500e+03
      vertex 4.1982953125e+05 3.7736433438e+06 -1.0489734380e+04
      vertex 4.1971801562e+05 3.7735866562e+06 -1.0483671880e+04
    endloop
  endfacet
  facet normal -4.672849e-01 8.453878e-01 2.587747e-01
    outer loop
      vertex 4.1729925781e+05 3.7723372500e+06 -1.0511109380e+04
      vertex 4.1684357812e+05 3.7720869531e+06 -1.0516265620e+04
      vertex 4.1745900781e+05 3.7713399375e+06 -6.9645312500e+03
    endloop
  endfacet
  facet normal -5.164922e-01 8.169796e-01 2.564765e-01
    outer loop
      vertex 4.1392537500e+05 3.7701883125e+06 -1.0546593750e+04
      vertex 4.1298912500e+05 3.7707131250e+06 -1.4103750000e+04
      vertex 4.1343307812e+05 3.7698781875e+06 -1.0550109380e+04
    endloop
  endfacet
  facet normal -5.164863e-01 8.169833e-01 2.564766e-01
    outer loop
      vertex 4.1420523438e+05 3.7692500000e+06 -6.9941250000e+03
      vertex 4.1343307812e+05 3.7698781875e+06 -1.0550109380e+04
      vertex 4.1387703125e+05 3.7690432500e+06 -6.9964687500e+03
    endloop
  endfacet
  facet normal -5.164871e-01 8.169825e-01 2.564776e-01
    outer loop
      vertex 4.1560767969e+05 3.7723626875e+06 -1.4085000000e+04
      vertex 4.1503739844e+05 3.7720034375e+06 -1.4089062500e+04
      vertex 4.1560254688e+05 3.7712448438e+06 -1.0534562500e+04
    endloop
  endfacet
  facet normal -5.164967e-01 8.169775e-01 2.564741e-01
    outer loop
      vertex 4.1001746875e+05 3.7666119375e+06 -7.0241562500e+03
      vertex 4.0947927344e+05 3.7673875000e+06 -1.0578484380e+04
      vertex 4.0966725000e+05 3.7663913125e+06 -7.0266562500e+03
    endloop
  endfacet
  facet normal -5.165096e-01 8.169691e-01 2.564747e-01
    outer loop
      vertex 4.1309445312e+05 3.7674356719e+06 -3.4516406200e+03
      vertex 4.1359584375e+05 3.7677515312e+06 -3.4480312500e+03
      vertex 4.1276101562e+05 3.7683402188e+06 -7.0044687500e+03
    endloop
  endfacet
  facet normal -5.165478e-01 8.169450e-01 2.564747e-01
    outer loop
      vertex 4.1574662500e+05 3.7679917969e+06 1.1787500000e+02
      vertex 4.1539342188e+05 3.7688839062e+06 -3.4351093800e+03
      vertex 4.1522135156e+05 3.7687755000e+06 -3.4363593800e+03
    endloop
  endfacet
  facet normal -5.158772e-01 8.159345e-01 2.610010e-01
    outer loop
      vertex 4.1684357812e+05 3.7720869531e+06 -1.0516265620e+04
      vertex 4.1622814062e+05 3.7728339688e+06 -1.4068000000e+04
      vertex 4.1666767969e+05 3.7719761406e+06 -1.0517515620e+04
    endloop
  endfacet
  facet normal -3.364755e-01 9.069215e-01 2.535305e-01
    outer loop
      vertex 4.1911599219e+05 3.7723788594e+06 -6.9446875000e+03
      vertex 4.1915311719e+05 3.7733774375e+06 -1.0467500000e+04
      vertex 4.1873367969e+05 3.7732300781e+06 -1.0497031250e+04
    endloop
  endfacet
  facet normal -4.266906e-01 8.670676e-01 2.571554e-01
    outer loop
      vertex 4.1885532031e+05 3.7710594062e+06 -3.4090625000e+03
      vertex 4.1822746875e+05 3.7718003125e+06 -6.9490000000e+03
      vertex 4.1874381250e+05 3.7710027344e+06 -3.4030000000e+03
    endloop
  endfacet
  facet normal -5.165631e-01 8.169342e-01 2.564783e-01
    outer loop
      vertex 4.0956665625e+05 3.7674425625e+06 -1.0577875000e+04
      vertex 4.0894107812e+05 3.7681630781e+06 -1.4132812500e+04
      vertex 4.0947927344e+05 3.7673875000e+06 -1.0578484380e+04
    endloop
  endfacet
  facet normal -4.685387e-01 8.480357e-01 2.476023e-01
    outer loop
      vertex 4.1915311719e+05 3.7733774375e+06 -1.0467500000e+04
      vertex 4.1930501562e+05 3.7734608594e+06 -1.0465781250e+04
      vertex 4.1891061719e+05 3.7742777656e+06 -1.4010000000e+04
    endloop
  endfacet
  facet normal -6.026945e-01 7.588772e-01 2.467077e-01
    outer loop
      vertex 4.1911599219e+05 3.7723788594e+06 -6.9446875000e+03
      vertex 4.1844592188e+05 3.7730052188e+06 -1.0508328120e+04
      vertex 4.1892415625e+05 3.7722289531e+06 -6.9522187500e+03
    endloop
  endfacet
  facet normal -5.164964e-01 8.169769e-01 2.564764e-01
    outer loop
      vertex 4.1055565625e+05 3.7658363594e+06 -3.4698281200e+03
      vertex 4.1001746875e+05 3.7666119375e+06 -7.0241562500e+03
      vertex 4.1038054688e+05 3.7657260469e+06 -3.4710781200e+03
    endloop
  endfacet
  facet normal -5.164688e-01 8.169951e-01 2.564741e-01
    outer loop
      vertex 4.1109385156e+05 3.7650607812e+06 8.4500000000e+01
      vertex 4.1144339844e+05 3.7652809844e+06 8.6937500000e+01
      vertex 4.1081782031e+05 3.7660015000e+06 -3.4680000000e+03
    endloop
  endfacet
  facet normal -4.275691e-01 8.763785e-01 2.216873e-01
    outer loop
      vertex 4.2109189062e+05 3.7722627031e+06 -3.3805156200e+03
      vertex 4.2162017188e+05 3.7716239375e+06 1.6356250000e+02
      vertex 4.2133704688e+05 3.7723821562e+06 -3.3799062500e+03
    endloop
  endfacet
  facet normal -4.672704e-01 8.453950e-01 2.587774e-01
    outer loop
      vertex 4.1776279688e+05 3.7715067969e+06 -6.9610937500e+03
      vertex 4.1745900781e+05 3.7713399375e+06 -6.9645312500e+03
      vertex 4.1807443750e+05 3.7705929062e+06 -3.4127968800e+03
    endloop
  endfacet
  facet normal -5.164594e-01 8.170017e-01 2.564720e-01
    outer loop
      vertex 4.1109385156e+05 3.7650607812e+06 8.4500000000e+01
      vertex 4.1026811719e+05 3.7656552188e+06 -3.4718906200e+03
      vertex 4.1018073438e+05 3.7656001719e+06 -3.4725000000e+03
    endloop
  endfacet
  facet normal -5.897418e-01 7.673475e-01 2.517587e-01
    outer loop
      vertex 4.1845048438e+05 3.7719136719e+06 -6.9611250000e+03
      vertex 4.1876071875e+05 3.7721493125e+06 -6.9526250000e+03
      vertex 4.1804565625e+05 3.7727679375e+06 -1.0513187500e+04
    endloop
  endfacet
  facet normal -5.165037e-01 8.169719e-01 2.564780e-01
    outer loop
      vertex 4.1560254688e+05 3.7712448438e+06 -1.0534562500e+04
      vertex 4.1503739844e+05 3.7720034375e+06 -1.4089062500e+04
      vertex 4.1543845312e+05 3.7711414688e+06 -1.0535734380e+04
    endloop
  endfacet
  facet normal -6.026946e-01 7.588774e-01 2.467071e-01
    outer loop
      vertex 4.1835136719e+05 3.7740812969e+06 -1.4049375000e+04
      vertex 4.1796769531e+05 3.7737814844e+06 -1.4064437500e+04
      vertex 4.1873367969e+05 3.7732300781e+06 -1.0497031250e+04
    endloop
  endfacet
  facet normal -5.164964e-01 8.169769e-01 2.564764e-01
    outer loop
      vertex 4.1001746875e+05 3.7666119375e+06 -7.0241562500e+03
      vertex 4.0966725000e+05 3.7663913125e+06 -7.0266562500e+03
      vertex 4.1038054688e+05 3.7657260469e+06 -3.4710781200e+03
    endloop
  endfacet
  facet normal -5.164964e-01 8.169769e-01 2.564765e-01
    outer loop
      vertex 4.1098133594e+05 3.7683337344e+06 -1.0567703120e+04
      vertex 4.1044392969e+05 3.7691097969e+06 -1.4122000000e+04
      vertex 4.1080622656e+05 3.7682234219e+06 -1.0568953120e+04
    endloop
  endfacet
  facet normal -4.249436e-01 8.708028e-01 2.472356e-01
    outer loop
      vertex 4.1892415625e+05 3.7722289531e+06 -6.9522187500e+03
      vertex 4.1844592188e+05 3.7730052188e+06 -1.0508328120e+04
      vertex 4.1876071875e+05 3.7721493125e+06 -6.9526250000e+03
    endloop
  endfacet
  facet normal -5.165032e-01 8.169723e-01 2.564774e-01
    outer loop
      vertex 4.1342788281e+05 3.7665311094e+06 1.0118750000e+02
      vertex 4.1409640625e+05 3.7669522500e+06 1.0600000000e+02
      vertex 4.1309445312e+05 3.7674356719e+06 -3.4516406200e+03
    endloop
  endfacet
  facet normal -5.164969e-01 8.169766e-01 2.564764e-01
    outer loop
      vertex 4.1504021875e+05 3.7697760000e+06 -6.9880937500e+03
      vertex 4.1548771094e+05 3.7700579062e+06 -6.9849062500e+03
      vertex 4.1468702344e+05 3.7706681094e+06 -1.0541078120e+04
    endloop
  endfacet
  facet normal -5.300175e-01 8.146572e-01 2.354040e-01
    outer loop
      vertex 4.1971801562e+05 3.7735866562e+06 -1.0483671880e+04
      vertex 4.1991490625e+05 3.7726898594e+06 -6.9368437500e+03
      vertex 4.2009442969e+05 3.7728037500e+06 -6.9267812500e+03
    endloop
  endfacet
  facet normal -5.165128e-01 8.169668e-01 2.564756e-01
    outer loop
      vertex 4.1116853125e+05 3.7673370469e+06 -7.0159062500e+03
      vertex 4.1083426562e+05 3.7671264688e+06 -7.0183125000e+03
      vertex 4.1153082812e+05 3.7664506719e+06 -3.4628593800e+03
    endloop
  endfacet
  facet normal -5.165038e-01 8.169708e-01 2.564810e-01
    outer loop
      vertex 4.1284903125e+05 3.7672810625e+06 -3.4534062500e+03
      vertex 4.1227017188e+05 3.7680310312e+06 -7.0080000000e+03
      vertex 4.1185300781e+05 3.7677682344e+06 -7.0110000000e+03
    endloop
  endfacet
  facet normal -5.164861e-01 8.169831e-01 2.564776e-01
    outer loop
      vertex 4.1583950000e+05 3.7702795000e+06 -6.9824062500e+03
      vertex 4.1616770312e+05 3.7704862500e+06 -6.9800625000e+03
      vertex 4.1543845312e+05 3.7711414688e+06 -1.0535734380e+04
    endloop
  endfacet
  facet normal -1.905975e-01 9.612505e-01 1.991737e-01
    outer loop
      vertex 4.2204423438e+05 3.7727543750e+06 -3.3390781200e+03
      vertex 4.2256309375e+05 3.7721202188e+06 2.1800000000e+02
      vertex 4.2236748438e+05 3.7728232188e+06 -3.3620000000e+03
    endloop
  endfacet
  facet normal -5.299834e-01 8.146784e-01 2.354075e-01
    outer loop
      vertex 4.1962825781e+05 3.7735297188e+06 -1.0488703120e+04
      vertex 4.1991490625e+05 3.7726898594e+06 -6.9368437500e+03
      vertex 4.1971801562e+05 3.7735866562e+06 -1.0483671880e+04
    endloop
  endfacet
  facet normal -5.278273e-01 8.091529e-01 2.582051e-01
    outer loop
      vertex 4.1719477344e+05 3.7733955000e+06 -1.4041000000e+04
      vertex 4.1683571875e+05 3.7731677031e+06 -1.4061125000e+04
      vertex 4.1729925781e+05 3.7723372500e+06 -1.0511109380e+04
    endloop
  endfacet
  facet normal -5.165013e-01 8.169745e-01 2.564743e-01
    outer loop
      vertex 4.1468702344e+05 3.7706681094e+06 -1.0541078120e+04
      vertex 4.1364552344e+05 3.7711266250e+06 -1.4099062500e+04
      vertex 4.1417079688e+05 3.7703429219e+06 -1.0544828120e+04
    endloop
  endfacet
  facet normal -5.164946e-01 8.169784e-01 2.564753e-01
    outer loop
      vertex 4.1504021875e+05 3.7697760000e+06 -6.9880937500e+03
      vertex 4.1417079688e+05 3.7703429219e+06 -1.0544828120e+04
      vertex 4.1469607812e+05 3.7695592188e+06 -6.9905937500e+03
    endloop
  endfacet
  facet normal -1.146078e-01 9.774007e-01 1.776317e-01
    outer loop
      vertex 4.2119789844e+05 3.7740940938e+06 -1.0455765620e+04
      vertex 4.2190813281e+05 3.7735313750e+06 -6.9012187500e+03
      vertex 4.2140078125e+05 3.7741174375e+06 -1.0453312500e+04
    endloop
  endfacet
  facet normal -1.140431e-01 9.677882e-01 2.244552e-01
    outer loop
      vertex 4.2048471094e+05 3.7730140625e+06 -6.9286875000e+03
      vertex 4.2068907031e+05 3.7738587812e+06 -1.0467046880e+04
      vertex 4.2008042188e+05 3.7737887656e+06 -1.0474406250e+04
    endloop
  endfacet
  facet normal -5.164861e-01 8.169831e-01 2.564776e-01
    outer loop
      vertex 4.1729800000e+05 3.7689690781e+06 1.2893750000e+02
      vertex 4.1673285156e+05 3.7697276719e+06 -3.4255625000e+03
      vertex 4.1624054688e+05 3.7694175469e+06 -3.4290781200e+03
    endloop
  endfacet
  facet normal -4.672947e-01 8.453819e-01 2.587762e-01
    outer loop
      vertex 4.1868987500e+05 3.7698458906e+06 1.3893750000e+02
      vertex 4.1822633594e+05 3.7706763438e+06 -3.4110781200e+03
      vertex 4.1807443750e+05 3.7705929062e+06 -3.4127968800e+03
    endloop
  endfacet
  facet normal -5.164368e-01 8.170145e-01 2.564767e-01
    outer loop
      vertex 4.1109385156e+05 3.7650607812e+06 8.4500000000e+01
      vertex 4.1081782031e+05 3.7660015000e+06 -3.4680000000e+03
      vertex 4.1055565625e+05 3.7658363594e+06 -3.4698281200e+03
    endloop
  endfacet
  facet normal -5.164867e-01 8.169840e-01 2.564732e-01
    outer loop
      vertex 4.1420523438e+05 3.7692500000e+06 -6.9941250000e+03
      vertex 4.1387703125e+05 3.7690432500e+06 -6.9964687500e+03
      vertex 4.1448508594e+05 3.7683117031e+06 -3.4416562500e+03
    endloop
  endfacet
  facet normal -5.164884e-01 8.169830e-01 2.564731e-01
    outer loop
      vertex 4.1448508594e+05 3.7683117031e+06 -3.4416562500e+03
      vertex 4.1522135156e+05 3.7687755000e+06 -3.4363593800e+03
      vertex 4.1420523438e+05 3.7692500000e+06 -6.9941250000e+03
    endloop
  endfacet
  facet normal -6.027098e-01 7.588657e-01 2.467059e-01
    outer loop
      vertex 4.1988061719e+05 3.7706764219e+06 1.6000000000e+02
      vertex 4.1949830469e+05 3.7715276406e+06 -3.3923437500e+03
      vertex 4.1940239062e+05 3.7714526875e+06 -3.3961093800e+03
    endloop
  endfacet
  facet normal -5.277940e-01 8.091736e-01 2.582085e-01
    outer loop
      vertex 4.1794232812e+05 3.7716206875e+06 -6.9510312500e+03
      vertex 4.1756854688e+05 3.7725080938e+06 -1.0496015620e+04
      vertex 4.1776279688e+05 3.7715067969e+06 -6.9610937500e+03
    endloop
  endfacet
  facet normal -4.276596e-01 8.763349e-01 2.216852e-01
    outer loop
      vertex 4.2068907031e+05 3.7738587812e+06 -1.0467046880e+04
      vertex 4.2077078906e+05 3.7738986094e+06 -1.0466843750e+04
      vertex 4.2048766406e+05 3.7746568281e+06 -1.4010312500e+04
    endloop
  endfacet
  facet normal -5.165065e-01 8.169704e-01 2.564770e-01
    outer loop
      vertex 4.1729800000e+05 3.7689690781e+06 1.2893750000e+02
      vertex 4.1739164062e+05 3.7701426719e+06 -3.4207968800e+03
      vertex 4.1687542188e+05 3.7698174844e+06 -3.4245468800e+03
    endloop
  endfacet
  facet normal -5.164367e-01 8.170145e-01 2.564771e-01
    outer loop
      vertex 4.1055565625e+05 3.7658363594e+06 -3.4698281200e+03
      vertex 4.1081782031e+05 3.7660015000e+06 -3.4680000000e+03
      vertex 4.1019223438e+05 3.7667220312e+06 -7.0229375000e+03
    endloop
  endfacet
  facet normal -5.165010e-01 8.169741e-01 2.564762e-01
    outer loop
      vertex 4.1468702344e+05 3.7706681094e+06 -1.0541078120e+04
      vertex 4.1417079688e+05 3.7703429219e+06 -1.0544828120e+04
      vertex 4.1504021875e+05 3.7697760000e+06 -6.9880937500e+03
    endloop
  endfacet
  facet normal -4.298951e-01 8.711520e-01 2.372434e-01
    outer loop
      vertex 4.1971801562e+05 3.7735866562e+06 -1.0483671880e+04
      vertex 4.2009442969e+05 3.7728037500e+06 -6.9267812500e+03
      vertex 4.2031745312e+05 3.7729171094e+06 -6.9389062500e+03
    endloop
  endfacet
  facet normal -5.165331e-01 8.169535e-01 2.564770e-01
    outer loop
      vertex 4.1144339844e+05 3.7652809844e+06 8.6937500000e+01
      vertex 4.1102639844e+05 3.7661329062e+06 -3.4665000000e+03
      vertex 4.1081782031e+05 3.7660015000e+06 -3.4680000000e+03
    endloop
  endfacet
  facet normal -5.164589e-01 8.170008e-01 2.564759e-01
    outer loop
      vertex 4.1055565625e+05 3.7658363594e+06 -3.4698281200e+03
      vertex 4.1019223438e+05 3.7667220312e+06 -7.0229375000e+03
      vertex 4.1001746875e+05 3.7666119375e+06 -7.0241562500e+03
    endloop
  endfacet
  facet normal -5.164883e-01 8.169828e-01 2.564742e-01
    outer loop
      vertex 4.1574662500e+05 3.7679917969e+06 1.1787500000e+02
      vertex 4.1522135156e+05 3.7687755000e+06 -3.4363593800e+03
      vertex 4.1448508594e+05 3.7683117031e+06 -3.4416562500e+03
    endloop
  endfacet
  facet normal -5.164753e-01 8.169895e-01 2.564788e-01
    outer loop
      vertex 4.1060940625e+05 3.7669848125e+06 -7.0199375000e+03
      vertex 4.1019223438e+05 3.7667220312e+06 -7.0229375000e+03
      vertex 4.1081782031e+05 3.7660015000e+06 -3.4680000000e+03
    endloop
  endfacet
  facet normal -5.165476e-01 8.169447e-01 2.564758e-01
    outer loop
      vertex 4.1645284375e+05 3.7706658750e+06 -6.9780312500e+03
      vertex 4.1679698438e+05 3.7708826875e+06 -6.9755312500e+03
      vertex 4.1620233594e+05 3.7716226875e+06 -1.0530265620e+04
    endloop
  endfacet
  facet normal -5.165041e-01 8.169713e-01 2.564788e-01
    outer loop
      vertex 4.1185300781e+05 3.7677682344e+06 -7.0110000000e+03
      vertex 4.1227017188e+05 3.7680310312e+06 -7.0080000000e+03
      vertex 4.1148273438e+05 3.7686495938e+06 -1.0564093750e+04
    endloop
  endfacet
  facet normal -5.165127e-01 8.169668e-01 2.564757e-01
    outer loop
      vertex 4.1729800000e+05 3.7689690781e+06 1.2893750000e+02
      vertex 4.1798629688e+05 3.7694026719e+06 1.3393750000e+02
      vertex 4.1739164062e+05 3.7701426719e+06 -3.4207968800e+03
    endloop
  endfacet
  facet normal -4.672847e-01 8.453874e-01 2.587761e-01
    outer loop
      vertex 4.1729925781e+05 3.7723372500e+06 -1.0511109380e+04
      vertex 4.1683571875e+05 3.7731677031e+06 -1.4061125000e+04
      vertex 4.1684357812e+05 3.7720869531e+06 -1.0516265620e+04
    endloop
  endfacet
  facet normal -5.164874e-01 8.169825e-01 2.564769e-01
    outer loop
      vertex 4.1189312500e+05 3.7655642969e+06 9.0187500000e+01
      vertex 4.1259355469e+05 3.7660055312e+06 9.5187500000e+01
      vertex 4.1153082812e+05 3.7664506719e+06 -3.4628593800e+03
    endloop
  endfacet
  facet normal -4.298708e-01 8.711642e-01 2.372426e-01
    outer loop
      vertex 4.2047084375e+05 3.7720208594e+06 -3.3698906200e+03
      vertex 4.2084725000e+05 3.7712379531e+06 1.8700000000e+02
      vertex 4.2129329688e+05 3.7714646562e+06 1.6275000000e+02
    endloop
  endfacet
  facet normal -3.371162e-01 9.171260e-01 2.126794e-01
    outer loop
      vertex 4.2086671094e+05 3.7739735625e+06 -1.0463078120e+04
      vertex 4.2100652344e+05 3.7740226719e+06 -1.0453234380e+04
      vertex 4.2048766406e+05 3.7746568281e+06 -1.4010312500e+04
    endloop
  endfacet
  facet normal -3.364605e-01 9.069266e-01 2.535321e-01
    outer loop
      vertex 4.1911599219e+05 3.7723788594e+06 -6.9446875000e+03
      vertex 4.1939561719e+05 3.7724770938e+06 -6.9250000000e+03
      vertex 4.1915311719e+05 3.7733774375e+06 -1.0467500000e+04
    endloop
  endfacet
  facet normal -5.164851e-01 8.169834e-01 2.564785e-01
    outer loop
      vertex 4.1359584375e+05 3.7677515312e+06 -3.4480312500e+03
      vertex 4.1409724219e+05 3.7680673750e+06 -3.4444218800e+03
      vertex 4.1342954688e+05 3.7687613750e+06 -6.9996562500e+03
    endloop
  endfacet
  facet normal -4.276592e-01 8.763340e-01 2.216898e-01
    outer loop
      vertex 4.2068907031e+05 3.7738587812e+06 -1.0467046880e+04
      vertex 4.2105392188e+05 3.7731403750e+06 -6.9233750000e+03
      vertex 4.2077078906e+05 3.7738986094e+06 -1.0466843750e+04
    endloop
  endfacet
  facet normal -5.278442e-01 8.091420e-01 2.582048e-01
    outer loop
      vertex 4.1868987500e+05 3.7698458906e+06 1.3893750000e+02
      vertex 4.1831610156e+05 3.7707332969e+06 -3.4060468800e+03
      vertex 4.1822633594e+05 3.7706763438e+06 -3.4110781200e+03
    endloop
  endfacet
  facet normal -6.068334e-01 7.659303e-01 2.123773e-01
    outer loop
      vertex 4.2077078906e+05 3.7738986094e+06 -1.0466843750e+04
      vertex 4.2086671094e+05 3.7739735625e+06 -1.0463078120e+04
      vertex 4.2048766406e+05 3.7746568281e+06 -1.4010312500e+04
    endloop
  endfacet
  facet normal -5.164799e-01 8.169866e-01 2.564787e-01
    outer loop
      vertex 4.1019240625e+05 3.7678367344e+06 -1.0573375000e+04
      vertex 4.0977540625e+05 3.7686886562e+06 -1.4126812500e+04
      vertex 4.0956665625e+05 3.7674425625e+06 -1.0577875000e+04
    endloop
  endfacet
  facet normal -5.164688e-01 8.169953e-01 2.564735e-01
    outer loop
      vertex 4.0779092188e+05 3.7674385312e+06 -1.4141062500e+04
      vertex 4.0744137500e+05 3.7672183281e+06 -1.4143500000e+04
      vertex 4.0835449219e+05 3.7666789375e+06 -1.0586500000e+04
    endloop
  endfacet
  facet normal -5.278445e-01 8.091429e-01 2.582014e-01
    outer loop
      vertex 4.1831610156e+05 3.7707332969e+06 -3.4060468800e+03
      vertex 4.1794232812e+05 3.7716206875e+06 -6.9510312500e+03
      vertex 4.1822633594e+05 3.7706763438e+06 -3.4110781200e+03
    endloop
  endfacet
  facet normal -4.298508e-01 8.711748e-01 2.372399e-01
    outer loop
      vertex 4.2009442969e+05 3.7728037500e+06 -6.9267812500e+03
      vertex 4.2047084375e+05 3.7720208594e+06 -3.3698906200e+03
      vertex 4.2080537500e+05 3.7721908750e+06 -3.3880781200e+03
    endloop
  endfacet
  facet normal -5.164846e-01 8.169847e-01 2.564755e-01
    outer loop
      vertex 4.0947927344e+05 3.7673875000e+06 -1.0578484380e+04
      vertex 4.0895395312e+05 3.7670565781e+06 -1.0582234380e+04
      vertex 4.0966725000e+05 3.7663913125e+06 -7.0266562500e+03
    endloop
  endfacet
  facet normal -5.165063e-01 8.169699e-01 2.564789e-01
    outer loop
      vertex 4.1687542188e+05 3.7698174844e+06 -3.4245468800e+03
      vertex 4.1739164062e+05 3.7701426719e+06 -3.4207968800e+03
      vertex 4.1679698438e+05 3.7708826875e+06 -6.9755312500e+03
    endloop
  endfacet
  facet normal -4.979357e-01 8.336527e-01 2.389211e-01
    outer loop
      vertex 4.2080537500e+05 3.7721908750e+06 -3.3880781200e+03
      vertex 4.2129329688e+05 3.7714646562e+06 1.6275000000e+02
      vertex 4.2088900000e+05 3.7722393594e+06 -3.3829687500e+03
    endloop
  endfacet
  facet normal -5.164755e-01 8.169900e-01 2.564768e-01
    outer loop
      vertex 4.1276101562e+05 3.7683402188e+06 -7.0044687500e+03
      vertex 4.1169131250e+05 3.7687809844e+06 -1.0562593750e+04
      vertex 4.1227017188e+05 3.7680310312e+06 -7.0080000000e+03
    endloop
  endfacet
  facet normal -5.165306e-01 8.169550e-01 2.564774e-01
    outer loop
      vertex 4.1645284375e+05 3.7706658750e+06 -6.9780312500e+03
      vertex 4.1620233594e+05 3.7716226875e+06 -1.0530265620e+04
      vertex 4.1603025781e+05 3.7715142812e+06 -1.0531515620e+04
    endloop
  endfacet
  facet normal -5.888847e-01 7.659445e-01 2.579610e-01
    outer loop
      vertex 4.1798629688e+05 3.7694026719e+06 1.3393750000e+02
      vertex 4.1754675781e+05 3.7702605000e+06 -3.4165468800e+03
      vertex 4.1739164062e+05 3.7701426719e+06 -3.4207968800e+03
    endloop
  endfacet
  facet normal -3.364157e-01 9.069429e-01 2.535331e-01
    outer loop
      vertex 4.1949830469e+05 3.7715276406e+06 -3.3923437500e+03
      vertex 4.1963811719e+05 3.7715767500e+06 -3.3825000000e+03
      vertex 4.1939561719e+05 3.7724770938e+06 -6.9250000000e+03
    endloop
  endfacet
  facet normal -4.248766e-01 8.708362e-01 2.472330e-01
    outer loop
      vertex 4.1988061719e+05 3.7706764219e+06 1.6000000000e+02
      vertex 4.1940239062e+05 3.7714526875e+06 -3.3961093800e+03
      vertex 4.1932067188e+05 3.7714128750e+06 -3.3963125000e+03
    endloop
  endfacet
  facet normal -5.165125e-01 8.169663e-01 2.564778e-01
    outer loop
      vertex 4.1276101562e+05 3.7683402188e+06 -7.0044687500e+03
      vertex 4.1309528125e+05 3.7685507969e+06 -7.0020625000e+03
      vertex 4.1242757812e+05 3.7692447812e+06 -1.0557296880e+04
    endloop
  endfacet
  facet normal -5.164270e-01 8.170234e-01 2.564681e-01
    outer loop
      vertex 4.0944239062e+05 3.7662496562e+06 -7.0282812500e+03
      vertex 4.0926760938e+05 3.7661395625e+06 -7.0295000000e+03
      vertex 4.1018073438e+05 3.7656001719e+06 -3.4725000000e+03
    endloop
  endfacet
  facet normal -5.164825e-01 8.169857e-01 2.564766e-01
    outer loop
      vertex 4.1503739844e+05 3.7720034375e+06 -1.4089062500e+04
      vertex 4.1433382031e+05 3.7715602188e+06 -1.4094062500e+04
      vertex 4.1491076562e+05 3.7708090625e+06 -1.0539484380e+04
    endloop
  endfacet
  facet normal -5.164894e-01 8.169811e-01 2.564772e-01
    outer loop
      vertex 4.1227017188e+05 3.7680310312e+06 -7.0080000000e+03
      vertex 4.1169131250e+05 3.7687809844e+06 -1.0562593750e+04
      vertex 4.1148273438e+05 3.7686495938e+06 -1.0564093750e+04
    endloop
  endfacet
  facet normal -4.298508e-01 8.711749e-01 2.372396e-01
    outer loop
      vertex 4.2047084375e+05 3.7720208594e+06 -3.3698906200e+03
      vertex 4.2129329688e+05 3.7714646562e+06 1.6275000000e+02
      vertex 4.2080537500e+05 3.7721908750e+06 -3.3880781200e+03
    endloop
  endfacet
  facet normal -5.164921e-01 8.169794e-01 2.564772e-01
    outer loop
      vertex 4.1392537500e+05 3.7701883125e+06 -1.0546593750e+04
      vertex 4.1343307812e+05 3.7698781875e+06 -1.0550109380e+04
      vertex 4.1420523438e+05 3.7692500000e+06 -6.9941250000e+03
    endloop
  endfacet
  facet normal -5.164940e-01 8.169780e-01 2.564780e-01
    outer loop
      vertex 4.1209414844e+05 3.7701493438e+06 -1.4110125000e+04
      vertex 4.1111246094e+05 3.7695309375e+06 -1.4117187500e+04
      vertex 4.1242757812e+05 3.7692447812e+06 -1.0557296880e+04
    endloop
  endfacet
  facet normal -5.164869e-01 8.169822e-01 2.564787e-01
    outer loop
      vertex 4.1603025781e+05 3.7715142812e+06 -1.0531515620e+04
      vertex 4.1560254688e+05 3.7712448438e+06 -1.0534562500e+04
      vertex 4.1616770312e+05 3.7704862500e+06 -6.9800625000e+03
    endloop
  endfacet
  facet normal -4.672872e-01 8.453862e-01 2.587758e-01
    outer loop
      vertex 4.1683571875e+05 3.7731677031e+06 -1.4061125000e+04
      vertex 4.1622814062e+05 3.7728339688e+06 -1.4068000000e+04
      vertex 4.1684357812e+05 3.7720869531e+06 -1.0516265620e+04
    endloop
  endfacet
  facet normal -3.364606e-01 9.069271e-01 2.535302e-01
    outer loop
      vertex 4.1891061719e+05 3.7742777656e+06 -1.4010000000e+04
      vertex 4.1835136719e+05 3.7740812969e+06 -1.4049375000e+04
      vertex 4.1873367969e+05 3.7732300781e+06 -1.0497031250e+04
    endloop
  endfacet
  facet normal -5.165034e-01 8.169726e-01 2.564761e-01
    outer loop
      vertex 4.1044392969e+05 3.7691097969e+06 -1.4122000000e+04
      vertex 4.0977540625e+05 3.7686886562e+06 -1.4126812500e+04
      vertex 4.1080622656e+05 3.7682234219e+06 -1.0568953120e+04
    endloop
  endfacet
  facet normal -5.164562e-01 8.170016e-01 2.564787e-01
    outer loop
      vertex 4.1583950000e+05 3.7702795000e+06 -6.9824062500e+03
      vertex 4.1543845312e+05 3.7711414688e+06 -1.0535734380e+04
      vertex 4.1548771094e+05 3.7700579062e+06 -6.9849062500e+03
    endloop
  endfacet
  facet normal -1.857827e-01 9.527605e-01 2.402754e-01
    outer loop
      vertex 4.2009379688e+05 3.7718270625e+06 -3.3773437500e+03
      vertex 4.2048819531e+05 3.7710101562e+06 1.6687500000e+02
      vertex 4.2020154688e+05 3.7718500000e+06 -3.3849843800e+03
    endloop
  endfacet
  facet normal -3.364606e-01 9.069271e-01 2.535302e-01
    outer loop
      vertex 4.1949830469e+05 3.7715276406e+06 -3.3923437500e+03
      vertex 4.1939561719e+05 3.7724770938e+06 -6.9250000000e+03
      vertex 4.1911599219e+05 3.7723788594e+06 -6.9446875000e+03
    endloop
  endfacet
  facet normal -5.165093e-01 8.169686e-01 2.564769e-01
    outer loop
      vertex 4.1080622656e+05 3.7682234219e+06 -1.0568953120e+04
      vertex 4.1030483594e+05 3.7679075625e+06 -1.0572562500e+04
      vertex 4.1116853125e+05 3.7673370469e+06 -7.0159062500e+03
    endloop
  endfacet
  facet normal -6.068641e-01 7.659063e-01 2.123760e-01
    outer loop
      vertex 4.2105392188e+05 3.7731403750e+06 -6.9233750000e+03
      vertex 4.2162479688e+05 3.7726070156e+06 -3.3686093800e+03
      vertex 4.2124575000e+05 3.7732902812e+06 -6.9158437500e+03
    endloop
  endfacet
  facet normal -5.888356e-01 7.659813e-01 2.579638e-01
    outer loop
      vertex 4.1710721875e+05 3.7711183125e+06 -6.9670312500e+03
      vertex 4.1666767969e+05 3.7719761406e+06 -1.0517515620e+04
      vertex 4.1679698438e+05 3.7708826875e+06 -6.9755312500e+03
    endloop
  endfacet
  facet normal -5.165093e-01 8.169685e-01 2.564773e-01
    outer loop
      vertex 4.1080622656e+05 3.7682234219e+06 -1.0568953120e+04
      vertex 4.0977540625e+05 3.7686886562e+06 -1.4126812500e+04
      vertex 4.1030483594e+05 3.7679075625e+06 -1.0572562500e+04
    endloop
  endfacet
  facet normal -5.165035e-01 8.169716e-01 2.564790e-01
    outer loop
      vertex 4.1616770312e+05 3.7704862500e+06 -6.9800625000e+03
      vertex 4.1560254688e+05 3.7712448438e+06 -1.0534562500e+04
      vertex 4.1543845312e+05 3.7711414688e+06 -1.0535734380e+04
    endloop
  endfacet
  facet normal -3.371766e-01 9.171033e-01 2.126814e-01
    outer loop
      vertex 4.2162479688e+05 3.7726070156e+06 -3.3686093800e+03
      vertex 4.2200384375e+05 3.7719237500e+06 1.7862500000e+02
      vertex 4.2204423438e+05 3.7727543750e+06 -3.3390781200e+03
    endloop
  endfacet
  facet normal -5.165033e-01 8.169724e-01 2.564771e-01
    outer loop
      vertex 4.1491076562e+05 3.7708090625e+06 -1.0539484380e+04
      vertex 4.1433382031e+05 3.7715602188e+06 -1.4094062500e+04
      vertex 4.1468702344e+05 3.7706681094e+06 -1.0541078120e+04
    endloop
  endfacet
  facet normal -5.164854e-01 8.169839e-01 2.564763e-01
    outer loop
      vertex 4.1222328125e+05 3.7668868750e+06 -3.4579062500e+03
      vertex 4.1151874219e+05 3.7675576562e+06 -7.0134062500e+03
      vertex 4.1205614844e+05 3.7667815938e+06 -3.4591093800e+03
    endloop
  endfacet
  facet normal -5.164845e-01 8.169845e-01 2.564763e-01
    outer loop
      vertex 4.1259355469e+05 3.7660055312e+06 9.5187500000e+01
      vertex 4.1205614844e+05 3.7667815938e+06 -3.4591093800e+03
      vertex 4.1153082812e+05 3.7664506719e+06 -3.4628593800e+03
    endloop
  endfacet
  facet normal -5.165038e-01 8.169734e-01 2.564729e-01
    outer loop
      vertex 4.1432098438e+05 3.7682083281e+06 -3.4428281200e+03
      vertex 4.1387703125e+05 3.7690432500e+06 -6.9964687500e+03
      vertex 4.1409724219e+05 3.7680673750e+06 -3.4444218800e+03
    endloop
  endfacet
  facet normal -6.068538e-01 7.659143e-01 2.123764e-01
    outer loop
      vertex 4.2133704688e+05 3.7723821562e+06 -3.3799062500e+03
      vertex 4.2200384375e+05 3.7719237500e+06 1.7862500000e+02
      vertex 4.2162479688e+05 3.7726070156e+06 -3.3686093800e+03
    endloop
  endfacet
  facet normal -5.164959e-01 8.169762e-01 2.564798e-01
    outer loop
      vertex 4.1151874219e+05 3.7675576562e+06 -7.0134062500e+03
      vertex 4.1098133594e+05 3.7683337344e+06 -1.0567703120e+04
      vertex 4.1080622656e+05 3.7682234219e+06 -1.0568953120e+04
    endloop
  endfacet
  facet normal -5.277942e-01 8.091743e-01 2.582058e-01
    outer loop
      vertex 4.1794232812e+05 3.7716206875e+06 -6.9510312500e+03
      vertex 4.1776279688e+05 3.7715067969e+06 -6.9610937500e+03
      vertex 4.1822633594e+05 3.7706763438e+06 -3.4110781200e+03
    endloop
  endfacet
  facet normal -4.249660e-01 8.707919e-01 2.472353e-01
    outer loop
      vertex 4.1844592188e+05 3.7730052188e+06 -1.0508328120e+04
      vertex 4.1796769531e+05 3.7737814844e+06 -1.4064437500e+04
      vertex 4.1820076562e+05 3.7728857500e+06 -1.0508937500e+04
    endloop
  endfacet
  facet normal -5.161684e-01 8.164503e-01 2.588032e-01
    outer loop
      vertex 4.1926015625e+05 3.7702051406e+06 1.4300000000e+02
      vertex 4.1874381250e+05 3.7710027344e+06 -3.4030000000e+03
      vertex 4.1831610156e+05 3.7707332969e+06 -3.4060468800e+03
    endloop
  endfacet
  facet normal -6.068637e-01 7.659057e-01 2.123792e-01
    outer loop
      vertex 4.2077078906e+05 3.7738986094e+06 -1.0466843750e+04
      vertex 4.2105392188e+05 3.7731403750e+06 -6.9233750000e+03
      vertex 4.2124575000e+05 3.7732902812e+06 -6.9158437500e+03
    endloop
  endfacet
  facet normal -1.146077e-01 9.773999e-01 1.776358e-01
    outer loop
      vertex 4.2119789844e+05 3.7740940938e+06 -1.0455765620e+04
      vertex 4.2140078125e+05 3.7741174375e+06 -1.0453312500e+04
      vertex 4.2048766406e+05 3.7746568281e+06 -1.4010312500e+04
    endloop
  endfacet
  facet normal -4.249661e-01 8.707920e-01 2.472350e-01
    outer loop
      vertex 4.1844592188e+05 3.7730052188e+06 -1.0508328120e+04
      vertex 4.1820076562e+05 3.7728857500e+06 -1.0508937500e+04
      vertex 4.1876071875e+05 3.7721493125e+06 -6.9526250000e+03
    endloop
  endfacet
  facet normal -5.165033e-01 8.169718e-01 2.564788e-01
    outer loop
      vertex 4.1148273438e+05 3.7686495938e+06 -1.0564093750e+04
      vertex 4.1098133594e+05 3.7683337344e+06 -1.0567703120e+04
      vertex 4.1185300781e+05 3.7677682344e+06 -7.0110000000e+03
    endloop
  endfacet
  facet normal -5.165398e-01 8.169489e-01 2.564784e-01
    outer loop
      vertex 4.1276184375e+05 3.7694553594e+06 -1.0554890620e+04
      vertex 4.1209414844e+05 3.7701493438e+06 -1.4110125000e+04
      vertex 4.1259471094e+05 3.7693500625e+06 -1.0556093750e+04
    endloop
  endfacet
  facet normal -5.164880e-01 8.169823e-01 2.564761e-01
    outer loop
      vertex 4.1242757812e+05 3.7692447812e+06 -1.0557296880e+04
      vertex 4.1111246094e+05 3.7695309375e+06 -1.4117187500e+04
      vertex 4.1169131250e+05 3.7687809844e+06 -1.0562593750e+04
    endloop
  endfacet
  facet normal -5.165034e-01 8.169726e-01 2.564762e-01
    outer loop
      vertex 4.1476493750e+05 3.7673733906e+06 1.1081250000e+02
      vertex 4.1432098438e+05 3.7682083281e+06 -3.4428281200e+03
      vertex 4.1409724219e+05 3.7680673750e+06 -3.4444218800e+03
    endloop
  endfacet
  facet normal -5.164707e-01 8.169923e-01 2.564792e-01
    outer loop
      vertex 4.1543845312e+05 3.7711414688e+06 -1.0535734380e+04
      vertex 4.1503739844e+05 3.7720034375e+06 -1.4089062500e+04
      vertex 4.1491076562e+05 3.7708090625e+06 -1.0539484380e+04
    endloop
  endfacet
  facet normal -5.164991e-01 8.169754e-01 2.564760e-01
    outer loop
      vertex 4.1409640625e+05 3.7669522500e+06 1.0600000000e+02
      vertex 4.1476493750e+05 3.7673733906e+06 1.1081250000e+02
      vertex 4.1409724219e+05 3.7680673750e+06 -3.4444218800e+03
    endloop
  endfacet
  facet normal -5.165091e-01 8.169683e-01 2.564785e-01
    outer loop
      vertex 4.1409640625e+05 3.7669522500e+06 1.0600000000e+02
      vertex 4.1359584375e+05 3.7677515312e+06 -3.4480312500e+03
      vertex 4.1309445312e+05 3.7674356719e+06 -3.4516406200e+03
    endloop
  endfacet
  facet normal -5.164866e-01 8.169838e-01 2.564742e-01
    outer loop
      vertex 4.1673285156e+05 3.7697276719e+06 -3.4255625000e+03
      vertex 4.1616770312e+05 3.7704862500e+06 -6.9800625000e+03
      vertex 4.1583950000e+05 3.7702795000e+06 -6.9824062500e+03
    endloop
  endfacet
  facet normal -4.275239e-01 8.764003e-01 2.216884e-01
    outer loop
      vertex 4.2089048438e+05 3.7730607500e+06 -6.9237812500e+03
      vertex 4.2133704688e+05 3.7723821562e+06 -3.3799062500e+03
      vertex 4.2105392188e+05 3.7731403750e+06 -6.9233750000e+03
    endloop
  endfacet
  facet normal -5.165036e-01 8.169723e-01 2.564766e-01
    outer loop
      vertex 4.1148273438e+05 3.7686495938e+06 -1.0564093750e+04
      vertex 4.1044392969e+05 3.7691097969e+06 -1.4122000000e+04
      vertex 4.1098133594e+05 3.7683337344e+06 -1.0567703120e+04
    endloop
  endfacet
  facet normal -5.164753e-01 8.169895e-01 2.564788e-01
    outer loop
      vertex 4.1060940625e+05 3.7669848125e+06 -7.0199375000e+03
      vertex 4.1019240625e+05 3.7678367344e+06 -1.0573375000e+04
      vertex 4.1019223438e+05 3.7667220312e+06 -7.0229375000e+03
    endloop
  endfacet
  facet normal -1.859187e-01 9.527318e-01 2.402839e-01
    outer loop
      vertex 4.1930501562e+05 3.7734608594e+06 -1.0465781250e+04
      vertex 4.1962825781e+05 3.7735297188e+06 -1.0488703120e+04
      vertex 4.1891061719e+05 3.7742777656e+06 -1.4010000000e+04
    endloop
  endfacet
  facet normal -4.266900e-01 8.670668e-01 2.571590e-01
    outer loop
      vertex 4.1926015625e+05 3.7702051406e+06 1.4300000000e+02
      vertex 4.1885532031e+05 3.7710594062e+06 -3.4090625000e+03
      vertex 4.1874381250e+05 3.7710027344e+06 -3.4030000000e+03
    endloop
  endfacet
  facet normal -5.164270e-01 8.170234e-01 2.564681e-01
    outer loop
      vertex 4.0944239062e+05 3.7662496562e+06 -7.0282812500e+03
      vertex 4.0861665625e+05 3.7668440938e+06 -1.0584671880e+04
      vertex 4.0926760938e+05 3.7661395625e+06 -7.0295000000e+03
    endloop
  endfacet
  facet normal -4.686182e-01 8.479924e-01 2.476004e-01
    outer loop
      vertex 4.1939561719e+05 3.7724770938e+06 -6.9250000000e+03
      vertex 4.1963811719e+05 3.7715767500e+06 -3.3825000000e+03
      vertex 4.2009379688e+05 3.7718270625e+06 -3.3773437500e+03
    endloop
  endfacet
  facet normal -4.686151e-01 8.479940e-01 2.476006e-01
    outer loop
      vertex 4.1915311719e+05 3.7733774375e+06 -1.0467500000e+04
      vertex 4.1939561719e+05 3.7724770938e+06 -6.9250000000e+03
      vertex 4.1969940625e+05 3.7726439688e+06 -6.9215625000e+03
    endloop
  endfacet
  facet normal -4.299319e-01 8.711341e-01 2.372424e-01
    outer loop
      vertex 4.1982953125e+05 3.7736433438e+06 -1.0489734380e+04
      vertex 4.1934160938e+05 3.7743695625e+06 -1.4040562500e+04
      vertex 4.1971801562e+05 3.7735866562e+06 -1.0483671880e+04
    endloop
  endfacet
  facet normal -5.161684e-01 8.164503e-01 2.588032e-01
    outer loop
      vertex 4.1771111719e+05 3.7725979062e+06 -1.0495000000e+04
      vertex 4.1719477344e+05 3.7733955000e+06 -1.4041000000e+04
      vertex 4.1756854688e+05 3.7725080938e+06 -1.0496015620e+04
    endloop
  endfacet
  facet normal -5.278217e-01 8.091565e-01 2.582052e-01
    outer loop
      vertex 4.1756854688e+05 3.7725080938e+06 -1.0496015620e+04
      vertex 4.1729925781e+05 3.7723372500e+06 -1.0511109380e+04
      vertex 4.1776279688e+05 3.7715067969e+06 -6.9610937500e+03
    endloop
  endfacet
  facet normal -5.300518e-01 8.146362e-01 2.353994e-01
    outer loop
      vertex 4.2020154688e+05 3.7718500000e+06 -3.3849843800e+03
      vertex 4.2048819531e+05 3.7710101562e+06 1.6687500000e+02
      vertex 4.2047084375e+05 3.7720208594e+06 -3.3698906200e+03
    endloop
  endfacet
  facet normal -5.164863e-01 8.169833e-01 2.564766e-01
    outer loop
      vertex 4.1476493750e+05 3.7673733906e+06 1.1081250000e+02
      vertex 4.1448508594e+05 3.7683117031e+06 -3.4416562500e+03
      vertex 4.1432098438e+05 3.7682083281e+06 -3.4428281200e+03
    endloop
  endfacet
  facet normal -5.164876e-01 8.169816e-01 2.564794e-01
    outer loop
      vertex 4.1242757812e+05 3.7692447812e+06 -1.0557296880e+04
      vertex 4.1169131250e+05 3.7687809844e+06 -1.0562593750e+04
      vertex 4.1276101562e+05 3.7683402188e+06 -7.0044687500e+03
    endloop
  endfacet
  facet normal -5.164936e-01 8.169791e-01 2.564752e-01
    outer loop
      vertex 4.0977540625e+05 3.7686886562e+06 -1.4126812500e+04
      vertex 4.0894107812e+05 3.7681630781e+06 -1.4132812500e+04
      vertex 4.0956665625e+05 3.7674425625e+06 -1.0577875000e+04
    endloop
  endfacet
  facet normal -5.165203e-01 8.169612e-01 2.564783e-01
    outer loop
      vertex 4.0966725000e+05 3.7663913125e+06 -7.0266562500e+03
      vertex 4.0895395312e+05 3.7670565781e+06 -1.0582234380e+04
      vertex 4.0944239062e+05 3.7662496562e+06 -7.0282812500e+03
    endloop
  endfacet
  facet normal -5.897419e-01 7.673476e-01 2.517583e-01
    outer loop
      vertex 4.1932067188e+05 3.7714128750e+06 -3.3963125000e+03
      vertex 4.1876071875e+05 3.7721493125e+06 -6.9526250000e+03
      vertex 4.1845048438e+05 3.7719136719e+06 -6.9611250000e+03
    endloop
  endfacet
  facet normal -5.165401e-01 8.169494e-01 2.564761e-01
    outer loop
      vertex 4.1309528125e+05 3.7685507969e+06 -7.0020625000e+03
      vertex 4.1276184375e+05 3.7694553594e+06 -1.0554890620e+04
      vertex 4.1259471094e+05 3.7693500625e+06 -1.0556093750e+04
    endloop
  endfacet
  facet normal -6.027097e-01 7.588654e-01 2.467071e-01
    outer loop
      vertex 4.1949830469e+05 3.7715276406e+06 -3.3923437500e+03
      vertex 4.1892415625e+05 3.7722289531e+06 -6.9522187500e+03
      vertex 4.1940239062e+05 3.7714526875e+06 -3.3961093800e+03
    endloop
  endfacet
  facet normal -5.165635e-01 8.169350e-01 2.564750e-01
    outer loop
      vertex 4.1001746875e+05 3.7666119375e+06 -7.0241562500e+03
      vertex 4.0956665625e+05 3.7674425625e+06 -1.0577875000e+04
      vertex 4.0947927344e+05 3.7673875000e+06 -1.0578484380e+04
    endloop
  endfacet
  facet normal -1.140481e-01 9.677875e-01 2.244558e-01
    outer loop
      vertex 4.2048766406e+05 3.7746568281e+06 -1.4010312500e+04
      vertex 4.1967612500e+05 3.7745634688e+06 -1.4020125000e+04
      vertex 4.2008042188e+05 3.7737887656e+06 -1.0474406250e+04
    endloop
  endfacet
  facet normal -5.164786e-01 8.169882e-01 2.564763e-01
    outer loop
      vertex 4.1205614844e+05 3.7667815938e+06 -3.4591093800e+03
      vertex 4.1151874219e+05 3.7675576562e+06 -7.0134062500e+03
      vertex 4.1116853125e+05 3.7673370469e+06 -7.0159062500e+03
    endloop
  endfacet
  facet normal -4.978353e-01 8.337121e-01 2.389227e-01
    outer loop
      vertex 4.2008042188e+05 3.7737887656e+06 -1.0474406250e+04
      vertex 4.1967612500e+05 3.7745634688e+06 -1.4020125000e+04
      vertex 4.1982953125e+05 3.7736433438e+06 -1.0489734380e+04
    endloop
  endfacet
  facet normal -4.298949e-01 8.711517e-01 2.372448e-01
    outer loop
      vertex 4.2009442969e+05 3.7728037500e+06 -6.9267812500e+03
      vertex 4.2080537500e+05 3.7721908750e+06 -3.3880781200e+03
      vertex 4.2031745312e+05 3.7729171094e+06 -6.9389062500e+03
    endloop
  endfacet
  facet normal -5.164874e-01 8.169825e-01 2.564768e-01
    outer loop
      vertex 4.0894107812e+05 3.7681630781e+06 -1.4132812500e+04
      vertex 4.0824064844e+05 3.7677218438e+06 -1.4137812500e+04
      vertex 4.0895395312e+05 3.7670565781e+06 -1.0582234380e+04
    endloop
  endfacet
  facet normal -5.164904e-01 8.169801e-01 2.564785e-01
    outer loop
      vertex 4.1664160156e+05 3.7685555781e+06 1.2425000000e+02
      vertex 4.1729800000e+05 3.7689690781e+06 1.2893750000e+02
      vertex 4.1624054688e+05 3.7694175469e+06 -3.4290781200e+03
    endloop
  endfacet
  facet normal -5.165033e-01 8.169724e-01 2.564771e-01
    outer loop
      vertex 4.1548771094e+05 3.7700579062e+06 -6.9849062500e+03
      vertex 4.1491076562e+05 3.7708090625e+06 -1.0539484380e+04
      vertex 4.1468702344e+05 3.7706681094e+06 -1.0541078120e+04
    endloop
  endfacet
  facet normal -1.145816e-01 9.774041e-01 1.776297e-01
    outer loop
      vertex 4.2231390625e+05 3.7735780625e+06 -6.8963125000e+03
      vertex 4.2261836719e+05 3.7729686562e+06 -3.3466718800e+03
      vertex 4.2322702344e+05 3.7730386719e+06 -3.3393125000e+03
    endloop
  endfacet
  facet normal -5.164871e-01 8.169825e-01 2.564776e-01
    outer loop
      vertex 4.1603025781e+05 3.7715142812e+06 -1.0531515620e+04
      vertex 4.1560767969e+05 3.7723626875e+06 -1.4085000000e+04
      vertex 4.1560254688e+05 3.7712448438e+06 -1.0534562500e+04
    endloop
  endfacet
  facet normal -4.983995e-01 8.353743e-01 2.318354e-01
    outer loop
      vertex 4.2174087500e+05 3.7734344219e+06 -6.9114375000e+03
      vertex 4.2236748438e+05 3.7728232188e+06 -3.3620000000e+03
      vertex 4.2190813281e+05 3.7735313750e+06 -6.9012187500e+03
    endloop
  endfacet
  facet normal -1.905757e-01 9.612557e-01 1.991693e-01
    outer loop
      vertex 4.2111426562e+05 3.7740456250e+06 -1.0460875000e+04
      vertex 4.2152537500e+05 3.7733885312e+06 -6.8961562500e+03
      vertex 4.2174087500e+05 3.7734344219e+06 -6.9114375000e+03
    endloop
  endfacet
  facet normal -5.165125e-01 8.169678e-01 2.564732e-01
    outer loop
      vertex 4.1102639844e+05 3.7661329062e+06 -3.4665000000e+03
      vertex 4.1136369531e+05 3.7663453906e+06 -3.4640625000e+03
      vertex 4.1060940625e+05 3.7669848125e+06 -7.0199375000e+03
    endloop
  endfacet
  facet normal -4.686181e-01 8.479922e-01 2.476011e-01
    outer loop
      vertex 4.1963811719e+05 3.7715767500e+06 -3.3825000000e+03
      vertex 4.2048819531e+05 3.7710101562e+06 1.6687500000e+02
      vertex 4.2009379688e+05 3.7718270625e+06 -3.3773437500e+03
    endloop
  endfacet
  facet normal -1.146056e-01 9.774010e-01 1.776313e-01
    outer loop
      vertex 4.2190813281e+05 3.7735313750e+06 -6.9012187500e+03
      vertex 4.2261836719e+05 3.7729686562e+06 -3.3466718800e+03
      vertex 4.2231390625e+05 3.7735780625e+06 -6.8963125000e+03
    endloop
  endfacet
  facet normal -1.857828e-01 9.527606e-01 2.402750e-01
    outer loop
      vertex 4.2009379688e+05 3.7718270625e+06 -3.3773437500e+03
      vertex 4.2020154688e+05 3.7718500000e+06 -3.3849843800e+03
      vertex 4.1969940625e+05 3.7726439688e+06 -6.9215625000e+03
    endloop
  endfacet
  facet normal -5.165129e-01 8.169669e-01 2.564751e-01
    outer loop
      vertex 4.1359584375e+05 3.7677515312e+06 -3.4480312500e+03
      vertex 4.1342954688e+05 3.7687613750e+06 -6.9996562500e+03
      vertex 4.1309528125e+05 3.7685507969e+06 -7.0020625000e+03
    endloop
  endfacet
  facet normal -5.165165e-01 8.169639e-01 2.564775e-01
    outer loop
      vertex 4.1664160156e+05 3.7685555781e+06 1.2425000000e+02
      vertex 4.1624054688e+05 3.7694175469e+06 -3.4290781200e+03
      vertex 4.1606465625e+05 3.7693067344e+06 -3.4303281200e+03
    endloop
  endfacet
  facet normal -3.371161e-01 9.171253e-01 2.126825e-01
    outer loop
      vertex 4.2086671094e+05 3.7739735625e+06 -1.0463078120e+04
      vertex 4.2124575000e+05 3.7732902812e+06 -6.9158437500e+03
      vertex 4.2100652344e+05 3.7740226719e+06 -1.0453234380e+04
    endloop
  endfacet
  facet normal -5.165140e-01 8.169654e-01 2.564776e-01
    outer loop
      vertex 4.1144339844e+05 3.7652809844e+06 8.6937500000e+01
      vertex 4.1189312500e+05 3.7655642969e+06 9.0187500000e+01
      vertex 4.1102639844e+05 3.7661329062e+06 -3.4665000000e+03
    endloop
  endfacet
  facet normal -1.140632e-01 9.677854e-01 2.244571e-01
    outer loop
      vertex 4.2088900000e+05 3.7722393594e+06 -3.3829687500e+03
      vertex 4.2109189062e+05 3.7722627031e+06 -3.3805156200e+03
      vertex 4.2089048438e+05 3.7730607500e+06 -6.9237812500e+03
    endloop
  endfacet
  facet normal -5.164948e-01 8.169786e-01 2.564743e-01
    outer loop
      vertex 4.1504021875e+05 3.7697760000e+06 -6.9880937500e+03
      vertex 4.1469607812e+05 3.7695592188e+06 -6.9905937500e+03
      vertex 4.1539342188e+05 3.7688839062e+06 -3.4351093800e+03
    endloop
  endfacet
  facet normal -5.300175e-01 8.146572e-01 2.354040e-01
    outer loop
      vertex 4.1991490625e+05 3.7726898594e+06 -6.9368437500e+03
      vertex 4.2020154688e+05 3.7718500000e+06 -3.3849843800e+03
      vertex 4.2009442969e+05 3.7728037500e+06 -6.9267812500e+03
    endloop
  endfacet
  facet normal -5.164718e-01 8.169923e-01 2.564769e-01
    outer loop
      vertex 4.1343307812e+05 3.7698781875e+06 -1.0550109380e+04
      vertex 4.1298912500e+05 3.7707131250e+06 -1.4103750000e+04
      vertex 4.1276184375e+05 3.7694553594e+06 -1.0554890620e+04
    endloop
  endfacet
  facet normal -3.364756e-01 9.069221e-01 2.535280e-01
    outer loop
      vertex 4.1873367969e+05 3.7732300781e+06 -1.0497031250e+04
      vertex 4.1915311719e+05 3.7733774375e+06 -1.0467500000e+04
      vertex 4.1891061719e+05 3.7742777656e+06 -1.4010000000e+04
    endloop
  endfacet
  facet normal -5.165121e-01 8.169655e-01 2.564812e-01
    outer loop
      vertex 4.1309445312e+05 3.7674356719e+06 -3.4516406200e+03
      vertex 4.1227017188e+05 3.7680310312e+06 -7.0080000000e+03
      vertex 4.1284903125e+05 3.7672810625e+06 -3.4534062500e+03
    endloop
  endfacet
  facet normal -1.858491e-01 9.527476e-01 2.402752e-01
    outer loop
      vertex 4.1969940625e+05 3.7726439688e+06 -6.9215625000e+03
      vertex 4.1991490625e+05 3.7726898594e+06 -6.9368437500e+03
      vertex 4.1930501562e+05 3.7734608594e+06 -1.0465781250e+04
    endloop
  endfacet
  facet normal -5.161683e-01 8.164501e-01 2.588042e-01
    outer loop
      vertex 4.1822746875e+05 3.7718003125e+06 -6.9490000000e+03
      vertex 4.1771111719e+05 3.7725979062e+06 -1.0495000000e+04
      vertex 4.1756854688e+05 3.7725080938e+06 -1.0496015620e+04
    endloop
  endfacet
  facet normal -4.686151e-01 8.479941e-01 2.476002e-01
    outer loop
      vertex 4.1939561719e+05 3.7724770938e+06 -6.9250000000e+03
      vertex 4.2009379688e+05 3.7718270625e+06 -3.3773437500e+03
      vertex 4.1969940625e+05 3.7726439688e+06 -6.9215625000e+03
    endloop
  endfacet
  facet normal -5.161682e-01 8.164501e-01 2.588042e-01
    outer loop
      vertex 4.1794232812e+05 3.7716206875e+06 -6.9510312500e+03
      vertex 4.1822746875e+05 3.7718003125e+06 -6.9490000000e+03
      vertex 4.1756854688e+05 3.7725080938e+06 -1.0496015620e+04
    endloop
  endfacet
  facet normal -5.897362e-01 7.673519e-01 2.517583e-01
    outer loop
      vertex 4.1876071875e+05 3.7721493125e+06 -6.9526250000e+03
      vertex 4.1820076562e+05 3.7728857500e+06 -1.0508937500e+04
      vertex 4.1804565625e+05 3.7727679375e+06 -1.0513187500e+04
    endloop
  endfacet
  facet normal -5.897497e-01 7.673409e-01 2.517603e-01
    outer loop
      vertex 4.1988061719e+05 3.7706764219e+06 1.6000000000e+02
      vertex 4.1932067188e+05 3.7714128750e+06 -3.3963125000e+03
      vertex 4.1885532031e+05 3.7710594062e+06 -3.4090625000e+03
    endloop
  endfacet
  facet normal -5.165126e-01 8.169663e-01 2.564778e-01
    outer loop
      vertex 4.1522135156e+05 3.7687755000e+06 -3.4363593800e+03
      vertex 4.1469607812e+05 3.7695592188e+06 -6.9905937500e+03
      vertex 4.1420523438e+05 3.7692500000e+06 -6.9941250000e+03
    endloop
  endfacet
  facet normal -5.164625e-01 8.169982e-01 2.564771e-01
    outer loop
      vertex 4.1387703125e+05 3.7690432500e+06 -6.9964687500e+03
      vertex 4.1343307812e+05 3.7698781875e+06 -1.0550109380e+04
      vertex 4.1342954688e+05 3.7687613750e+06 -6.9996562500e+03
    endloop
  endfacet
  facet normal -5.164858e-01 8.169845e-01 2.564737e-01
    outer loop
      vertex 4.1153082812e+05 3.7664506719e+06 -3.4628593800e+03
      vertex 4.1083426562e+05 3.7671264688e+06 -7.0183125000e+03
      vertex 4.1136369531e+05 3.7663453906e+06 -3.4640625000e+03
    endloop
  endfacet
  facet normal -4.249435e-01 8.708026e-01 2.472365e-01
    outer loop
      vertex 4.1796769531e+05 3.7737814844e+06 -1.4064437500e+04
      vertex 4.1764082031e+05 3.7736222031e+06 -1.4065250000e+04
      vertex 4.1820076562e+05 3.7728857500e+06 -1.0508937500e+04
    endloop
  endfacet
  facet normal -5.164992e-01 8.169754e-01 2.564757e-01
    outer loop
      vertex 4.1111246094e+05 3.7695309375e+06 -1.4117187500e+04
      vertex 4.1044392969e+05 3.7691097969e+06 -1.4122000000e+04
      vertex 4.1148273438e+05 3.7686495938e+06 -1.0564093750e+04
    endloop
  endfacet
  facet normal -4.248766e-01 8.708360e-01 2.472339e-01
    outer loop
      vertex 4.1940239062e+05 3.7714526875e+06 -3.3961093800e+03
      vertex 4.1892415625e+05 3.7722289531e+06 -6.9522187500e+03
      vertex 4.1932067188e+05 3.7714128750e+06 -3.3963125000e+03
    endloop
  endfacet
  facet normal -5.164587e-01 8.170006e-01 2.564770e-01
    outer loop
      vertex 4.1001746875e+05 3.7666119375e+06 -7.0241562500e+03
      vertex 4.1019223438e+05 3.7667220312e+06 -7.0229375000e+03
      vertex 4.0956665625e+05 3.7674425625e+06 -1.0577875000e+04
    endloop
  endfacet
  facet normal -3.371766e-01 9.171027e-01 2.126840e-01
    outer loop
      vertex 4.2152537500e+05 3.7733885312e+06 -6.8961562500e+03
      vertex 4.2162479688e+05 3.7726070156e+06 -3.3686093800e+03
      vertex 4.2204423438e+05 3.7727543750e+06 -3.3390781200e+03
    endloop
  endfacet
  facet normal -5.164625e-01 8.169982e-01 2.564771e-01
    outer loop
      vertex 4.1387703125e+05 3.7690432500e+06 -6.9964687500e+03
      vertex 4.1342954688e+05 3.7687613750e+06 -6.9996562500e+03
      vertex 4.1409724219e+05 3.7680673750e+06 -3.4444218800e+03
    endloop
  endfacet
  facet normal -5.165209e-01 8.169622e-01 2.564740e-01
    outer loop
      vertex 4.1136369531e+05 3.7663453906e+06 -3.4640625000e+03
      vertex 4.1083426562e+05 3.7671264688e+06 -7.0183125000e+03
      vertex 4.1060940625e+05 3.7669848125e+06 -7.0199375000e+03
    endloop
  endfacet
  facet normal -5.165129e-01 8.169668e-01 2.564755e-01
    outer loop
      vertex 4.1469607812e+05 3.7695592188e+06 -6.9905937500e+03
      vertex 4.1417079688e+05 3.7703429219e+06 -1.0544828120e+04
      vertex 4.1392537500e+05 3.7701883125e+06 -1.0546593750e+04
    endloop
  endfacet
  facet normal -6.068331e-01 7.659299e-01 2.123793e-01
    outer loop
      vertex 4.2077078906e+05 3.7738986094e+06 -1.0466843750e+04
      vertex 4.2124575000e+05 3.7732902812e+06 -6.9158437500e+03
      vertex 4.2086671094e+05 3.7739735625e+06 -1.0463078120e+04
    endloop
  endfacet
  facet normal -5.300518e-01 8.146362e-01 2.353994e-01
    outer loop
      vertex 4.2009442969e+05 3.7728037500e+06 -6.9267812500e+03
      vertex 4.2020154688e+05 3.7718500000e+06 -3.3849843800e+03
      vertex 4.2047084375e+05 3.7720208594e+06 -3.3698906200e+03
    endloop
  endfacet
  facet normal -5.164783e-01 8.169877e-01 2.564785e-01
    outer loop
      vertex 4.1116853125e+05 3.7673370469e+06 -7.0159062500e+03
      vertex 4.1151874219e+05 3.7675576562e+06 -7.0134062500e+03
      vertex 4.1080622656e+05 3.7682234219e+06 -1.0568953120e+04
    endloop
  endfacet
  facet normal -1.905755e-01 9.612553e-01 1.991713e-01
    outer loop
      vertex 4.2152537500e+05 3.7733885312e+06 -6.8961562500e+03
      vertex 4.2204423438e+05 3.7727543750e+06 -3.3390781200e+03
      vertex 4.2174087500e+05 3.7734344219e+06 -6.9114375000e+03
    endloop
  endfacet
  facet normal -5.165202e-01 8.169610e-01 2.564793e-01
    outer loop
      vertex 4.1109385156e+05 3.7650607812e+06 8.4500000000e+01
      vertex 4.1038054688e+05 3.7657260469e+06 -3.4710781200e+03
      vertex 4.1026811719e+05 3.7656552188e+06 -3.4718906200e+03
    endloop
  endfacet
  facet normal -5.165205e-01 8.169614e-01 2.564774e-01
    outer loop
      vertex 4.1060940625e+05 3.7669848125e+06 -7.0199375000e+03
      vertex 4.1083426562e+05 3.7671264688e+06 -7.0183125000e+03
      vertex 4.1019240625e+05 3.7678367344e+06 -1.0573375000e+04
    endloop
  endfacet
  facet normal -4.685986e-01 8.480038e-01 2.475983e-01
    outer loop
      vertex 4.1963811719e+05 3.7715767500e+06 -3.3825000000e+03
      vertex 4.1988061719e+05 3.7706764219e+06 1.6000000000e+02
      vertex 4.2048819531e+05 3.7710101562e+06 1.6687500000e+02
    endloop
  endfacet
  facet normal -5.164724e-01 8.169939e-01 2.564706e-01
    outer loop
      vertex 4.0861665625e+05 3.7668440938e+06 -1.0584671880e+04
      vertex 4.0835449219e+05 3.7666789375e+06 -1.0586500000e+04
      vertex 4.0926760938e+05 3.7661395625e+06 -7.0295000000e+03
    endloop
  endfacet
  facet normal -4.978603e-01 8.336970e-01 2.389235e-01
    outer loop
      vertex 4.2080537500e+05 3.7721908750e+06 -3.3880781200e+03
      vertex 4.2048471094e+05 3.7730140625e+06 -6.9286875000e+03
      vertex 4.2031745312e+05 3.7729171094e+06 -6.9389062500e+03
    endloop
  endfacet
  facet normal -5.165122e-01 8.169658e-01 2.564800e-01
    outer loop
      vertex 4.1185300781e+05 3.7677682344e+06 -7.0110000000e+03
      vertex 4.1098133594e+05 3.7683337344e+06 -1.0567703120e+04
      vertex 4.1151874219e+05 3.7675576562e+06 -7.0134062500e+03
    endloop
  endfacet
  facet normal -4.275916e-01 8.763673e-01 2.216887e-01
    outer loop
      vertex 4.2109189062e+05 3.7722627031e+06 -3.3805156200e+03
      vertex 4.2129329688e+05 3.7714646562e+06 1.6275000000e+02
      vertex 4.2162017188e+05 3.7716239375e+06 1.6356250000e+02
    endloop
  endfacet
  facet normal -5.164875e-01 8.169832e-01 2.564743e-01
    outer loop
      vertex 4.1687542188e+05 3.7698174844e+06 -3.4245468800e+03
      vertex 4.1645284375e+05 3.7706658750e+06 -6.9780312500e+03
      vertex 4.1673285156e+05 3.7697276719e+06 -3.4255625000e+03
    endloop
  endfacet
  facet normal -5.158772e-01 8.159345e-01 2.610009e-01
    outer loop
      vertex 4.1710721875e+05 3.7711183125e+06 -6.9670312500e+03
      vertex 4.1684357812e+05 3.7720869531e+06 -1.0516265620e+04
      vertex 4.1666767969e+05 3.7719761406e+06 -1.0517515620e+04
    endloop
  endfacet
  facet normal -4.984246e-01 8.353592e-01 2.318361e-01
    outer loop
      vertex 4.2236748438e+05 3.7728232188e+06 -3.3620000000e+03
      vertex 4.2299408594e+05 3.7722120156e+06 1.8743750000e+02
      vertex 4.2261836719e+05 3.7729686562e+06 -3.3466718800e+03
    endloop
  endfacet
  facet normal -5.165337e-01 8.169545e-01 2.564726e-01
    outer loop
      vertex 4.1102639844e+05 3.7661329062e+06 -3.4665000000e+03
      vertex 4.1060940625e+05 3.7669848125e+06 -7.0199375000e+03
      vertex 4.1081782031e+05 3.7660015000e+06 -3.4680000000e+03
    endloop
  endfacet
  facet normal -5.165127e-01 8.169665e-01 2.564768e-01
    outer loop
      vertex 4.1342788281e+05 3.7665311094e+06 1.0118750000e+02
      vertex 4.1309445312e+05 3.7674356719e+06 -3.4516406200e+03
      vertex 4.1284903125e+05 3.7672810625e+06 -3.4534062500e+03
    endloop
  endfacet
  facet normal -5.165125e-01 8.169662e-01 2.564784e-01
    outer loop
      vertex 4.1185300781e+05 3.7677682344e+06 -7.0110000000e+03
      vertex 4.1151874219e+05 3.7675576562e+06 -7.0134062500e+03
      vertex 4.1222328125e+05 3.7668868750e+06 -3.4579062500e+03
    endloop
  endfacet
  facet normal -1.858484e-01 9.527462e-01 2.402811e-01
    outer loop
      vertex 4.2020154688e+05 3.7718500000e+06 -3.3849843800e+03
      vertex 4.1991490625e+05 3.7726898594e+06 -6.9368437500e+03
      vertex 4.1969940625e+05 3.7726439688e+06 -6.9215625000e+03
    endloop
  endfacet
  facet normal -5.165204e-01 8.169612e-01 2.564783e-01
    outer loop
      vertex 4.1038054688e+05 3.7657260469e+06 -3.4710781200e+03
      vertex 4.0966725000e+05 3.7663913125e+06 -7.0266562500e+03
      vertex 4.1026811719e+05 3.7656552188e+06 -3.4718906200e+03
    endloop
  endfacet
  facet normal -1.140655e-01 9.677860e-01 2.244534e-01
    outer loop
      vertex 4.2048471094e+05 3.7730140625e+06 -6.9286875000e+03
      vertex 4.2089048438e+05 3.7730607500e+06 -6.9237812500e+03
      vertex 4.2068907031e+05 3.7738587812e+06 -1.0467046880e+04
    endloop
  endfacet
  facet normal -5.158534e-01 8.159492e-01 2.610024e-01
    outer loop
      vertex 4.1754675781e+05 3.7702605000e+06 -3.4165468800e+03
      vertex 4.1807443750e+05 3.7705929062e+06 -3.4127968800e+03
      vertex 4.1745900781e+05 3.7713399375e+06 -6.9645312500e+03
    endloop
  endfacet
  facet normal -5.164895e-01 8.169814e-01 2.564761e-01
    outer loop
      vertex 4.1169131250e+05 3.7687809844e+06 -1.0562593750e+04
      vertex 4.1111246094e+05 3.7695309375e+06 -1.4117187500e+04
      vertex 4.1148273438e+05 3.7686495938e+06 -1.0564093750e+04
    endloop
  endfacet
  facet normal -5.165204e-01 8.169614e-01 2.564774e-01
    outer loop
      vertex 4.1030483594e+05 3.7679075625e+06 -1.0572562500e+04
      vertex 4.0977540625e+05 3.7686886562e+06 -1.4126812500e+04
      vertex 4.1019240625e+05 3.7678367344e+06 -1.0573375000e+04
    endloop
  endfacet
  facet normal -5.164854e-01 8.169839e-01 2.564763e-01
    outer loop
      vertex 4.1259355469e+05 3.7660055312e+06 9.5187500000e+01
      vertex 4.1222328125e+05 3.7668868750e+06 -3.4579062500e+03
      vertex 4.1205614844e+05 3.7667815938e+06 -3.4591093800e+03
    endloop
  endfacet
  facet normal -5.164935e-01 8.169789e-01 2.564759e-01
    outer loop
      vertex 4.1259355469e+05 3.7660055312e+06 9.5187500000e+01
      vertex 4.1342788281e+05 3.7665311094e+06 1.0118750000e+02
      vertex 4.1222328125e+05 3.7668868750e+06 -3.4579062500e+03
    endloop
  endfacet
  facet normal -1.859187e-01 9.527318e-01 2.402837e-01
    outer loop
      vertex 4.1991490625e+05 3.7726898594e+06 -6.9368437500e+03
      vertex 4.1962825781e+05 3.7735297188e+06 -1.0488703120e+04
      vertex 4.1930501562e+05 3.7734608594e+06 -1.0465781250e+04
    endloop
  endfacet
  facet normal -5.164944e-01 8.169773e-01 2.564792e-01
    outer loop
      vertex 4.1222328125e+05 3.7668868750e+06 -3.4579062500e+03
      vertex 4.1284903125e+05 3.7672810625e+06 -3.4534062500e+03
      vertex 4.1185300781e+05 3.7677682344e+06 -7.0110000000e+03
    endloop
  endfacet
  facet normal -1.906547e-01 9.612379e-01 1.991798e-01
    outer loop
      vertex 4.2100652344e+05 3.7740226719e+06 -1.0453234380e+04
      vertex 4.2111426562e+05 3.7740456250e+06 -1.0460875000e+04
      vertex 4.2048766406e+05 3.7746568281e+06 -1.4010312500e+04
    endloop
  endfacet
  facet normal -5.164854e-01 8.169837e-01 2.564770e-01
    outer loop
      vertex 4.1189312500e+05 3.7655642969e+06 9.0187500000e+01
      vertex 4.1153082812e+05 3.7664506719e+06 -3.4628593800e+03
      vertex 4.1136369531e+05 3.7663453906e+06 -3.4640625000e+03
    endloop
  endfacet
  facet normal -4.983995e-01 8.353740e-01 2.318366e-01
    outer loop
      vertex 4.2261836719e+05 3.7729686562e+06 -3.3466718800e+03
      vertex 4.2299408594e+05 3.7722120156e+06 1.8743750000e+02
      vertex 4.2332860156e+05 3.7724059219e+06 2.0787500000e+02
    endloop
  endfacet
  facet normal -4.978353e-01 8.337120e-01 2.389232e-01
    outer loop
      vertex 4.2008042188e+05 3.7737887656e+06 -1.0474406250e+04
      vertex 4.1982953125e+05 3.7736433438e+06 -1.0489734380e+04
      vertex 4.2031745312e+05 3.7729171094e+06 -6.9389062500e+03
    endloop
  endfacet
  facet normal -5.164561e-01 8.170015e-01 2.564792e-01
    outer loop
      vertex 4.1583950000e+05 3.7702795000e+06 -6.9824062500e+03
      vertex 4.1548771094e+05 3.7700579062e+06 -6.9849062500e+03
      vertex 4.1606465625e+05 3.7693067344e+06 -3.4303281200e+03
    endloop
  endfacet
  facet normal -1.145816e-01 9.774038e-01 1.776312e-01
    outer loop
      vertex 4.2261836719e+05 3.7729686562e+06 -3.3466718800e+03
      vertex 4.2332860156e+05 3.7724059219e+06 2.0787500000e+02
      vertex 4.2322702344e+05 3.7730386719e+06 -3.3393125000e+03
    endloop
  endfacet
  facet normal -5.164854e-01 8.169839e-01 2.564762e-01
    outer loop
      vertex 4.1309528125e+05 3.7685507969e+06 -7.0020625000e+03
      vertex 4.1259471094e+05 3.7693500625e+06 -1.0556093750e+04
      vertex 4.1242757812e+05 3.7692447812e+06 -1.0557296880e+04
    endloop
  endfacet
  facet normal -5.161689e-01 8.164511e-01 2.587998e-01
    outer loop
      vertex 4.1874381250e+05 3.7710027344e+06 -3.4030000000e+03
      vertex 4.1822746875e+05 3.7718003125e+06 -6.9490000000e+03
      vertex 4.1794232812e+05 3.7716206875e+06 -6.9510312500e+03
    endloop
  endfacet
  facet normal -5.165126e-01 8.169666e-01 2.564766e-01
    outer loop
      vertex 4.1433382031e+05 3.7715602188e+06 -1.4094062500e+04
      vertex 4.1364552344e+05 3.7711266250e+06 -1.4099062500e+04
      vertex 4.1468702344e+05 3.7706681094e+06 -1.0541078120e+04
    endloop
  endfacet
  facet normal -5.888356e-01 7.659813e-01 2.579638e-01
    outer loop
      vertex 4.1710721875e+05 3.7711183125e+06 -6.9670312500e+03
      vertex 4.1679698438e+05 3.7708826875e+06 -6.9755312500e+03
      vertex 4.1739164062e+05 3.7701426719e+06 -3.4207968800e+03
    endloop
  endfacet
  facet normal -5.165203e-01 8.169612e-01 2.564783e-01
    outer loop
      vertex 4.0966725000e+05 3.7663913125e+06 -7.0266562500e+03
      vertex 4.0944239062e+05 3.7662496562e+06 -7.0282812500e+03
      vertex 4.1026811719e+05 3.7656552188e+06 -3.4718906200e+03
    endloop
  endfacet
  facet normal -5.164866e-01 8.169838e-01 2.564742e-01
    outer loop
      vertex 4.1624054688e+05 3.7694175469e+06 -3.4290781200e+03
      vertex 4.1673285156e+05 3.7697276719e+06 -3.4255625000e+03
      vertex 4.1583950000e+05 3.7702795000e+06 -6.9824062500e+03
    endloop
  endfacet
  facet normal -6.068539e-01 7.659144e-01 2.123756e-01
    outer loop
      vertex 4.2105392188e+05 3.7731403750e+06 -6.9233750000e+03
      vertex 4.2133704688e+05 3.7723821562e+06 -3.3799062500e+03
      vertex 4.2162479688e+05 3.7726070156e+06 -3.3686093800e+03
    endloop
  endfacet
  facet normal -5.164869e-01 8.169822e-01 2.564787e-01
    outer loop
      vertex 4.1645284375e+05 3.7706658750e+06 -6.9780312500e+03
      vertex 4.1603025781e+05 3.7715142812e+06 -1.0531515620e+04
      vertex 4.1616770312e+05 3.7704862500e+06 -6.9800625000e+03
    endloop
  endfacet
  facet normal -5.165126e-01 8.169664e-01 2.564773e-01
    outer loop
      vertex 4.1116853125e+05 3.7673370469e+06 -7.0159062500e+03
      vertex 4.1030483594e+05 3.7679075625e+06 -1.0572562500e+04
      vertex 4.1083426562e+05 3.7671264688e+06 -7.0183125000e+03
    endloop
  endfacet
  facet normal -5.897499e-01 7.673411e-01 2.517594e-01
    outer loop
      vertex 4.1885532031e+05 3.7710594062e+06 -3.4090625000e+03
      vertex 4.1932067188e+05 3.7714128750e+06 -3.3963125000e+03
      vertex 4.1845048438e+05 3.7719136719e+06 -6.9611250000e+03
    endloop
  endfacet
  facet normal -5.164844e-01 8.169842e-01 2.564773e-01
    outer loop
      vertex 4.0947927344e+05 3.7673875000e+06 -1.0578484380e+04
      vertex 4.0894107812e+05 3.7681630781e+06 -1.4132812500e+04
      vertex 4.0895395312e+05 3.7670565781e+06 -1.0582234380e+04
    endloop
  endfacet
  facet normal -4.267383e-01 8.670424e-01 2.571615e-01
    outer loop
      vertex 4.1845048438e+05 3.7719136719e+06 -6.9611250000e+03
      vertex 4.1771111719e+05 3.7725979062e+06 -1.0495000000e+04
      vertex 4.1822746875e+05 3.7718003125e+06 -6.9490000000e+03
    endloop
  endfacet
  facet normal -5.300346e-01 8.146466e-01 2.354023e-01
    outer loop
      vertex 4.2047084375e+05 3.7720208594e+06 -3.3698906200e+03
      vertex 4.2048819531e+05 3.7710101562e+06 1.6687500000e+02
      vertex 4.2084725000e+05 3.7712379531e+06 1.8700000000e+02
    endloop
  endfacet
  facet normal -5.164907e-01 8.169806e-01 2.564762e-01
    outer loop
      vertex 4.1364552344e+05 3.7711266250e+06 -1.4099062500e+04
      vertex 4.1298912500e+05 3.7707131250e+06 -1.4103750000e+04
      vertex 4.1392537500e+05 3.7701883125e+06 -1.0546593750e+04
    endloop
  endfacet
  facet normal -4.672947e-01 8.453819e-01 2.587762e-01
    outer loop
      vertex 4.1822633594e+05 3.7706763438e+06 -3.4110781200e+03
      vertex 4.1776279688e+05 3.7715067969e+06 -6.9610937500e+03
      vertex 4.1807443750e+05 3.7705929062e+06 -3.4127968800e+03
    endloop
  endfacet
  facet normal -5.165131e-01 8.169670e-01 2.564744e-01
    outer loop
      vertex 4.1417079688e+05 3.7703429219e+06 -1.0544828120e+04
      vertex 4.1364552344e+05 3.7711266250e+06 -1.4099062500e+04
      vertex 4.1392537500e+05 3.7701883125e+06 -1.0546593750e+04
    endloop
  endfacet
  facet normal -5.164719e-01 8.169925e-01 2.564763e-01
    outer loop
      vertex 4.1664160156e+05 3.7685555781e+06 1.2425000000e+02
      vertex 4.1606465625e+05 3.7693067344e+06 -3.4303281200e+03
      vertex 4.1539342188e+05 3.7688839062e+06 -3.4351093800e+03
    endloop
  endfacet
  facet normal -5.164596e-01 8.170019e-01 2.564710e-01
    outer loop
      vertex 4.1026811719e+05 3.7656552188e+06 -3.4718906200e+03
      vertex 4.0944239062e+05 3.7662496562e+06 -7.0282812500e+03
      vertex 4.1018073438e+05 3.7656001719e+06 -3.4725000000e+03
    endloop
  endfacet
  facet normal -5.164851e-01 8.169834e-01 2.564785e-01
    outer loop
      vertex 4.1409640625e+05 3.7669522500e+06 1.0600000000e+02
      vertex 4.1409724219e+05 3.7680673750e+06 -3.4444218800e+03
      vertex 4.1359584375e+05 3.7677515312e+06 -3.4480312500e+03
    endloop
  endfacet
  facet normal -6.026896e-01 7.588815e-01 2.467066e-01
    outer loop
      vertex 4.1873367969e+05 3.7732300781e+06 -1.0497031250e+04
      vertex 4.1796769531e+05 3.7737814844e+06 -1.4064437500e+04
      vertex 4.1844592188e+05 3.7730052188e+06 -1.0508328120e+04
    endloop
  endfacet
  facet normal -5.158855e-01 8.159295e-01 2.610002e-01
    outer loop
      vertex 4.1710721875e+05 3.7711183125e+06 -6.9670312500e+03
      vertex 4.1745900781e+05 3.7713399375e+06 -6.9645312500e+03
      vertex 4.1684357812e+05 3.7720869531e+06 -1.0516265620e+04
    endloop
  endfacet
  facet normal -4.978605e-01 8.336975e-01 2.389213e-01
    outer loop
      vertex 4.2031745312e+05 3.7729171094e+06 -6.9389062500e+03
      vertex 4.2048471094e+05 3.7730140625e+06 -6.9286875000e+03
      vertex 4.2008042188e+05 3.7737887656e+06 -1.0474406250e+04
    endloop
  endfacet
  facet normal -5.164755e-01 8.169900e-01 2.564768e-01
    outer loop
      vertex 4.1276101562e+05 3.7683402188e+06 -7.0044687500e+03
      vertex 4.1227017188e+05 3.7680310312e+06 -7.0080000000e+03
      vertex 4.1309445312e+05 3.7674356719e+06 -3.4516406200e+03
    endloop
  endfacet
  facet normal -5.897360e-01 7.673515e-01 2.517603e-01
    outer loop
      vertex 4.1820076562e+05 3.7728857500e+06 -1.0508937500e+04
      vertex 4.1764082031e+05 3.7736222031e+06 -1.4065250000e+04
      vertex 4.1804565625e+05 3.7727679375e+06 -1.0513187500e+04
    endloop
  endfacet
  facet normal -5.897464e-01 7.673437e-01 2.517596e-01
    outer loop
      vertex 4.1926015625e+05 3.7702051406e+06 1.4300000000e+02
      vertex 4.1988061719e+05 3.7706764219e+06 1.6000000000e+02
      vertex 4.1885532031e+05 3.7710594062e+06 -3.4090625000e+03
    endloop
  endfacet
  facet normal -6.068488e-01 7.659184e-01 2.123760e-01
    outer loop
      vertex 4.2133704688e+05 3.7723821562e+06 -3.3799062500e+03
      vertex 4.2162017188e+05 3.7716239375e+06 1.6356250000e+02
      vertex 4.2200384375e+05 3.7719237500e+06 1.7862500000e+02
    endloop
  endfacet
  facet normal -4.249438e-01 8.708032e-01 2.472338e-01
    outer loop
      vertex 4.1892415625e+05 3.7722289531e+06 -6.9522187500e+03
      vertex 4.1876071875e+05 3.7721493125e+06 -6.9526250000e+03
      vertex 4.1932067188e+05 3.7714128750e+06 -3.3963125000e+03
    endloop
  endfacet
  facet normal -5.165117e-01 8.169665e-01 2.564787e-01
    outer loop
      vertex 4.0895395312e+05 3.7670565781e+06 -1.0582234380e+04
      vertex 4.0824064844e+05 3.7677218438e+06 -1.4137812500e+04
      vertex 4.0861665625e+05 3.7668440938e+06 -1.0584671880e+04
    endloop
  endfacet
  facet normal -4.685393e-01 8.480367e-01 2.475978e-01
    outer loop
      vertex 4.1915311719e+05 3.7733774375e+06 -1.0467500000e+04
      vertex 4.1969940625e+05 3.7726439688e+06 -6.9215625000e+03
      vertex 4.1930501562e+05 3.7734608594e+06 -1.0465781250e+04
    endloop
  endfacet
  facet normal -5.164851e-01 8.169834e-01 2.564785e-01
    outer loop
      vertex 4.1259471094e+05 3.7693500625e+06 -1.0556093750e+04
      vertex 4.1209414844e+05 3.7701493438e+06 -1.4110125000e+04
      vertex 4.1242757812e+05 3.7692447812e+06 -1.0557296880e+04
    endloop
  endfacet
  facet normal -5.888586e-01 7.659650e-01 2.579596e-01
    outer loop
      vertex 4.1666767969e+05 3.7719761406e+06 -1.0517515620e+04
      vertex 4.1620233594e+05 3.7716226875e+06 -1.0530265620e+04
      vertex 4.1679698438e+05 3.7708826875e+06 -6.9755312500e+03
    endloop
  endfacet
  facet normal -5.158535e-01 8.159493e-01 2.610016e-01
    outer loop
      vertex 4.1798629688e+05 3.7694026719e+06 1.3393750000e+02
      vertex 4.1807443750e+05 3.7705929062e+06 -3.4127968800e+03
      vertex 4.1754675781e+05 3.7702605000e+06 -3.4165468800e+03
    endloop
  endfacet
  facet normal -5.164963e-01 8.169767e-01 2.564775e-01
    outer loop
      vertex 4.1109385156e+05 3.7650607812e+06 8.4500000000e+01
      vertex 4.1055565625e+05 3.7658363594e+06 -3.4698281200e+03
      vertex 4.1038054688e+05 3.7657260469e+06 -3.4710781200e+03
    endloop
  endfacet
  facet normal -5.164875e-01 8.169832e-01 2.564742e-01
    outer loop
      vertex 4.1645284375e+05 3.7706658750e+06 -6.9780312500e+03
      vertex 4.1616770312e+05 3.7704862500e+06 -6.9800625000e+03
      vertex 4.1673285156e+05 3.7697276719e+06 -3.4255625000e+03
    endloop
  endfacet
  facet normal -5.161689e-01 8.164511e-01 2.587998e-01
    outer loop
      vertex 4.1831610156e+05 3.7707332969e+06 -3.4060468800e+03
      vertex 4.1874381250e+05 3.7710027344e+06 -3.4030000000e+03
      vertex 4.1794232812e+05 3.7716206875e+06 -6.9510312500e+03
    endloop
  endfacet
  facet normal -5.165139e-01 8.169652e-01 2.564786e-01
    outer loop
      vertex 4.0824064844e+05 3.7677218438e+06 -1.4137812500e+04
      vertex 4.0779092188e+05 3.7674385312e+06 -1.4141062500e+04
      vertex 4.0861665625e+05 3.7668440938e+06 -1.0584671880e+04
    endloop
  endfacet
  facet normal -5.164720e-01 8.169926e-01 2.564755e-01
    outer loop
      vertex 4.1539342188e+05 3.7688839062e+06 -3.4351093800e+03
      vertex 4.1606465625e+05 3.7693067344e+06 -3.4303281200e+03
      vertex 4.1504021875e+05 3.7697760000e+06 -6.9880937500e+03
    endloop
  endfacet
  facet normal -5.888650e-01 7.659596e-01 2.579609e-01
    outer loop
      vertex 4.1622814062e+05 3.7728339688e+06 -1.4068000000e+04
      vertex 4.1560767969e+05 3.7723626875e+06 -1.4085000000e+04
      vertex 4.1620233594e+05 3.7716226875e+06 -1.0530265620e+04
    endloop
  endfacet
  facet normal -4.983247e-01 8.354207e-01 2.318291e-01
    outer loop
      vertex 4.2111426562e+05 3.7740456250e+06 -1.0460875000e+04
      vertex 4.2119789844e+05 3.7740940938e+06 -1.0455765620e+04
      vertex 4.2048766406e+05 3.7746568281e+06 -1.4010312500e+04
    endloop
  endfacet
  facet normal -5.164720e-01 8.169932e-01 2.564736e-01
    outer loop
      vertex 4.0861665625e+05 3.7668440938e+06 -1.0584671880e+04
      vertex 4.0779092188e+05 3.7674385312e+06 -1.4141062500e+04
      vertex 4.0835449219e+05 3.7666789375e+06 -1.0586500000e+04
    endloop
  endfacet
  facet normal -4.267064e-01 8.670586e-01 2.571595e-01
    outer loop
      vertex 4.1804565625e+05 3.7727679375e+06 -1.0513187500e+04
      vertex 4.1719477344e+05 3.7733955000e+06 -1.4041000000e+04
      vertex 4.1771111719e+05 3.7725979062e+06 -1.0495000000e+04
    endloop
  endfacet
  facet normal -5.164964e-01 8.169757e-01 2.564803e-01
    outer loop
      vertex 4.1606465625e+05 3.7693067344e+06 -3.4303281200e+03
      vertex 4.1548771094e+05 3.7700579062e+06 -6.9849062500e+03
      vertex 4.1504021875e+05 3.7697760000e+06 -6.9880937500e+03
    endloop
  endfacet
  facet normal -5.165125e-01 8.169663e-01 2.564779e-01
    outer loop
      vertex 4.1309528125e+05 3.7685507969e+06 -7.0020625000e+03
      vertex 4.1342954688e+05 3.7687613750e+06 -6.9996562500e+03
      vertex 4.1276184375e+05 3.7694553594e+06 -1.0554890620e+04
    endloop
  endfacet
  facet normal -5.165204e-01 8.169614e-01 2.564774e-01
    outer loop
      vertex 4.1083426562e+05 3.7671264688e+06 -7.0183125000e+03
      vertex 4.1030483594e+05 3.7679075625e+06 -1.0572562500e+04
      vertex 4.1019240625e+05 3.7678367344e+06 -1.0573375000e+04
    endloop
  endfacet
  facet normal -5.888851e-01 7.659452e-01 2.579579e-01
    outer loop
      vertex 4.1754675781e+05 3.7702605000e+06 -3.4165468800e+03
      vertex 4.1710721875e+05 3.7711183125e+06 -6.9670312500e+03
      vertex 4.1739164062e+05 3.7701426719e+06 -3.4207968800e+03
    endloop
  endfacet
  facet normal -1.145881e-01 9.774030e-01 1.776313e-01
    outer loop
      vertex 4.2322702344e+05 3.7730386719e+06 -3.3393125000e+03
      vertex 4.2332860156e+05 3.7724059219e+06 2.0787500000e+02
      vertex 4.2414014062e+05 3.7724992812e+06 2.1768750000e+02
    endloop
  endfacet
  facet normal -5.278217e-01 8.091563e-01 2.582060e-01
    outer loop
      vertex 4.1756854688e+05 3.7725080938e+06 -1.0496015620e+04
      vertex 4.1719477344e+05 3.7733955000e+06 -1.4041000000e+04
      vertex 4.1729925781e+05 3.7723372500e+06 -1.0511109380e+04
    endloop
  endfacet
  facet normal -5.165481e-01 8.169455e-01 2.564724e-01
    outer loop
      vertex 4.1687542188e+05 3.7698174844e+06 -3.4245468800e+03
      vertex 4.1679698438e+05 3.7708826875e+06 -6.9755312500e+03
      vertex 4.1645284375e+05 3.7706658750e+06 -6.9780312500e+03
    endloop
  endfacet
  facet normal -6.026895e-01 7.588813e-01 2.467075e-01
    outer loop
      vertex 4.1873367969e+05 3.7732300781e+06 -1.0497031250e+04
      vertex 4.1844592188e+05 3.7730052188e+06 -1.0508328120e+04
      vertex 4.1911599219e+05 3.7723788594e+06 -6.9446875000e+03
    endloop
  endfacet
  facet normal -1.905977e-01 9.612507e-01 1.991723e-01
    outer loop
      vertex 4.2174087500e+05 3.7734344219e+06 -6.9114375000e+03
      vertex 4.2204423438e+05 3.7727543750e+06 -3.3390781200e+03
      vertex 4.2236748438e+05 3.7728232188e+06 -3.3620000000e+03
    endloop
  endfacet
  facet normal -5.164870e-01 8.169825e-01 2.564776e-01
    outer loop
      vertex 4.1729800000e+05 3.7689690781e+06 1.2893750000e+02
      vertex 4.1687542188e+05 3.7698174844e+06 -3.4245468800e+03
      vertex 4.1673285156e+05 3.7697276719e+06 -3.4255625000e+03
    endloop
  endfacet
  facet normal -4.267024e-01 8.670607e-01 2.571589e-01
    outer loop
      vertex 4.1764082031e+05 3.7736222031e+06 -1.4065250000e+04
      vertex 4.1719477344e+05 3.7733955000e+06 -1.4041000000e+04
      vertex 4.1804565625e+05 3.7727679375e+06 -1.0513187500e+04
    endloop
  endfacet
  facet normal -5.164844e-01 8.169843e-01 2.564771e-01
    outer loop
      vertex 4.1153082812e+05 3.7664506719e+06 -3.4628593800e+03
      vertex 4.1205614844e+05 3.7667815938e+06 -3.4591093800e+03
      vertex 4.1116853125e+05 3.7673370469e+06 -7.0159062500e+03
    endloop
  endfacet
  facet normal -4.979357e-01 8.336529e-01 2.389201e-01
    outer loop
      vertex 4.2080537500e+05 3.7721908750e+06 -3.3880781200e+03
      vertex 4.2088900000e+05 3.7722393594e+06 -3.3829687500e+03
      vertex 4.2048471094e+05 3.7730140625e+06 -6.9286875000e+03
    endloop
  endfacet
  facet normal -5.888582e-01 7.659643e-01 2.579625e-01
    outer loop
      vertex 4.1666767969e+05 3.7719761406e+06 -1.0517515620e+04
      vertex 4.1622814062e+05 3.7728339688e+06 -1.4068000000e+04
      vertex 4.1620233594e+05 3.7716226875e+06 -1.0530265620e+04
    endloop
  endfacet
  facet normal -1.906552e-01 9.612387e-01 1.991753e-01
    outer loop
      vertex 4.2100652344e+05 3.7740226719e+06 -1.0453234380e+04
      vertex 4.2152537500e+05 3.7733885312e+06 -6.8961562500e+03
      vertex 4.2111426562e+05 3.7740456250e+06 -1.0460875000e+04
    endloop
  endfacet
  facet normal -1.906120e-01 9.612475e-01 1.991739e-01
    outer loop
      vertex 4.2236748438e+05 3.7728232188e+06 -3.3620000000e+03
      vertex 4.2256309375e+05 3.7721202188e+06 2.1800000000e+02
      vertex 4.2299408594e+05 3.7722120156e+06 1.8743750000e+02
    endloop
  endfacet
  facet normal -1.140654e-01 9.677852e-01 2.244571e-01
    outer loop
      vertex 4.2088900000e+05 3.7722393594e+06 -3.3829687500e+03
      vertex 4.2089048438e+05 3.7730607500e+06 -6.9237812500e+03
      vertex 4.2048471094e+05 3.7730140625e+06 -6.9286875000e+03
    endloop
  endfacet
  facet normal -5.299837e-01 8.146792e-01 2.354041e-01
    outer loop
      vertex 4.1962825781e+05 3.7735297188e+06 -1.0488703120e+04
      vertex 4.1971801562e+05 3.7735866562e+06 -1.0483671880e+04
      vertex 4.1934160938e+05 3.7743695625e+06 -1.4040562500e+04
    endloop
  endfacet
  facet normal -5.165473e-01 8.169442e-01 2.564780e-01
    outer loop
      vertex 4.1539342188e+05 3.7688839062e+06 -3.4351093800e+03
      vertex 4.1469607812e+05 3.7695592188e+06 -6.9905937500e+03
      vertex 4.1522135156e+05 3.7687755000e+06 -3.4363593800e+03
    endloop
  endfacet
  facet normal -5.161684e-01 8.164503e-01 2.588032e-01
    outer loop
      vertex 4.1868987500e+05 3.7698458906e+06 1.3893750000e+02
      vertex 4.1926015625e+05 3.7702051406e+06 1.4300000000e+02
      vertex 4.1831610156e+05 3.7707332969e+06 -3.4060468800e+03
    endloop
  endfacet
  facet normal -4.672705e-01 8.453953e-01 2.587761e-01
    outer loop
      vertex 4.1776279688e+05 3.7715067969e+06 -6.9610937500e+03
      vertex 4.1729925781e+05 3.7723372500e+06 -1.0511109380e+04
      vertex 4.1745900781e+05 3.7713399375e+06 -6.9645312500e+03
    endloop
  endfacet
  facet normal -5.158596e-01 8.159459e-01 2.610003e-01
    outer loop
      vertex 4.1798629688e+05 3.7694026719e+06 1.3393750000e+02
      vertex 4.1868987500e+05 3.7698458906e+06 1.3893750000e+02
      vertex 4.1807443750e+05 3.7705929062e+06 -3.4127968800e+03
    endloop
  endfacet
  facet normal -5.165118e-01 8.169666e-01 2.564783e-01
    outer loop
      vertex 4.0895395312e+05 3.7670565781e+06 -1.0582234380e+04
      vertex 4.0861665625e+05 3.7668440938e+06 -1.0584671880e+04
      vertex 4.0944239062e+05 3.7662496562e+06 -7.0282812500e+03
    endloop
  endfacet
  facet normal -5.164867e-01 8.169840e-01 2.564732e-01
    outer loop
      vertex 4.1448508594e+05 3.7683117031e+06 -3.4416562500e+03
      vertex 4.1387703125e+05 3.7690432500e+06 -6.9964687500e+03
      vertex 4.1432098438e+05 3.7682083281e+06 -3.4428281200e+03
    endloop
  endfacet
  facet normal -3.372069e-01 9.170921e-01 2.126818e-01
    outer loop
      vertex 4.2100652344e+05 3.7740226719e+06 -1.0453234380e+04
      vertex 4.2124575000e+05 3.7732902812e+06 -6.9158437500e+03
      vertex 4.2152537500e+05 3.7733885312e+06 -6.8961562500e+03
    endloop
  endfacet
  facet normal -5.158859e-01 8.159302e-01 2.609974e-01
    outer loop
      vertex 4.1754675781e+05 3.7702605000e+06 -3.4165468800e+03
      vertex 4.1745900781e+05 3.7713399375e+06 -6.9645312500e+03
      vertex 4.1710721875e+05 3.7711183125e+06 -6.9670312500e+03
    endloop
  endfacet
  facet normal -4.275238e-01 8.764002e-01 2.216893e-01
    outer loop
      vertex 4.2068907031e+05 3.7738587812e+06 -1.0467046880e+04
      vertex 4.2089048438e+05 3.7730607500e+06 -6.9237812500e+03
      vertex 4.2105392188e+05 3.7731403750e+06 -6.9233750000e+03
    endloop
  endfacet
  facet normal -5.164800e-01 8.169868e-01 2.564780e-01
    outer loop
      vertex 4.1019240625e+05 3.7678367344e+06 -1.0573375000e+04
      vertex 4.0956665625e+05 3.7674425625e+06 -1.0577875000e+04
      vertex 4.1019223438e+05 3.7667220312e+06 -7.0229375000e+03
    endloop
  endfacet
  facet normal -1.140632e-01 9.677854e-01 2.244571e-01
    outer loop
      vertex 4.2088900000e+05 3.7722393594e+06 -3.3829687500e+03
      vertex 4.2129329688e+05 3.7714646562e+06 1.6275000000e+02
      vertex 4.2109189062e+05 3.7722627031e+06 -3.3805156200e+03
    endloop
  endfacet
  facet normal -5.164720e-01 8.169927e-01 2.564754e-01
    outer loop
      vertex 4.1343307812e+05 3.7698781875e+06 -1.0550109380e+04
      vertex 4.1276184375e+05 3.7694553594e+06 -1.0554890620e+04
      vertex 4.1342954688e+05 3.7687613750e+06 -6.9996562500e+03
    endloop
  endfacet
  facet normal -3.371615e-01 9.171086e-01 2.126829e-01
    outer loop
      vertex 4.2204423438e+05 3.7727543750e+06 -3.3390781200e+03
      vertex 4.2200384375e+05 3.7719237500e+06 1.7862500000e+02
      vertex 4.2256309375e+05 3.7721202188e+06 2.1800000000e+02
    endloop
  endfacet
  facet normal -5.164711e-01 8.169930e-01 2.564763e-01
    outer loop
      vertex 4.1543845312e+05 3.7711414688e+06 -1.0535734380e+04
      vertex 4.1491076562e+05 3.7708090625e+06 -1.0539484380e+04
      vertex 4.1548771094e+05 3.7700579062e+06 -6.9849062500e+03
    endloop
  endfacet
  facet normal -1.146056e-01 9.774010e-01 1.776314e-01
    outer loop
      vertex 4.2140078125e+05 3.7741174375e+06 -1.0453312500e+04
      vertex 4.2190813281e+05 3.7735313750e+06 -6.9012187500e+03
      vertex 4.2231390625e+05 3.7735780625e+06 -6.8963125000e+03
    endloop
  endfacet
  facet normal -4.984246e-01 8.353593e-01 2.318356e-01
    outer loop
      vertex 4.2190813281e+05 3.7735313750e+06 -6.9012187500e+03
      vertex 4.2236748438e+05 3.7728232188e+06 -3.3620000000e+03
      vertex 4.2261836719e+05 3.7729686562e+06 -3.3466718800e+03
    endloop
  endfacet
  facet normal -5.164800e-01 8.169878e-01 2.564748e-01
    outer loop
      vertex 4.1298912500e+05 3.7707131250e+06 -1.4103750000e+04
      vertex 4.1209414844e+05 3.7701493438e+06 -1.4110125000e+04
      vertex 4.1276184375e+05 3.7694553594e+06 -1.0554890620e+04
    endloop
  endfacet
  facet normal -5.164948e-01 8.169780e-01 2.564763e-01
    outer loop
      vertex 4.1342788281e+05 3.7665311094e+06 1.0118750000e+02
      vertex 4.1284903125e+05 3.7672810625e+06 -3.4534062500e+03
      vertex 4.1222328125e+05 3.7668868750e+06 -3.4579062500e+03
    endloop
  endfacet
  facet normal -5.165308e-01 8.169552e-01 2.564763e-01
    outer loop
      vertex 4.1620233594e+05 3.7716226875e+06 -1.0530265620e+04
      vertex 4.1560767969e+05 3.7723626875e+06 -1.4085000000e+04
      vertex 4.1603025781e+05 3.7715142812e+06 -1.0531515620e+04
    endloop
  endfacet
  facet normal -4.267067e-01 8.670589e-01 2.571581e-01
    outer loop
      vertex 4.1804565625e+05 3.7727679375e+06 -1.0513187500e+04
      vertex 4.1771111719e+05 3.7725979062e+06 -1.0495000000e+04
      vertex 4.1845048438e+05 3.7719136719e+06 -6.9611250000e+03
    endloop
  endfacet
  facet normal -5.164942e-01 8.169784e-01 2.564760e-01
    outer loop
      vertex 4.1476493750e+05 3.7673733906e+06 1.1081250000e+02
      vertex 4.1574662500e+05 3.7679917969e+06 1.1787500000e+02
      vertex 4.1448508594e+05 3.7683117031e+06 -3.4416562500e+03
    endloop
  endfacet
  facet normal -5.164795e-01 8.169870e-01 2.564784e-01
    outer loop
      vertex 4.1574662500e+05 3.7679917969e+06 1.1787500000e+02
      vertex 4.1664160156e+05 3.7685555781e+06 1.2425000000e+02
      vertex 4.1539342188e+05 3.7688839062e+06 -3.4351093800e+03
    endloop
  endfacet
  facet normal -5.165129e-01 8.169668e-01 2.564755e-01
    outer loop
      vertex 4.1420523438e+05 3.7692500000e+06 -6.9941250000e+03
      vertex 4.1469607812e+05 3.7695592188e+06 -6.9905937500e+03
      vertex 4.1392537500e+05 3.7701883125e+06 -1.0546593750e+04
    endloop
  endfacet
endsolid WTRA-USAV-WLNC-Walnut_Creek_fault-CFM5
